<svg xmlns="http://www.w3.org/2000/svg" width="150" height="50" viewBox="0,0,150,50"><rect width="100%" height="100%" fill="#fff"/><path fill="#7373e2" d="M56.47 28.61L56.53 28.66L56.50 28.64Q54.99 28.65 53.88 29.93L53.88 29.93L53.71 29.76Q52.68 31.11 52.51 32.81L52.60 32.89L52.54 32.84Q52.34 34.67 53.30 35.54L53.25 35.49L53.23 35.46Q54.34 36.47 56.21 36.37L56.06 36.22L56.13 36.29Q58.07 36.23 59.06 35.61L58.97 35.53L59.02 35.58Q59.95 34.51 59.95 33.11L59.92 33.08L60.04 33.20Q59.99 32.81 59.93 32.47L60.00 32.55L59.84 32.39Q59.92 30.91 58.94 29.70L58.92 29.68L58.94 29.70Q58.06 28.60 56.56 28.70ZM56.08 38.52L56.08 38.52L56.14 38.58Q52.27 38.61 51.01 37.93L51.09 38.01L51.03 37.96Q50.06 37.22 49.89 35.69L49.90 35.70L49.92 35.72Q49.93 35.16 49.96 34.51L49.89 34.44L49.83 34.38Q50.10 33.66 50.10 33.25L49.93 33.08L49.91 33.07Q50.48 30.68 50.62 30.06L50.52 29.97L50.54 29.99Q50.90 28.20 51.65 26.95L51.62 26.92L51.79 27.09Q53.99 23.00 59.30 17.33L59.39 17.43L59.41 17.44Q61.86 17.24 63.83 16.53L63.78 16.48L63.77 16.46Q57.58 23.06 54.73 26.83L54.74 26.84L54.79 26.89Q55.72 26.50 56.88 26.50L56.89 26.52L56.88 26.50Q59.84 26.51 61.20 28.24L61.17 28.21L61.04 28.08Q62.30 29.61 62.61 32.77L62.68 32.84L62.70 32.87Q62.71 33.45 62.71 34.00L62.72 34.01L62.71 34.00Q62.67 36.75 60.70 37.70L60.78 37.78L60.67 37.67Q59.58 38.22 56.12 38.56ZM58.13 40.67L58.17 40.71L58.25 40.79Q59.35 40.70 61.12 40.77L61.12 40.77L61.05 40.70Q62.56 40.82 63.96 40.17L64.05 40.27L64.03 40.25Q64.98 39.50 64.98 37.90L64.97 37.89L64.86 37.78Q64.91 37.39 64.76 36.51L64.78 36.53L64.90 36.65Q64.66 35.68 64.66 35.27L64.68 35.29L64.65 35.26Q63.90 31.07 62.47 29.37L62.54 29.45L62.41 29.32Q62.46 29.33 62.32 29.12L62.27 29.08L61.88 28.75L61.88 28.78L61.80 28.71Q61.51 28.28 60.97 27.43L60.99 27.45L61.09 27.56Q60.26 26.69 58.49 26.28L58.50 26.29L58.56 26.35Q59.48 24.76 62.13 21.46L62.17 21.50L65.90 16.73L66.04 16.87Q64.62 17.62 62.48 18.30L62.52 18.34L62.53 18.35Q63.24 17.36 64.83 15.59L64.84 15.60L64.90 15.66Q62.64 16.49 59.17 17.00L59.27 17.10L59.32 17.15Q54.25 22.44 51.60 26.86L51.44 26.70L51.52 26.78Q50.23 29.10 49.72 34.68L49.66 34.62L49.59 34.55Q49.62 35.15 49.69 36.00L49.71 36.02L49.53 35.85Q49.74 37.55 50.73 38.37L50.74 38.38L50.69 38.32Q50.93 38.36 50.90 38.40L50.99 38.49L51.00 38.51Q51.26 39.24 51.97 39.61L52.11 39.75L52.07 39.71Q53.33 40.28 55.06 40.45L55.07 40.46L55.12 40.52Q55.14 40.54 58.27 40.81ZM58.05 30.76L57.90 30.61L58.05 30.76Q58.46 30.56 59.31 31.01L59.44 31.14L59.27 30.97Q59.72 31.96 59.72 32.54L59.74 32.56L59.73 32.55Q59.87 34.18 59.02 35.06L58.96 35.01L58.99 35.04Q57.99 35.63 56.12 35.90L56.16 35.95L56.25 36.03Q54.81 35.89 54.33 35.65L54.45 35.76L54.48 35.80Q54.27 35.34 54.27 35.07L54.31 35.12L54.29 35.10Q53.94 32.02 56.55 30.87L56.64 30.96L56.72 31.04Q57.36 30.69 58.04 30.76Z"/><path d="M18 45 C78 23,87 37,147 39" stroke="#73e773" fill="none"/><path fill="#e98767" d="M27.97 28.30L27.98 28.31L27.99 28.32Q25.70 28.28 24.55 29.30L24.55 29.30L24.63 29.38Q23.40 30.53 23.57 32.77L23.56 32.76L23.60 32.80Q23.83 35.41 24.88 36.36L24.89 36.37L24.90 36.38Q26.08 37.39 27.95 37.25L28.01 37.31L27.98 37.28Q29.93 37.32 31.18 36.20L31.16 36.18L31.11 36.13Q32.36 35.17 32.53 32.89L32.50 32.86L32.44 32.81Q32.80 28.44 28.01 28.34ZM27.96 39.61L27.87 39.51L26.52 39.56L26.59 39.63Q23.90 39.49 22.57 38.23L22.71 38.37L22.58 38.24Q21.79 37.41 21.55 35.68L21.64 35.77L21.59 35.72Q21.39 34.66 21.25 32.69L21.17 32.62L21.28 32.72Q21.22 31.85 21.12 29.84L21.03 29.75L21.04 29.76Q21.11 28.24 21.96 27.22L21.91 27.17L21.84 27.10Q23.35 25.72 27.57 25.86L27.64 25.93L27.71 26.00Q32.11 26.15 33.75 27.51L33.60 27.37L33.72 27.49Q35.01 28.54 34.84 31.40L34.77 31.32L34.76 31.31Q34.57 34.49 34.50 34.86L34.63 34.99L34.50 34.86Q34.21 36.88 33.02 37.94L33.03 37.95L33.05 37.97Q31.28 39.53 27.88 39.53ZM32.21 41.82L32.14 41.74L32.06 41.67Q33.44 41.76 35.14 41.62L35.14 41.62L35.19 41.67Q35.50 41.47 35.50 41.34L35.65 41.48L35.56 41.40Q35.58 41.35 35.55 41.21L35.57 41.24L35.59 41.26Q35.48 41.04 35.48 40.94L35.46 40.93L35.43 40.89Q35.55 40.77 35.85 40.50L35.78 40.43L35.84 40.49Q36.61 39.45 36.61 37.75L36.62 37.76L36.59 37.74Q36.58 36.87 36.49 34.71L36.58 34.80L36.42 34.65Q36.43 32.58 36.29 31.59L36.34 31.64L36.36 31.66Q35.89 29.62 35.07 28.60L35.21 28.74L34.86 28.50L34.91 28.54Q34.78 27.97 34.07 27.15L33.93 27.02L33.98 27.07Q31.94 25.53 27.55 25.53L27.62 25.60L25.96 25.51L26.00 25.55Q23.17 25.67 21.64 26.90L21.46 26.72L21.50 26.76Q20.75 27.78 20.79 29.58L20.78 29.57L20.83 29.62Q20.81 29.98 20.93 31.10L21.03 31.20L21.04 31.21Q21.03 32.20 21.00 32.61L21.05 32.67L20.93 32.55Q21.25 35.38 21.32 35.79L21.38 35.84L21.26 35.73Q21.64 37.67 22.45 38.69L22.41 38.65L22.51 38.81L22.52 38.82Q23.22 40.99 26.55 41.36L26.56 41.37L26.67 41.48Q27.50 41.63 32.19 41.80ZM29.77 30.50L29.73 30.46L29.62 30.36Q30.54 30.53 32.03 31.00L31.94 30.91L31.90 30.87Q32.38 31.69 32.34 33.01L32.27 32.94L32.32 32.99Q32.18 36.05 29.60 36.73L29.48 36.60L29.64 36.76Q28.90 36.84 27.98 36.94L27.95 36.92L27.96 36.92Q27.14 37.08 25.61 36.54L25.65 36.58L25.57 36.50Q25.35 35.87 25.38 34.55L25.35 34.52L25.40 34.57Q25.36 32.39 26.58 31.47L26.68 31.56L26.63 31.51Q27.45 30.74 29.73 30.46Z"/><path fill="#ead084" d="M90.01 30.32L89.96 30.27L89.97 30.28Q89.81 29.14 88.07 28.49L88.08 28.50L88.17 28.58Q87.67 28.36 87.20 28.36L87.19 28.35L87.17 28.34Q85.93 28.31 84.98 28.82L85.10 28.95L85.03 28.88Q83.72 29.44 83.82 30.53L83.91 30.61L83.93 30.63Q84.16 33.07 84.02 35.07L84.13 35.18L84.17 35.22Q84.02 37.39 83.38 39.63L83.27 39.53L83.21 39.46Q81.32 39.92 80.27 40.29L80.36 40.38L80.39 40.42Q81.82 37.19 81.82 33.62L81.85 33.65L81.78 33.58Q81.84 28.78 79.53 24.80L79.53 24.80L79.45 24.73Q80.64 25.27 82.78 25.91L82.76 25.89L82.72 25.85Q82.93 26.44 83.27 27.80L83.25 27.78L83.20 27.73Q84.42 25.89 87.89 25.96L87.95 26.02L87.97 26.04Q89.20 25.98 89.92 26.08L90.07 26.24L89.92 26.09Q92.68 26.54 92.75 28.34L92.63 28.22L92.76 28.35Q92.68 29.05 92.51 29.96L92.62 30.08L92.65 30.11Q92.10 32.21 92.27 34.90L92.28 34.90L92.43 35.06Q92.44 37.48 93.32 39.76L93.34 39.77L93.28 39.71Q91.84 39.43 90.31 39.29L90.38 39.36L90.28 39.26Q89.92 37.20 89.85 34.82L89.90 34.87L89.77 34.74Q89.73 32.32 89.94 30.25ZM90.02 39.65L90.03 39.66L90.04 39.67Q90.75 39.67 91.91 39.87L91.80 39.76L92.10 40.67L92.20 40.77Q92.26 41.11 92.47 41.58L92.56 41.68L92.60 41.72Q94.65 42.10 97.06 43.15L97.03 43.12L97.02 43.11Q94.80 40.22 94.19 36.82L94.21 36.83L94.19 36.82Q93.91 34.94 94.01 31.64L93.99 31.62L93.97 31.60Q94.09 31.45 94.12 30.73L94.15 30.75L94.06 30.67Q94.09 30.08 94.02 29.64L94.17 29.79L94.03 29.66Q93.95 28.18 92.97 27.74L92.92 27.70L92.92 27.69Q92.79 26.95 92.11 26.41L92.14 26.44L92.28 26.58Q90.62 25.53 87.91 25.60L87.95 25.65L87.95 25.65Q86.37 25.76 85.62 25.93L85.50 25.81L85.46 25.77Q84.22 26.13 83.37 26.94L83.30 26.88L83.30 26.87Q83.20 26.40 82.86 25.48L82.89 25.51L82.99 25.61Q80.36 24.89 78.73 24.00L78.75 24.03L78.84 24.12Q81.55 28.45 81.55 33.58L81.54 33.58L81.58 33.62Q81.48 37.43 79.78 40.86L79.91 40.99L79.73 40.81Q80.36 40.55 81.51 40.21L81.54 40.24L81.66 40.36Q81.19 41.45 80.71 42.34L80.63 42.25L80.73 42.36Q82.00 41.96 85.16 41.45L85.13 41.42L85.14 41.42Q85.97 36.78 85.86 32.47L85.92 32.53L85.79 32.39Q85.91 31.80 86.97 31.15L86.84 31.02L86.85 31.04Q87.78 30.47 88.76 30.37L88.74 30.34L88.83 30.43Q89.25 30.41 89.62 30.58L89.53 30.49L89.58 30.54Q89.48 32.85 89.51 35.13L89.46 35.07L89.43 35.04Q89.56 37.38 90.00 39.63Z"/><path fill="#8bcde3" d="M117.91 31.32L109.62 22.36L109.72 22.46Q110.45 25.73 110.45 29.07L110.53 29.15L110.48 29.10Q110.41 34.36 108.57 39.32L108.62 39.37L108.57 39.32Q107.76 39.70 105.76 40.38L105.70 40.33L105.76 40.38Q108.22 35.16 108.22 29.18L108.19 29.15L108.28 29.24Q108.11 21.36 104.10 14.73L104.19 14.81L104.23 14.86Q104.59 14.98 105.21 15.36L105.07 15.22L105.10 15.25Q115.99 25.36 122.99 33.62L123.01 33.64L122.94 33.57Q122.60 31.33 122.60 29.15L122.73 29.28L122.62 29.17Q122.76 22.85 125.00 17.31L125.01 17.31L125.01 17.32Q127.04 16.79 128.46 16.18L128.47 16.19L128.36 16.08Q125.52 21.70 125.25 28.09L125.20 28.05L125.31 28.15Q124.90 34.58 127.55 40.08L127.56 40.09L127.53 40.06Q127.12 40.10 126.75 39.93L126.69 39.87L126.76 39.94Q122.70 36.42 118.04 31.45L117.92 31.34ZM129.97 43.01L129.97 43.01L129.97 43.01Q130.31 43.08 130.69 43.25L130.68 43.24L131.54 43.66L131.52 43.64Q126.85 37.38 126.85 29.02L126.94 29.11L126.85 29.01Q126.91 22.62 129.87 17.04L129.80 16.98L129.75 16.93Q129.21 17.16 127.95 17.71L127.91 17.66L128.01 17.77Q128.42 17.09 129.16 15.69L129.18 15.71L129.15 15.67Q126.85 16.37 124.67 16.88L124.65 16.85L124.65 16.85Q122.30 22.63 122.30 29.25L122.30 29.26L122.40 29.36Q122.35 30.97 122.52 32.74L122.45 32.67L122.51 32.73Q118.31 27.61 114.06 23.50L114.13 23.56L105.03 14.81L105.17 14.94Q104.69 14.70 103.60 14.19L103.47 14.06L103.47 14.06Q107.93 21.08 107.93 29.20L107.96 29.22L107.79 29.06Q107.84 35.46 105.08 40.83L105.15 40.90L105.17 40.91Q105.40 40.77 106.86 40.23L106.91 40.28L106.78 40.14Q106.67 41.02 105.92 42.34L105.79 42.22L105.92 42.35Q107.11 41.87 110.20 41.16L110.22 41.17L110.16 41.12Q112.24 35.65 112.24 29.22L112.26 29.24L112.19 29.17Q112.29 27.40 112.08 25.50L112.06 25.47L111.96 25.37Q122.17 36.77 129.85 42.89Z"/></svg>