<svg xmlns="http://www.w3.org/2000/svg" xmlns:xlink="http://www.w3.org/1999/xlink" id="body_4" preserveAspectRatio="xMinYMin meet" viewBox="0 0 793 1121"><defs><clipPath id="1"><path id="" clip-rule="evenodd" transform="matrix(1 0 0 1 0 0)" d="M0 841L0 -0.6799927L0 -0.6799927L595.44 -0.6799927L595.44 -0.6799927L595.44 841L595.44 841L0 841z" /></clipPath></defs><g transform="matrix(1.333333 0 0 1.333333 0 0)"><g clip-path="url(#1)"><path id="408" transform="matrix(1 0 0 -1 0 841)" d="M118.22 376.25L505.77 376.25L505.77 376.25L505.77 389.954L505.77 389.954L118.22 389.954z" stroke="none" fill="#D9D9D9" fill-rule="evenodd" /><path id="445" transform="matrix(1 0 0 -1 0 841)" d="M118.1 362.57L374.35 362.57L374.35 362.57L374.35 376.25L374.35 376.25L118.1 376.25z" stroke="none" fill="#D9D9D9" fill-rule="evenodd" /><path id="594" transform="matrix(1 0 0 -1 0 841)" d="M300.65 294.17L505.78 294.17L505.78 294.17L505.78 307.85L505.78 307.85L300.65 307.85z" stroke="none" fill="#D9D9D9" fill-rule="evenodd" /><path id="631" transform="matrix(1 0 0 -1 0 841)" d="M118.22 280.49L505.77 280.49L505.77 280.49L505.77 294.17L505.77 294.17L118.22 294.17z" stroke="none" fill="#D9D9D9" fill-rule="evenodd" /><path id="668" transform="matrix(1 0 0 -1 0 841)" d="M118.22 266.81L171.5 266.81L171.5 266.81L171.5 280.49L171.5 280.49L118.22 280.49z" stroke="none" fill="#D9D9D9" fill-rule="evenodd" /><path id="674" transform="matrix(1 0 0 -1 0 841)" d="M118.1 239.45L505.77 239.45L505.77 239.45L505.77 253.13L505.77 253.13L118.1 253.13z" stroke="none" fill="#D9D9D9" fill-rule="evenodd" /><path id="711" transform="matrix(1 0 0 -1 0 841)" d="M118.22 225.77L505.77 225.77L505.77 225.77L505.77 239.45L505.77 239.45L118.22 239.45z" stroke="none" fill="#D9D9D9" fill-rule="evenodd" /><path id="748" transform="matrix(1 0 0 -1 0 841)" d="M118.22 212.09L505.77 212.09L505.77 212.09L505.77 225.77L505.77 225.77L118.22 225.77z" stroke="none" fill="#D9D9D9" fill-rule="evenodd" /><path id="785" transform="matrix(1 0 0 -1 0 841)" d="M118.22 198.38L505.77 198.38L505.77 198.38L505.77 212.084L505.77 212.084L118.22 212.084z" stroke="none" fill="#D9D9D9" fill-rule="evenodd" /><path id="822" transform="matrix(1 0 0 -1 0 841)" d="M118.22 184.7L203.684 184.7L203.684 184.7L203.684 198.38L203.684 198.38L118.22 198.38z" stroke="none" fill="#D9D9D9" fill-rule="evenodd" /><path id="831" transform="matrix(1 0 0 -1 0 841)" d="M118.22 157.34L505.77 157.34L505.77 157.34L505.77 171.02L505.77 171.02L118.22 171.02z" stroke="none" fill="#D9D9D9" fill-rule="evenodd" /><path id="868" transform="matrix(1 0 0 -1 0 841)" d="M118.22 143.66L505.77 143.66L505.77 143.66L505.77 157.34L505.77 157.34L118.22 157.34z" stroke="none" fill="#D9D9D9" fill-rule="evenodd" /><path id="905" transform="matrix(1 0 0 -1 0 841)" d="M118.22 129.98L505.77 129.98L505.77 129.98L505.77 143.66L505.77 143.66L118.22 143.66z" stroke="none" fill="#D9D9D9" fill-rule="evenodd" /><path id="942" transform="matrix(1 0 0 -1 0 841)" d="M118.22 116.3L505.77 116.3L505.77 116.3L505.77 129.98L505.77 129.98L118.22 129.98z" stroke="none" fill="#D9D9D9" fill-rule="evenodd" /><path id="979" transform="matrix(1 0 0 -1 0 841)" d="M118.22 102.62L505.77 102.62L505.77 102.62L505.77 116.3L505.77 116.3L118.22 116.3z" stroke="none" fill="#D9D9D9" fill-rule="evenodd" /><path id="1016" transform="matrix(1 0 0 -1 0 841)" d="M118.22 88.944L203.684 88.944L203.684 88.944L203.684 102.624L203.684 102.624L118.22 102.624z" stroke="none" fill="#D9D9D9" fill-rule="evenodd" /></g></g></svg>