<svg xmlns="http://www.w3.org/2000/svg" xmlns:xlink="http://www.w3.org/1999/xlink" id="body_7" preserveAspectRatio="xMinYMin meet" viewBox="0 0 793 1121"><defs><clipPath id="1"><path id="" clip-rule="evenodd" transform="matrix(1 0 0 1 0 0)" d="M0 841L0 -0.6799927L0 -0.6799927L595.44 -0.6799927L595.44 -0.6799927L595.44 841L595.44 841L0 841z" /></clipPath><clipPath id="2"><path id="" clip-rule="evenodd" transform="matrix(1 0 0 1 0 0)" d="M109.23 263.23L355.64 263.23L355.64 263.23L355.64 245.23L355.64 245.23L109.23 245.23z" /></clipPath><clipPath id="3"><path id="" clip-rule="evenodd" transform="matrix(1 0 0 1 0 0)" d="M109.22 263.22L355.63 263.22L355.63 263.22L355.63 245.22L355.63 245.22L109.22 245.22z" /></clipPath><clipPath id="4"><path id="" clip-rule="evenodd" transform="matrix(1 0 0 1 0 0)" d="M109.22 263.22L355.63 263.22L355.63 263.22L355.63 245.22L355.63 245.22L109.22 245.22z" /></clipPath><clipPath id="5"><path id="" clip-rule="evenodd" transform="matrix(1 0 0 1 0 0)" d="M356.48 263.23L512.86 263.23L512.86 263.23L512.86 245.23L512.86 245.23L356.48 245.23z" /></clipPath><clipPath id="6"><path id="" clip-rule="evenodd" transform="matrix(1 0 0 1 0 0)" d="M356.47 263.22L512.85 263.22L512.85 263.22L512.85 245.22L512.85 245.22L356.47 245.22z" /></clipPath><clipPath id="7"><path id="" clip-rule="evenodd" transform="matrix(1 0 0 1 0 0)" d="M356.47 263.22L512.85 263.22L512.85 263.22L512.85 245.22L512.85 245.22L356.47 245.22z" /></clipPath><clipPath id="8"><path id="" clip-rule="evenodd" transform="matrix(1 0 0 1 0 0)" d="M109.23 279.69L355.64 279.69L355.64 279.69L355.64 263.955L355.64 263.955L109.23 263.955z" /></clipPath><clipPath id="9"><path id="" clip-rule="evenodd" transform="matrix(1 0 0 1 0 0)" d="M109.22 279.69L355.63 279.69L355.63 279.69L355.63 263.946L355.63 263.946L109.22 263.946z" /></clipPath><clipPath id="10"><path id="" clip-rule="evenodd" transform="matrix(1 0 0 1 0 0)" d="M109.22 279.69L355.63 279.69L355.63 279.69L355.63 263.946L355.63 263.946L109.22 263.946z" /></clipPath><clipPath id="11"><path id="" clip-rule="evenodd" transform="matrix(1 0 0 1 0 0)" d="M109.22 279.69L355.63 279.69L355.63 279.69L355.63 263.946L355.63 263.946L109.22 263.946z" /></clipPath><clipPath id="12"><path id="" clip-rule="evenodd" transform="matrix(1 0 0 1 0 0)" d="M109.22 279.69L355.63 279.69L355.63 279.69L355.63 263.946L355.63 263.946L109.22 263.946z" /></clipPath><clipPath id="13"><path id="" clip-rule="evenodd" transform="matrix(1 0 0 1 0 0)" d="M356.48 279.69L512.86 279.69L512.86 279.69L512.86 263.955L512.86 263.955L356.48 263.955z" /></clipPath><clipPath id="14"><path id="" clip-rule="evenodd" transform="matrix(1 0 0 1 0 0)" d="M356.47 279.69L512.85 279.69L512.85 279.69L512.85 263.946L512.85 263.946L356.47 263.946z" /></clipPath><clipPath id="15"><path id="" clip-rule="evenodd" transform="matrix(1 0 0 1 0 0)" d="M356.47 279.69L512.85 279.69L512.85 279.69L512.85 263.946L512.85 263.946L356.47 263.946z" /></clipPath><clipPath id="16"><path id="" clip-rule="evenodd" transform="matrix(1 0 0 1 0 0)" d="M109.23 296.13L355.64 296.13L355.64 296.13L355.64 280.41L355.64 280.41L109.23 280.41z" /></clipPath><clipPath id="17"><path id="" clip-rule="evenodd" transform="matrix(1 0 0 1 0 0)" d="M109.22 296.13L355.63 296.13L355.63 296.13L355.63 280.41L355.63 280.41L109.22 280.41z" /></clipPath><clipPath id="18"><path id="" clip-rule="evenodd" transform="matrix(1 0 0 1 0 0)" d="M109.22 296.13L355.63 296.13L355.63 296.13L355.63 280.41L355.63 280.41L109.22 280.41z" /></clipPath><clipPath id="19"><path id="" clip-rule="evenodd" transform="matrix(1 0 0 1 0 0)" d="M109.22 296.13L355.63 296.13L355.63 296.13L355.63 280.41L355.63 280.41L109.22 280.41z" /></clipPath><clipPath id="20"><path id="" clip-rule="evenodd" transform="matrix(1 0 0 1 0 0)" d="M109.22 296.13L355.63 296.13L355.63 296.13L355.63 280.41L355.63 280.41L109.22 280.41z" /></clipPath><clipPath id="21"><path id="" clip-rule="evenodd" transform="matrix(1 0 0 1 0 0)" d="M109.22 296.13L355.63 296.13L355.63 296.13L355.63 280.41L355.63 280.41L109.22 280.41z" /></clipPath><clipPath id="22"><path id="" clip-rule="evenodd" transform="matrix(1 0 0 1 0 0)" d="M109.22 296.13L355.63 296.13L355.63 296.13L355.63 280.41L355.63 280.41L109.22 280.41z" /></clipPath><clipPath id="23"><path id="" clip-rule="evenodd" transform="matrix(1 0 0 1 0 0)" d="M356.48 296.13L512.86 296.13L512.86 296.13L512.86 280.41L512.86 280.41L356.48 280.41z" /></clipPath><clipPath id="24"><path id="" clip-rule="evenodd" transform="matrix(1 0 0 1 0 0)" d="M356.47 296.13L512.85 296.13L512.85 296.13L512.85 280.41L512.85 280.41L356.47 280.41z" /></clipPath><clipPath id="25"><path id="" clip-rule="evenodd" transform="matrix(1 0 0 1 0 0)" d="M356.47 296.13L512.85 296.13L512.85 296.13L512.85 280.41L512.85 280.41L356.47 280.41z" /></clipPath><clipPath id="26"><path id="" clip-rule="evenodd" transform="matrix(1 0 0 1 0 0)" d="M109.23 312.57L355.64 312.57L355.64 312.57L355.64 296.85L355.64 296.85L109.23 296.85z" /></clipPath><clipPath id="27"><path id="" clip-rule="evenodd" transform="matrix(1 0 0 1 0 0)" d="M109.22 312.57L355.63 312.57L355.63 312.57L355.63 296.85L355.63 296.85L109.22 296.85z" /></clipPath><clipPath id="28"><path id="" clip-rule="evenodd" transform="matrix(1 0 0 1 0 0)" d="M109.22 312.57L355.63 312.57L355.63 312.57L355.63 296.85L355.63 296.85L109.22 296.85z" /></clipPath><clipPath id="29"><path id="" clip-rule="evenodd" transform="matrix(1 0 0 1 0 0)" d="M109.22 312.57L355.63 312.57L355.63 312.57L355.63 296.85L355.63 296.85L109.22 296.85z" /></clipPath><clipPath id="30"><path id="" clip-rule="evenodd" transform="matrix(1 0 0 1 0 0)" d="M109.22 312.57L355.63 312.57L355.63 312.57L355.63 296.85L355.63 296.85L109.22 296.85z" /></clipPath><clipPath id="31"><path id="" clip-rule="evenodd" transform="matrix(1 0 0 1 0 0)" d="M109.22 312.57L355.63 312.57L355.63 312.57L355.63 296.85L355.63 296.85L109.22 296.85z" /></clipPath><clipPath id="32"><path id="" clip-rule="evenodd" transform="matrix(1 0 0 1 0 0)" d="M109.22 312.57L355.63 312.57L355.63 312.57L355.63 296.85L355.63 296.85L109.22 296.85z" /></clipPath><clipPath id="33"><path id="" clip-rule="evenodd" transform="matrix(1 0 0 1 0 0)" d="M356.48 312.57L512.86 312.57L512.86 312.57L512.86 296.85L512.86 296.85L356.48 296.85z" /></clipPath><clipPath id="34"><path id="" clip-rule="evenodd" transform="matrix(1 0 0 1 0 0)" d="M356.47 312.57L512.85 312.57L512.85 312.57L512.85 296.85L512.85 296.85L356.47 296.85z" /></clipPath><clipPath id="35"><path id="" clip-rule="evenodd" transform="matrix(1 0 0 1 0 0)" d="M356.47 312.57L512.85 312.57L512.85 312.57L512.85 296.85L512.85 296.85L356.47 296.85z" /></clipPath><clipPath id="36"><path id="" clip-rule="evenodd" transform="matrix(1 0 0 1 0 0)" d="M109.23 329.01L355.64 329.01L355.64 329.01L355.64 313.29L355.64 313.29L109.23 313.29z" /></clipPath><clipPath id="37"><path id="" clip-rule="evenodd" transform="matrix(1 0 0 1 0 0)" d="M109.22 329.01L355.63 329.01L355.63 329.01L355.63 313.29L355.63 313.29L109.22 313.29z" /></clipPath><clipPath id="38"><path id="" clip-rule="evenodd" transform="matrix(1 0 0 1 0 0)" d="M109.22 329.01L355.63 329.01L355.63 329.01L355.63 313.29L355.63 313.29L109.22 313.29z" /></clipPath><clipPath id="39"><path id="" clip-rule="evenodd" transform="matrix(1 0 0 1 0 0)" d="M109.22 329.01L355.63 329.01L355.63 329.01L355.63 313.29L355.63 313.29L109.22 313.29z" /></clipPath><clipPath id="40"><path id="" clip-rule="evenodd" transform="matrix(1 0 0 1 0 0)" d="M109.22 329.01L355.63 329.01L355.63 329.01L355.63 313.29L355.63 313.29L109.22 313.29z" /></clipPath><clipPath id="41"><path id="" clip-rule="evenodd" transform="matrix(1 0 0 1 0 0)" d="M109.22 329.01L355.63 329.01L355.63 329.01L355.63 313.29L355.63 313.29L109.22 313.29z" /></clipPath><clipPath id="42"><path id="" clip-rule="evenodd" transform="matrix(1 0 0 1 0 0)" d="M109.22 329.01L355.63 329.01L355.63 329.01L355.63 313.29L355.63 313.29L109.22 313.29z" /></clipPath><clipPath id="43"><path id="" clip-rule="evenodd" transform="matrix(1 0 0 1 0 0)" d="M356.48 329.01L512.86 329.01L512.86 329.01L512.86 313.29L512.86 313.29L356.48 313.29z" /></clipPath><clipPath id="44"><path id="" clip-rule="evenodd" transform="matrix(1 0 0 1 0 0)" d="M356.47 329.01L512.85 329.01L512.85 329.01L512.85 313.29L512.85 313.29L356.47 313.29z" /></clipPath><clipPath id="45"><path id="" clip-rule="evenodd" transform="matrix(1 0 0 1 0 0)" d="M356.47 329.01L512.85 329.01L512.85 329.01L512.85 313.29L512.85 313.29L356.47 313.29z" /></clipPath><clipPath id="46"><path id="" clip-rule="evenodd" transform="matrix(1 0 0 1 0 0)" d="M109.23 345.45L355.64 345.45L355.64 345.45L355.64 329.73L355.64 329.73L109.23 329.73z" /></clipPath><clipPath id="47"><path id="" clip-rule="evenodd" transform="matrix(1 0 0 1 0 0)" d="M109.22 345.45L355.63 345.45L355.63 345.45L355.63 329.73L355.63 329.73L109.22 329.73z" /></clipPath><clipPath id="48"><path id="" clip-rule="evenodd" transform="matrix(1 0 0 1 0 0)" d="M109.22 345.45L355.63 345.45L355.63 345.45L355.63 329.73L355.63 329.73L109.22 329.73z" /></clipPath><clipPath id="49"><path id="" clip-rule="evenodd" transform="matrix(1 0 0 1 0 0)" d="M109.22 345.45L355.63 345.45L355.63 345.45L355.63 329.73L355.63 329.73L109.22 329.73z" /></clipPath><clipPath id="50"><path id="" clip-rule="evenodd" transform="matrix(1 0 0 1 0 0)" d="M109.22 345.45L355.63 345.45L355.63 345.45L355.63 329.73L355.63 329.73L109.22 329.73z" /></clipPath><clipPath id="51"><path id="" clip-rule="evenodd" transform="matrix(1 0 0 1 0 0)" d="M109.22 345.45L355.63 345.45L355.63 345.45L355.63 329.73L355.63 329.73L109.22 329.73z" /></clipPath><clipPath id="52"><path id="" clip-rule="evenodd" transform="matrix(1 0 0 1 0 0)" d="M109.22 345.45L355.63 345.45L355.63 345.45L355.63 329.73L355.63 329.73L109.22 329.73z" /></clipPath><clipPath id="53"><path id="" clip-rule="evenodd" transform="matrix(1 0 0 1 0 0)" d="M356.48 345.45L512.86 345.45L512.86 345.45L512.86 329.73L512.86 329.73L356.48 329.73z" /></clipPath><clipPath id="54"><path id="" clip-rule="evenodd" transform="matrix(1 0 0 1 0 0)" d="M356.47 345.45L512.85 345.45L512.85 345.45L512.85 329.73L512.85 329.73L356.47 329.73z" /></clipPath><clipPath id="55"><path id="" clip-rule="evenodd" transform="matrix(1 0 0 1 0 0)" d="M356.47 345.45L512.85 345.45L512.85 345.45L512.85 329.73L512.85 329.73L356.47 329.73z" /></clipPath><clipPath id="56"><path id="" clip-rule="evenodd" transform="matrix(1 0 0 1 0 0)" d="M109.23 361.89L355.64 361.89L355.64 361.89L355.64 346.17L355.64 346.17L109.23 346.17z" /></clipPath><clipPath id="57"><path id="" clip-rule="evenodd" transform="matrix(1 0 0 1 0 0)" d="M109.22 361.89L355.63 361.89L355.63 361.89L355.63 346.17L355.63 346.17L109.22 346.17z" /></clipPath><clipPath id="58"><path id="" clip-rule="evenodd" transform="matrix(1 0 0 1 0 0)" d="M109.22 361.89L355.63 361.89L355.63 361.89L355.63 346.17L355.63 346.17L109.22 346.17z" /></clipPath><clipPath id="59"><path id="" clip-rule="evenodd" transform="matrix(1 0 0 1 0 0)" d="M109.22 361.89L355.63 361.89L355.63 361.89L355.63 346.17L355.63 346.17L109.22 346.17z" /></clipPath><clipPath id="60"><path id="" clip-rule="evenodd" transform="matrix(1 0 0 1 0 0)" d="M109.22 361.89L355.63 361.89L355.63 361.89L355.63 346.17L355.63 346.17L109.22 346.17z" /></clipPath><clipPath id="61"><path id="" clip-rule="evenodd" transform="matrix(1 0 0 1 0 0)" d="M109.22 361.89L355.63 361.89L355.63 361.89L355.63 346.17L355.63 346.17L109.22 346.17z" /></clipPath><clipPath id="62"><path id="" clip-rule="evenodd" transform="matrix(1 0 0 1 0 0)" d="M109.22 361.89L355.63 361.89L355.63 361.89L355.63 346.17L355.63 346.17L109.22 346.17z" /></clipPath><clipPath id="63"><path id="" clip-rule="evenodd" transform="matrix(1 0 0 1 0 0)" d="M356.48 361.89L512.86 361.89L512.86 361.89L512.86 346.17L512.86 346.17L356.48 346.17z" /></clipPath><clipPath id="64"><path id="" clip-rule="evenodd" transform="matrix(1 0 0 1 0 0)" d="M356.47 361.89L512.85 361.89L512.85 361.89L512.85 346.17L512.85 346.17L356.47 346.17z" /></clipPath><clipPath id="65"><path id="" clip-rule="evenodd" transform="matrix(1 0 0 1 0 0)" d="M356.47 361.89L512.85 361.89L512.85 361.89L512.85 346.17L512.85 346.17L356.47 346.17z" /></clipPath></defs><g transform="matrix(1.333333 0 0 1.333333 0 0)"><g clip-path="url(#1)"><path id="2" transform="matrix(1 0 0 -1 0 841)" d="M118.22 756L505.77 756L505.77 756L505.77 769.68L505.77 769.68L118.22 769.68z" stroke="none" fill="#D9D9D9" fill-rule="evenodd" /><path id="39" transform="matrix(1 0 0 -1 0 841)" d="M118.22 742.3L171.62 742.3L171.62 742.3L171.62 756.004L171.62 756.004L118.22 756.004z" stroke="none" fill="#D9D9D9" fill-rule="evenodd" /><g clip-path="url(#2)"><g clip-path="url(#3)"></g><g clip-path="url(#4)"></g></g><g clip-path="url(#5)"><g clip-path="url(#6)"></g><g clip-path="url(#7)"></g></g><path id="263" transform="matrix(1 0 0 -1 0 841)" d="M107.78 595.78L109.22 595.78L109.22 595.78L109.22 597.34L109.22 597.34L107.78 597.34z" stroke="none" fill="#000000" fill-rule="evenodd" /><path id="264" transform="matrix(1 0 0 -1 0 841)" d="M107.78 595.9L109.22 595.9L109.22 595.9L109.22 597.34L109.22 597.34L107.78 597.34z" stroke="none" fill="#000000" fill-rule="evenodd" /><path id="265" transform="matrix(1 0 0 -1 0 841)" d="M109.22 595.9L355.75 595.9L355.75 595.9L355.75 597.34L355.75 597.34L109.22 597.34z" stroke="none" fill="#000000" fill-rule="evenodd" /><path id="266" transform="matrix(1 0 0 -1 0 841)" d="M355.75 595.78L356.47 595.78L356.47 595.78L356.47 595.9L356.47 595.9L355.75 595.9z" stroke="none" fill="#000000" fill-rule="evenodd" /><path id="267" transform="matrix(1 0 0 -1 0 841)" d="M355.75 595.9L357.19 595.9L357.19 595.9L357.19 597.34L357.19 597.34L355.75 597.34z" stroke="none" fill="#000000" fill-rule="evenodd" /><path id="268" transform="matrix(1 0 0 -1 0 841)" d="M357.19 595.9L512.85 595.9L512.85 595.9L512.85 597.34L512.85 597.34L357.19 597.34z" stroke="none" fill="#000000" fill-rule="evenodd" /><path id="269" transform="matrix(1 0 0 -1 0 841)" d="M512.86 595.78L514.3 595.78L514.3 595.78L514.3 597.34L514.3 597.34L512.86 597.34z" stroke="none" fill="#000000" fill-rule="evenodd" /><path id="270" transform="matrix(1 0 0 -1 0 841)" d="M512.86 595.9L514.3 595.9L514.3 595.9L514.3 597.34L514.3 597.34L512.86 597.34z" stroke="none" fill="#000000" fill-rule="evenodd" /><path id="271" transform="matrix(1 0 0 -1 0 841)" d="M107.78 577.78L109.22 577.78L109.22 577.78L109.22 595.78L109.22 595.78L107.78 595.78z" stroke="none" fill="#000000" fill-rule="evenodd" /><path id="272" transform="matrix(1 0 0 -1 0 841)" d="M355.75 577.78L356.47 577.78L356.47 577.78L356.47 595.78L356.47 595.78L355.75 595.78z" stroke="none" fill="#000000" fill-rule="evenodd" /><path id="273" transform="matrix(1 0 0 -1 0 841)" d="M512.86 577.78L514.3 577.78L514.3 577.78L514.3 595.78L514.3 595.78L512.86 595.78z" stroke="none" fill="#000000" fill-rule="evenodd" /><g clip-path="url(#8)"><g clip-path="url(#9)"></g><g clip-path="url(#10)"></g><g clip-path="url(#11)"></g><g clip-path="url(#12)"></g></g><g clip-path="url(#13)"><g clip-path="url(#14)"></g><g clip-path="url(#15)"></g></g><path id="285" transform="matrix(1 0 0 -1 0 841)" d="M107.78 577.06L109.22 577.06L109.22 577.06L109.22 577.78L109.22 577.78L107.78 577.78z" stroke="none" fill="#000000" fill-rule="evenodd" /><path id="286" transform="matrix(1 0 0 -1 0 841)" d="M109.22 577.06L355.75 577.06L355.75 577.06L355.75 577.78L355.75 577.78L109.22 577.78z" stroke="none" fill="#000000" fill-rule="evenodd" /><path id="287" transform="matrix(1 0 0 -1 0 841)" d="M355.75 577.06L356.47 577.06L356.47 577.06L356.47 577.78L356.47 577.78L355.75 577.78z" stroke="none" fill="#000000" fill-rule="evenodd" /><path id="288" transform="matrix(1 0 0 -1 0 841)" d="M356.47 577.06L512.85 577.06L512.85 577.06L512.85 577.78L512.85 577.78L356.47 577.78z" stroke="none" fill="#000000" fill-rule="evenodd" /><path id="289" transform="matrix(1 0 0 -1 0 841)" d="M512.86 577.06L514.3 577.06L514.3 577.06L514.3 577.78L514.3 577.78L512.86 577.78z" stroke="none" fill="#000000" fill-rule="evenodd" /><path id="290" transform="matrix(1 0 0 -1 0 841)" d="M107.78 561.31L109.22 561.31L109.22 561.31L109.22 577.054L109.22 577.054L107.78 577.054z" stroke="none" fill="#000000" fill-rule="evenodd" /><path id="291" transform="matrix(1 0 0 -1 0 841)" d="M355.75 561.31L356.47 561.31L356.47 561.31L356.47 577.054L356.47 577.054L355.75 577.054z" stroke="none" fill="#000000" fill-rule="evenodd" /><path id="292" transform="matrix(1 0 0 -1 0 841)" d="M512.86 561.31L514.3 561.31L514.3 561.31L514.3 577.054L514.3 577.054L512.86 577.054z" stroke="none" fill="#000000" fill-rule="evenodd" /><g clip-path="url(#16)"><g clip-path="url(#17)"></g><g clip-path="url(#18)"></g><g clip-path="url(#19)"></g><g clip-path="url(#20)"></g><g clip-path="url(#21)"></g><g clip-path="url(#22)"></g></g><g clip-path="url(#23)"><g clip-path="url(#24)"></g><g clip-path="url(#25)"></g></g><path id="307" transform="matrix(1 0 0 -1 0 841)" d="M107.78 560.59L109.22 560.59L109.22 560.59L109.22 561.31L109.22 561.31L107.78 561.31z" stroke="none" fill="#000000" fill-rule="evenodd" /><path id="308" transform="matrix(1 0 0 -1 0 841)" d="M109.22 560.59L355.75 560.59L355.75 560.59L355.75 561.31L355.75 561.31L109.22 561.31z" stroke="none" fill="#000000" fill-rule="evenodd" /><path id="309" transform="matrix(1 0 0 -1 0 841)" d="M355.75 560.59L356.47 560.59L356.47 560.59L356.47 561.31L356.47 561.31L355.75 561.31z" stroke="none" fill="#000000" fill-rule="evenodd" /><path id="310" transform="matrix(1 0 0 -1 0 841)" d="M356.47 560.59L512.85 560.59L512.85 560.59L512.85 561.31L512.85 561.31L356.47 561.31z" stroke="none" fill="#000000" fill-rule="evenodd" /><path id="311" transform="matrix(1 0 0 -1 0 841)" d="M512.86 560.59L514.3 560.59L514.3 560.59L514.3 561.31L514.3 561.31L512.86 561.31z" stroke="none" fill="#000000" fill-rule="evenodd" /><path id="312" transform="matrix(1 0 0 -1 0 841)" d="M107.78 544.87L109.22 544.87L109.22 544.87L109.22 560.59L109.22 560.59L107.78 560.59z" stroke="none" fill="#000000" fill-rule="evenodd" /><path id="313" transform="matrix(1 0 0 -1 0 841)" d="M355.75 544.87L356.47 544.87L356.47 544.87L356.47 560.59L356.47 560.59L355.75 560.59z" stroke="none" fill="#000000" fill-rule="evenodd" /><path id="314" transform="matrix(1 0 0 -1 0 841)" d="M512.86 544.87L514.3 544.87L514.3 544.87L514.3 560.59L514.3 560.59L512.86 560.59z" stroke="none" fill="#000000" fill-rule="evenodd" /><g clip-path="url(#26)"><g clip-path="url(#27)"></g><g clip-path="url(#28)"></g><g clip-path="url(#29)"></g><g clip-path="url(#30)"></g><g clip-path="url(#31)"></g><g clip-path="url(#32)"></g></g><g clip-path="url(#33)"><g clip-path="url(#34)"></g><g clip-path="url(#35)"></g></g><path id="329" transform="matrix(1 0 0 -1 0 841)" d="M107.78 544.15L109.22 544.15L109.22 544.15L109.22 544.87L109.22 544.87L107.78 544.87z" stroke="none" fill="#000000" fill-rule="evenodd" /><path id="330" transform="matrix(1 0 0 -1 0 841)" d="M109.22 544.15L355.75 544.15L355.75 544.15L355.75 544.87L355.75 544.87L109.22 544.87z" stroke="none" fill="#000000" fill-rule="evenodd" /><path id="331" transform="matrix(1 0 0 -1 0 841)" d="M355.75 544.15L356.47 544.15L356.47 544.15L356.47 544.87L356.47 544.87L355.75 544.87z" stroke="none" fill="#000000" fill-rule="evenodd" /><path id="332" transform="matrix(1 0 0 -1 0 841)" d="M356.47 544.15L512.85 544.15L512.85 544.15L512.85 544.87L512.85 544.87L356.47 544.87z" stroke="none" fill="#000000" fill-rule="evenodd" /><path id="333" transform="matrix(1 0 0 -1 0 841)" d="M512.86 544.15L514.3 544.15L514.3 544.15L514.3 544.87L514.3 544.87L512.86 544.87z" stroke="none" fill="#000000" fill-rule="evenodd" /><path id="334" transform="matrix(1 0 0 -1 0 841)" d="M107.78 528.43L109.22 528.43L109.22 528.43L109.22 544.15L109.22 544.15L107.78 544.15z" stroke="none" fill="#000000" fill-rule="evenodd" /><path id="335" transform="matrix(1 0 0 -1 0 841)" d="M355.75 528.43L356.47 528.43L356.47 528.43L356.47 544.15L356.47 544.15L355.75 544.15z" stroke="none" fill="#000000" fill-rule="evenodd" /><path id="336" transform="matrix(1 0 0 -1 0 841)" d="M512.86 528.43L514.3 528.43L514.3 528.43L514.3 544.15L514.3 544.15L512.86 544.15z" stroke="none" fill="#000000" fill-rule="evenodd" /><g clip-path="url(#36)"><g clip-path="url(#37)"></g><g clip-path="url(#38)"></g><g clip-path="url(#39)"></g><g clip-path="url(#40)"></g><g clip-path="url(#41)"></g><g clip-path="url(#42)"></g></g><g clip-path="url(#43)"><g clip-path="url(#44)"></g><g clip-path="url(#45)"></g></g><path id="351" transform="matrix(1 0 0 -1 0 841)" d="M107.78 527.71L109.22 527.71L109.22 527.71L109.22 528.43L109.22 528.43L107.78 528.43z" stroke="none" fill="#000000" fill-rule="evenodd" /><path id="352" transform="matrix(1 0 0 -1 0 841)" d="M109.22 527.71L355.75 527.71L355.75 527.71L355.75 528.43L355.75 528.43L109.22 528.43z" stroke="none" fill="#000000" fill-rule="evenodd" /><path id="353" transform="matrix(1 0 0 -1 0 841)" d="M355.75 527.71L356.47 527.71L356.47 527.71L356.47 528.43L356.47 528.43L355.75 528.43z" stroke="none" fill="#000000" fill-rule="evenodd" /><path id="354" transform="matrix(1 0 0 -1 0 841)" d="M356.47 527.71L512.85 527.71L512.85 527.71L512.85 528.43L512.85 528.43L356.47 528.43z" stroke="none" fill="#000000" fill-rule="evenodd" /><path id="355" transform="matrix(1 0 0 -1 0 841)" d="M512.86 527.71L514.3 527.71L514.3 527.71L514.3 528.43L514.3 528.43L512.86 528.43z" stroke="none" fill="#000000" fill-rule="evenodd" /><path id="356" transform="matrix(1 0 0 -1 0 841)" d="M107.78 511.99L109.22 511.99L109.22 511.99L109.22 527.71L109.22 527.71L107.78 527.71z" stroke="none" fill="#000000" fill-rule="evenodd" /><path id="357" transform="matrix(1 0 0 -1 0 841)" d="M355.75 511.99L356.47 511.99L356.47 511.99L356.47 527.71L356.47 527.71L355.75 527.71z" stroke="none" fill="#000000" fill-rule="evenodd" /><path id="358" transform="matrix(1 0 0 -1 0 841)" d="M512.86 511.99L514.3 511.99L514.3 511.99L514.3 527.71L514.3 527.71L512.86 527.71z" stroke="none" fill="#000000" fill-rule="evenodd" /><g clip-path="url(#46)"><g clip-path="url(#47)"></g><g clip-path="url(#48)"></g><g clip-path="url(#49)"></g><g clip-path="url(#50)"></g><g clip-path="url(#51)"></g><g clip-path="url(#52)"></g></g><g clip-path="url(#53)"><g clip-path="url(#54)"></g><g clip-path="url(#55)"></g></g><path id="373" transform="matrix(1 0 0 -1 0 841)" d="M107.78 511.27L109.22 511.27L109.22 511.27L109.22 511.99L109.22 511.99L107.78 511.99z" stroke="none" fill="#000000" fill-rule="evenodd" /><path id="374" transform="matrix(1 0 0 -1 0 841)" d="M109.22 511.27L355.75 511.27L355.75 511.27L355.75 511.99L355.75 511.99L109.22 511.99z" stroke="none" fill="#000000" fill-rule="evenodd" /><path id="375" transform="matrix(1 0 0 -1 0 841)" d="M355.75 511.27L356.47 511.27L356.47 511.27L356.47 511.99L356.47 511.99L355.75 511.99z" stroke="none" fill="#000000" fill-rule="evenodd" /><path id="376" transform="matrix(1 0 0 -1 0 841)" d="M356.47 511.27L512.85 511.27L512.85 511.27L512.85 511.99L512.85 511.99L356.47 511.99z" stroke="none" fill="#000000" fill-rule="evenodd" /><path id="377" transform="matrix(1 0 0 -1 0 841)" d="M512.86 511.27L514.3 511.27L514.3 511.27L514.3 511.99L514.3 511.99L512.86 511.99z" stroke="none" fill="#000000" fill-rule="evenodd" /><path id="378" transform="matrix(1 0 0 -1 0 841)" d="M107.78 495.55L109.22 495.55L109.22 495.55L109.22 511.27L109.22 511.27L107.78 511.27z" stroke="none" fill="#000000" fill-rule="evenodd" /><path id="379" transform="matrix(1 0 0 -1 0 841)" d="M355.75 495.55L356.47 495.55L356.47 495.55L356.47 511.27L356.47 511.27L355.75 511.27z" stroke="none" fill="#000000" fill-rule="evenodd" /><path id="380" transform="matrix(1 0 0 -1 0 841)" d="M512.86 495.55L514.3 495.55L514.3 495.55L514.3 511.27L514.3 511.27L512.86 511.27z" stroke="none" fill="#000000" fill-rule="evenodd" /><g clip-path="url(#56)"><g clip-path="url(#57)"></g><g clip-path="url(#58)"></g><g clip-path="url(#59)"></g><g clip-path="url(#60)"></g><g clip-path="url(#61)"></g><g clip-path="url(#62)"></g></g><g clip-path="url(#63)"><g clip-path="url(#64)"></g><g clip-path="url(#65)"></g></g><path id="389" transform="matrix(1 0 0 -1 0 841)" d="M107.78 494.83L109.22 494.83L109.22 494.83L109.22 495.55L109.22 495.55L107.78 495.55z" stroke="none" fill="#000000" fill-rule="evenodd" /><path id="390" transform="matrix(1 0 0 -1 0 841)" d="M109.22 494.83L355.75 494.83L355.75 494.83L355.75 495.55L355.75 495.55L109.22 495.55z" stroke="none" fill="#000000" fill-rule="evenodd" /><path id="391" transform="matrix(1 0 0 -1 0 841)" d="M355.75 494.83L356.47 494.83L356.47 494.83L356.47 495.55L356.47 495.55L355.75 495.55z" stroke="none" fill="#000000" fill-rule="evenodd" /><path id="392" transform="matrix(1 0 0 -1 0 841)" d="M356.47 494.83L512.85 494.83L512.85 494.83L512.85 495.55L512.85 495.55L356.47 495.55z" stroke="none" fill="#000000" fill-rule="evenodd" /><path id="393" transform="matrix(1 0 0 -1 0 841)" d="M512.86 494.83L514.3 494.83L514.3 494.83L514.3 495.55L514.3 495.55L512.86 495.55z" stroke="none" fill="#000000" fill-rule="evenodd" /><path id="394" transform="matrix(1 0 0 -1 0 841)" d="M107.78 478.99L109.22 478.99L109.22 478.99L109.22 494.83L109.22 494.83L107.78 494.83z" stroke="none" fill="#000000" fill-rule="evenodd" /><path id="395" transform="matrix(1 0 0 -1 0 841)" d="M107.78 477.55L109.22 477.55L109.22 477.55L109.22 478.99L109.22 478.99L107.78 478.99z" stroke="none" fill="#000000" fill-rule="evenodd" /><path id="396" transform="matrix(1 0 0 -1 0 841)" d="M107.78 477.55L109.22 477.55L109.22 477.55L109.22 478.99L109.22 478.99L107.78 478.99z" stroke="none" fill="#000000" fill-rule="evenodd" /><path id="397" transform="matrix(1 0 0 -1 0 841)" d="M109.22 477.55L355.75 477.55L355.75 477.55L355.75 478.99L355.75 478.99L109.22 478.99z" stroke="none" fill="#000000" fill-rule="evenodd" /><path id="398" transform="matrix(1 0 0 -1 0 841)" d="M355.75 478.99L356.47 478.99L356.47 478.99L356.47 494.83L356.47 494.83L355.75 494.83z" stroke="none" fill="#000000" fill-rule="evenodd" /><path id="399" transform="matrix(1 0 0 -1 0 841)" d="M355.75 477.55L357.19 477.55L357.19 477.55L357.19 478.99L357.19 478.99L355.75 478.99z" stroke="none" fill="#000000" fill-rule="evenodd" /><path id="400" transform="matrix(1 0 0 -1 0 841)" d="M357.19 477.55L512.85 477.55L512.85 477.55L512.85 478.99L512.85 478.99L357.19 478.99z" stroke="none" fill="#000000" fill-rule="evenodd" /><path id="401" transform="matrix(1 0 0 -1 0 841)" d="M512.86 478.99L514.3 478.99L514.3 478.99L514.3 494.83L514.3 494.83L512.86 494.83z" stroke="none" fill="#000000" fill-rule="evenodd" /><path id="402" transform="matrix(1 0 0 -1 0 841)" d="M512.86 477.55L514.3 477.55L514.3 477.55L514.3 478.99L514.3 478.99L512.86 478.99z" stroke="none" fill="#000000" fill-rule="evenodd" /><path id="403" transform="matrix(1 0 0 -1 0 841)" d="M512.86 477.55L514.3 477.55L514.3 477.55L514.3 478.99L514.3 478.99L512.86 478.99z" stroke="none" fill="#000000" fill-rule="evenodd" /><path id="832" transform="matrix(1 0 0 -1 0 841)" d="M89.904 117.14L513.334 117.14L513.334 117.14L513.334 132.86L513.334 132.86L89.904 132.86z" stroke="none" fill="#D9D9D9" fill-rule="evenodd" /><path id="873" transform="matrix(1 0 0 -1 0 841)" d="M89.904 101.42L366.434 101.42L366.434 101.42L366.434 117.14L366.434 117.14L89.904 117.14z" stroke="none" fill="#D9D9D9" fill-rule="evenodd" /></g></g></svg>