<svg xmlns="http://www.w3.org/2000/svg" xmlns:xlink="http://www.w3.org/1999/xlink" id="body_25" preserveAspectRatio="xMinYMin meet" viewBox="0 0 793 1121"><defs><clipPath id="1"><path id="" clip-rule="evenodd" transform="matrix(1 0 0 1 0 0)" d="M0 841L0 -0.6799927L0 -0.6799927L595.44 -0.6799927L595.44 -0.6799927L595.44 841L595.44 841L0 841z" /></clipPath></defs><g transform="matrix(1.333333 0 0 1.333333 0 0)"><g clip-path="url(#1)"><path id="446" transform="matrix(1 0 0 -1 0 841)" d="M89.904 183.5L505.774 183.5L505.774 183.5L505.774 198.74L505.774 198.74L89.904 198.74z" stroke="none" fill="#D9D9D9" fill-rule="evenodd" /><path id="486" transform="matrix(1 0 0 -1 0 841)" d="M89.904 168.26L505.774 168.26L505.774 168.26L505.774 183.5L505.774 183.5L89.904 183.5z" stroke="none" fill="#D9D9D9" fill-rule="evenodd" /><path id="526" transform="matrix(1 0 0 -1 0 841)" d="M89.904 153.02L324.914 153.02L324.914 153.02L324.914 168.26L324.914 168.26L89.904 168.26z" stroke="none" fill="#D9D9D9" fill-rule="evenodd" /></g></g></svg>