<svg xmlns="http://www.w3.org/2000/svg" xmlns:xlink="http://www.w3.org/1999/xlink" id="body_32" preserveAspectRatio="xMinYMin meet" viewBox="0 0 793 1121"><defs><clipPath id="1"><path id="" clip-rule="evenodd" transform="matrix(1 0 0 1 0 0)" d="M0 841L0 -0.6799927L0 -0.6799927L595.44 -0.6799927L595.44 -0.6799927L595.44 841L595.44 841L0 841z" /></clipPath></defs><g transform="matrix(1.333333 0 0 1.333333 0 0)"><g clip-path="url(#1)"><path id="3" transform="matrix(1 0 0 -1 0 841)" d="M89.904 756L501.094 756L501.094 756L501.094 769.68L501.094 769.68L89.904 769.68z" stroke="none" fill="#D9D9D9" fill-rule="evenodd" /><path id="43" transform="matrix(1 0 0 -1 0 841)" d="M118.1 742.3L203.564 742.3L203.564 742.3L203.564 756.004L203.564 756.004L118.1 756.004z" stroke="none" fill="#D9D9D9" fill-rule="evenodd" /><path id="52" transform="matrix(1 0 0 -1 0 841)" d="M89.904 728.62L490.414 728.62L490.414 728.62L490.414 742.3L490.414 742.3L89.904 742.3z" stroke="none" fill="#D9D9D9" fill-rule="evenodd" /><path id="91" transform="matrix(1 0 0 -1 0 841)" d="M89.904 714.94L351.554 714.94L351.554 714.94L351.554 728.62L351.554 728.62L89.904 728.62z" stroke="none" fill="#D9D9D9" fill-rule="evenodd" /><path id="117" transform="matrix(1 0 0 -1 0 841)" d="M89.904 701.26L159.264 701.26L159.264 701.26L159.264 714.94L159.264 714.94L89.904 714.94z" stroke="none" fill="#D9D9D9" fill-rule="evenodd" /><path id="125" transform="matrix(1 0 0 -1 0 841)" d="M89.904 687.58L244.724 687.58L244.724 687.58L244.724 701.26L244.724 701.26L89.904 701.26z" stroke="none" fill="#D9D9D9" fill-rule="evenodd" /><path id="141" transform="matrix(1 0 0 -1 0 841)" d="M89.904 673.9L276.764 673.9L276.764 673.9L276.764 687.58L276.764 687.58L89.904 687.58z" stroke="none" fill="#D9D9D9" fill-rule="evenodd" /><path id="160" transform="matrix(1 0 0 -1 0 841)" d="M89.904 660.22L469.054 660.22L469.054 660.22L469.054 673.9L469.054 673.9L89.904 673.9z" stroke="none" fill="#D9D9D9" fill-rule="evenodd" /><path id="197" transform="matrix(1 0 0 -1 0 841)" d="M89.904 646.54L426.314 646.54L426.314 646.54L426.314 660.22L426.314 660.22L89.904 660.22z" stroke="none" fill="#D9D9D9" fill-rule="evenodd" /><path id="230" transform="matrix(1 0 0 -1 0 841)" d="M89.904 632.86L426.314 632.86L426.314 632.86L426.314 646.54L426.314 646.54L89.904 646.54z" stroke="none" fill="#D9D9D9" fill-rule="evenodd" /><path id="263" transform="matrix(1 0 0 -1 0 841)" d="M89.904 619.18L314.084 619.18L314.084 619.18L314.084 632.86L314.084 632.86L89.904 632.86z" stroke="none" fill="#D9D9D9" fill-rule="evenodd" /><path id="286" transform="matrix(1 0 0 -1 0 841)" d="M89.904 605.5L442.274 605.5L442.274 605.5L442.274 619.18L442.274 619.18L89.904 619.18z" stroke="none" fill="#D9D9D9" fill-rule="evenodd" /><path id="321" transform="matrix(1 0 0 -1 0 841)" d="M89.904 591.82L410.234 591.82L410.234 591.82L410.234 605.5L410.234 605.5L89.904 605.5z" stroke="none" fill="#D9D9D9" fill-rule="evenodd" /></g></g></svg>