<svg xmlns="http://www.w3.org/2000/svg" xmlns:xlink="http://www.w3.org/1999/xlink" id="body_22" preserveAspectRatio="xMinYMin meet" viewBox="0 0 793 1121"><defs><clipPath id="1"><path id="" clip-rule="evenodd" transform="matrix(1 0 0 1 0 0)" d="M0 841L0 -0.6799927L0 -0.6799927L595.44 -0.6799927L595.44 -0.6799927L595.44 841L595.44 841L0 841z" /></clipPath></defs><g transform="matrix(1.333333 0 0 1.333333 0 0)"><g clip-path="url(#1)"><path id="3" transform="matrix(1 0 0 -1 0 841)" d="M89.904 754.44L505.774 754.44L505.774 754.44L505.774 769.68L505.774 769.68L89.904 769.68z" stroke="none" fill="#D9D9D9" fill-rule="evenodd" /><path id="43" transform="matrix(1 0 0 -1 0 841)" d="M89.904 739.18L378.314 739.18L378.314 739.18L378.314 754.444L378.314 754.444L89.904 754.444z" stroke="none" fill="#D9D9D9" fill-rule="evenodd" /><path id="71" transform="matrix(1 0 0 -1 0 841)" d="M89.904 709.42L505.774 709.42L505.774 709.42L505.774 724.66L505.774 724.66L89.904 724.66z" stroke="none" fill="#D9D9D9" fill-rule="evenodd" /><path id="111" transform="matrix(1 0 0 -1 0 841)" d="M89.904 694.18L367.634 694.18L367.634 694.18L367.634 709.42L367.634 709.42L89.904 709.42z" stroke="none" fill="#D9D9D9" fill-rule="evenodd" /><path id="138" transform="matrix(1 0 0 -1 0 841)" d="M89.904 664.3L505.774 664.3L505.774 664.3L505.774 679.54L505.774 679.54L89.904 679.54z" stroke="none" fill="#D9D9D9" fill-rule="evenodd" /><path id="178" transform="matrix(1 0 0 -1 0 841)" d="M89.904 649.06L175.344 649.06L175.344 649.06L175.344 664.3L175.344 664.3L89.904 664.3z" stroke="none" fill="#D9D9D9" fill-rule="evenodd" /><path id="187" transform="matrix(1 0 0 -1 0 841)" d="M89.904 619.3L505.774 619.3L505.774 619.3L505.774 634.54L505.774 634.54L89.904 634.54z" stroke="none" fill="#D9D9D9" fill-rule="evenodd" /><path id="227" transform="matrix(1 0 0 -1 0 841)" d="M89.904 604.06L228.764 604.06L228.764 604.06L228.764 619.3L228.764 619.3L89.904 619.3z" stroke="none" fill="#D9D9D9" fill-rule="evenodd" /><path id="248" transform="matrix(1 0 0 -1 0 841)" d="M89.904 539.95L505.774 539.95L505.774 539.95L505.774 553.63L505.774 553.63L89.904 553.63z" stroke="none" fill="#D9D9D9" fill-rule="evenodd" /><path id="288" transform="matrix(1 0 0 -1 0 841)" d="M89.904 526.27L292.844 526.27L292.844 526.27L292.844 539.95L292.844 539.95L89.904 539.95z" stroke="none" fill="#D9D9D9" fill-rule="evenodd" /><path id="308" transform="matrix(1 0 0 -1 0 841)" d="M89.904 497.95L505.774 497.95L505.774 497.95L505.774 511.63L505.774 511.63L89.904 511.63z" stroke="none" fill="#D9D9D9" fill-rule="evenodd" /><path id="348" transform="matrix(1 0 0 -1 0 841)" d="M89.904 484.27L196.724 484.27L196.724 484.27L196.724 497.95L196.724 497.95L89.904 497.95z" stroke="none" fill="#D9D9D9" fill-rule="evenodd" /><path id="359" transform="matrix(1 0 0 -1 0 841)" d="M89.904 463.03L223.364 463.03L223.364 463.03L223.364 478.27L223.364 478.27L89.904 478.27z" stroke="none" fill="#D9D9D9" fill-rule="evenodd" /><path id="373" transform="matrix(1 0 0 -1 0 841)" d="M89.904 447.79L351.554 447.79L351.554 447.79L351.554 463.03L351.554 463.03L89.904 463.03z" stroke="none" fill="#D9D9D9" fill-rule="evenodd" /><path id="399" transform="matrix(1 0 0 -1 0 841)" d="M89.904 432.55L180.624 432.55L180.624 432.55L180.624 447.79L180.624 447.79L89.904 447.79z" stroke="none" fill="#D9D9D9" fill-rule="evenodd" /><path id="409" transform="matrix(1 0 0 -1 0 841)" d="M89.904 417.31L287.444 417.31L287.444 417.31L287.444 432.55L287.444 432.55L89.904 432.55z" stroke="none" fill="#D9D9D9" fill-rule="evenodd" /><path id="429" transform="matrix(1 0 0 -1 0 841)" d="M89.904 402.07L255.404 402.07L255.404 402.07L255.404 417.31L255.404 417.31L89.904 417.31z" stroke="none" fill="#D9D9D9" fill-rule="evenodd" /><path id="446" transform="matrix(1 0 0 -1 0 841)" d="M89.904 386.83L505.774 386.83L505.774 386.83L505.774 402.07L505.774 402.07L89.904 402.07z" stroke="none" fill="#D9D9D9" fill-rule="evenodd" /><path id="486" transform="matrix(1 0 0 -1 0 841)" d="M118.22 371.57L505.77 371.57L505.77 371.57L505.77 386.834L505.77 386.834L118.22 386.834z" stroke="none" fill="#D9D9D9" fill-rule="evenodd" /><path id="523" transform="matrix(1 0 0 -1 0 841)" d="M118.22 356.33L363.91 356.33L363.91 356.33L363.91 371.57L363.91 371.57L118.22 371.57z" stroke="none" fill="#D9D9D9" fill-rule="evenodd" /><path id="547" transform="matrix(1 0 0 -1 0 841)" d="M89.904 341.09L505.774 341.09L505.774 341.09L505.774 356.33L505.774 356.33L89.904 356.33z" stroke="none" fill="#D9D9D9" fill-rule="evenodd" /><path id="587" transform="matrix(1 0 0 -1 0 841)" d="M118.22 325.85L438.67 325.85L438.67 325.85L438.67 341.09L438.67 341.09L118.22 341.09z" stroke="none" fill="#D9D9D9" fill-rule="evenodd" /><path id="618" transform="matrix(1 0 0 -1 0 841)" d="M89.904 310.61L505.774 310.61L505.774 310.61L505.774 325.85L505.774 325.85L89.904 325.85z" stroke="none" fill="#D9D9D9" fill-rule="evenodd" /><path id="658" transform="matrix(1 0 0 -1 0 841)" d="M118.22 295.37L438.67 295.37L438.67 295.37L438.67 310.61L438.67 310.61L118.22 310.61z" stroke="none" fill="#D9D9D9" fill-rule="evenodd" /><path id="689" transform="matrix(1 0 0 -1 0 841)" d="M89.904 280.13L372.914 280.13L372.914 280.13L372.914 295.37L372.914 295.37L89.904 295.37z" stroke="none" fill="#D9D9D9" fill-rule="evenodd" /><path id="717" transform="matrix(1 0 0 -1 0 841)" d="M89.904 264.89L378.194 264.89L378.194 264.89L378.194 280.13L378.194 280.13L89.904 280.13z" stroke="none" fill="#D9D9D9" fill-rule="evenodd" /><path id="746" transform="matrix(1 0 0 -1 0 841)" d="M89.904 249.65L282.044 249.65L282.044 249.65L282.044 264.89L282.044 264.89L89.904 264.89z" stroke="none" fill="#D9D9D9" fill-rule="evenodd" /><path id="766" transform="matrix(1 0 0 -1 0 841)" d="M89.904 234.41L356.834 234.41L356.834 234.41L356.834 249.65L356.834 249.65L89.904 249.65z" stroke="none" fill="#D9D9D9" fill-rule="evenodd" /><path id="793" transform="matrix(1 0 0 -1 0 841)" d="M89.904 219.17L495.694 219.17L495.694 219.17L495.694 234.41L495.694 234.41L89.904 234.41z" stroke="none" fill="#D9D9D9" fill-rule="evenodd" /><path id="833" transform="matrix(1 0 0 -1 0 841)" d="M89.904 203.93L356.834 203.93L356.834 203.93L356.834 219.17L356.834 219.17L89.904 219.17z" stroke="none" fill="#D9D9D9" fill-rule="evenodd" /><path id="873" transform="matrix(1 0 0 -1 0 841)" d="M89.904 188.66L153.864 188.66L153.864 188.66L153.864 203.924L153.864 203.924L89.904 203.924z" stroke="none" fill="#D9D9D9" fill-rule="evenodd" /><path id="881" transform="matrix(1 0 0 -1 0 841)" d="M89.904 173.42L185.904 173.42L185.904 173.42L185.904 188.66L185.904 188.66L89.904 188.66z" stroke="none" fill="#D9D9D9" fill-rule="evenodd" /><path id="892" transform="matrix(1 0 0 -1 0 841)" d="M89.904 158.18L250.004 158.18L250.004 158.18L250.004 173.42L250.004 173.42L89.904 173.42z" stroke="none" fill="#D9D9D9" fill-rule="evenodd" /><path id="909" transform="matrix(1 0 0 -1 0 841)" d="M89.904 142.94L495.694 142.94L495.694 142.94L495.694 158.18L495.694 158.18L89.904 158.18z" stroke="none" fill="#D9D9D9" fill-rule="evenodd" /><path id="949" transform="matrix(1 0 0 -1 0 841)" d="M89.904 127.7L282.044 127.7L282.044 127.7L282.044 142.94L282.044 142.94L89.904 142.94z" stroke="none" fill="#D9D9D9" fill-rule="evenodd" /></g></g></svg>