<svg xmlns="http://www.w3.org/2000/svg" xmlns:xlink="http://www.w3.org/1999/xlink" id="body_42" preserveAspectRatio="xMinYMin meet" viewBox="0 0 793 1121"><defs><clipPath id="1"><path id="" clip-rule="evenodd" transform="matrix(1 0 0 1 0 0)" d="M0 841L0 -0.6799927L0 -0.6799927L595.44 -0.6799927L595.44 -0.6799927L595.44 841L595.44 841L0 841z" /></clipPath></defs><g transform="matrix(1.333333 0 0 1.333333 0 0)"><g clip-path="url(#1)"><path id="333" transform="matrix(1 0 0 -1 0 841)" d="M89.904 380.45L346.274 380.45L346.274 380.45L346.274 396.194L346.274 396.194L89.904 396.194z" stroke="none" fill="#D9D9D9" fill-rule="evenodd" /><path id="572" transform="matrix(1 0 0 -1 0 841)" d="M89.904 211.37L505.774 211.37L505.774 211.37L505.774 226.61L505.774 226.61L89.904 226.61z" stroke="none" fill="#D9D9D9" fill-rule="evenodd" /><path id="613" transform="matrix(1 0 0 -1 0 841)" d="M89.904 196.1L346.274 196.1L346.274 196.1L346.274 211.364L346.274 211.364L89.904 211.364z" stroke="none" fill="#D9D9D9" fill-rule="evenodd" /><path id="638" transform="matrix(1 0 0 -1 0 841)" d="M89.904 166.22L505.774 166.22L505.774 166.22L505.774 181.46L505.774 181.46L89.904 181.46z" stroke="none" fill="#D9D9D9" fill-rule="evenodd" /><path id="678" transform="matrix(1 0 0 -1 0 841)" d="M89.904 150.98L505.774 150.98L505.774 150.98L505.774 166.22L505.774 166.22L89.904 166.22z" stroke="none" fill="#D9D9D9" fill-rule="evenodd" /><path id="718" transform="matrix(1 0 0 -1 0 841)" d="M89.904 135.74L505.774 135.74L505.774 135.74L505.774 150.98L505.774 150.98L89.904 150.98z" stroke="none" fill="#D9D9D9" fill-rule="evenodd" /><path id="758" transform="matrix(1 0 0 -1 0 841)" d="M89.904 120.5L271.484 120.5L271.484 120.5L271.484 135.74L271.484 135.74L89.904 135.74z" stroke="none" fill="#D9D9D9" fill-rule="evenodd" /></g></g></svg>