<svg xmlns="http://www.w3.org/2000/svg" xmlns:xlink="http://www.w3.org/1999/xlink" id="body_26" preserveAspectRatio="xMinYMin meet" viewBox="0 0 793 1121"><defs><clipPath id="1"><path id="" clip-rule="evenodd" transform="matrix(1 0 0 1 0 0)" d="M0 841L0 -0.6799927L0 -0.6799927L595.44 -0.6799927L595.44 -0.6799927L595.44 841L595.44 841L0 841z" /></clipPath></defs><g transform="matrix(1.333333 0 0 1.333333 0 0)"><g clip-path="url(#1)"><path id="3" transform="matrix(1 0 0 -1 0 841)" d="M89.904 756L505.774 756L505.774 756L505.774 769.68L505.774 769.68L89.904 769.68z" stroke="none" fill="#D9D9D9" fill-rule="evenodd" /><path id="45" transform="matrix(1 0 0 -1 0 841)" d="M89.904 742.3L505.774 742.3L505.774 742.3L505.774 756.004L505.774 756.004L89.904 756.004z" stroke="none" fill="#D9D9D9" fill-rule="evenodd" /><path id="84" transform="matrix(1 0 0 -1 0 841)" d="M89.904 728.62L207.404 728.62L207.404 728.62L207.404 742.3L207.404 742.3L89.904 742.3z" stroke="none" fill="#D9D9D9" fill-rule="evenodd" /><path id="96" transform="matrix(1 0 0 -1 0 841)" d="M89.904 688.3L505.774 688.3L505.774 688.3L505.774 701.98L505.774 701.98L89.904 701.98z" stroke="none" fill="#D9D9D9" fill-rule="evenodd" /><path id="136" transform="matrix(1 0 0 -1 0 841)" d="M89.904 674.62L196.724 674.62L196.724 674.62L196.724 688.3L196.724 688.3L89.904 688.3z" stroke="none" fill="#D9D9D9" fill-rule="evenodd" /><path id="147" transform="matrix(1 0 0 -1 0 841)" d="M90.024 634.3L505.774 634.3L505.774 634.3L505.774 647.98L505.774 647.98L90.024 647.98z" stroke="none" fill="#D9D9D9" fill-rule="evenodd" /><path id="187" transform="matrix(1 0 0 -1 0 841)" d="M118.22 620.62L203.684 620.62L203.684 620.62L203.684 634.3L203.684 634.3L118.22 634.3z" stroke="none" fill="#D9D9D9" fill-rule="evenodd" /><path id="196" transform="matrix(1 0 0 -1 0 841)" d="M90.024 604.42L490.534 604.42L490.534 604.42L490.534 618.1L490.534 618.1L90.024 618.1z" stroke="none" fill="#D9D9D9" fill-rule="evenodd" /><path id="235" transform="matrix(1 0 0 -1 0 841)" d="M90.024 588.22L351.674 588.22L351.674 588.22L351.674 601.9L351.674 601.9L90.024 601.9z" stroke="none" fill="#D9D9D9" fill-rule="evenodd" /><path id="261" transform="matrix(1 0 0 -1 0 841)" d="M90.024 572.02L159.384 572.02L159.384 572.02L159.384 585.7L159.384 585.7L90.024 585.7z" stroke="none" fill="#D9D9D9" fill-rule="evenodd" /><path id="269" transform="matrix(1 0 0 -1 0 841)" d="M90.024 555.79L244.844 555.79L244.844 555.79L244.844 569.494L244.844 569.494L90.024 569.494z" stroke="none" fill="#D9D9D9" fill-rule="evenodd" /><path id="285" transform="matrix(1 0 0 -1 0 841)" d="M90.024 539.59L276.884 539.59L276.884 539.59L276.884 553.27L276.884 553.27L90.024 553.27z" stroke="none" fill="#D9D9D9" fill-rule="evenodd" /><path id="304" transform="matrix(1 0 0 -1 0 841)" d="M90.024 523.39L469.174 523.39L469.174 523.39L469.174 537.07L469.174 537.07L90.024 537.07z" stroke="none" fill="#D9D9D9" fill-rule="evenodd" /><path id="341" transform="matrix(1 0 0 -1 0 841)" d="M90.024 507.19L426.434 507.19L426.434 507.19L426.434 520.87L426.434 520.87L90.024 520.87z" stroke="none" fill="#D9D9D9" fill-rule="evenodd" /><path id="374" transform="matrix(1 0 0 -1 0 841)" d="M90.024 490.99L426.434 490.99L426.434 490.99L426.434 504.67L426.434 504.67L90.024 504.67z" stroke="none" fill="#D9D9D9" fill-rule="evenodd" /><path id="407" transform="matrix(1 0 0 -1 0 841)" d="M90.024 474.79L314.204 474.79L314.204 474.79L314.204 488.47L314.204 488.47L90.024 488.47z" stroke="none" fill="#D9D9D9" fill-rule="evenodd" /><path id="430" transform="matrix(1 0 0 -1 0 841)" d="M90.024 458.59L282.164 458.59L282.164 458.59L282.164 472.27L282.164 472.27L90.024 472.27z" stroke="none" fill="#D9D9D9" fill-rule="evenodd" /><path id="450" transform="matrix(1 0 0 -1 0 841)" d="M90.024 442.39L442.394 442.39L442.394 442.39L442.394 456.07L442.394 456.07L90.024 456.07z" stroke="none" fill="#D9D9D9" fill-rule="evenodd" /><path id="485" transform="matrix(1 0 0 -1 0 841)" d="M90.024 426.19L505.774 426.19L505.774 426.19L505.774 439.87L505.774 439.87L90.024 439.87z" stroke="none" fill="#D9D9D9" fill-rule="evenodd" /><path id="526" transform="matrix(1 0 0 -1 0 841)" d="M118.22 412.51L342.55 412.51L342.55 412.51L342.55 426.19L342.55 426.19L118.22 426.19z" stroke="none" fill="#D9D9D9" fill-rule="evenodd" /><path id="548" transform="matrix(1 0 0 -1 0 841)" d="M90.024 396.31L250.124 396.31L250.124 396.31L250.124 409.99L250.124 409.99L90.024 409.99z" stroke="none" fill="#D9D9D9" fill-rule="evenodd" /><path id="565" transform="matrix(1 0 0 -1 0 841)" d="M90.024 380.09L410.354 380.09L410.354 380.09L410.354 393.794L410.354 393.794L90.024 393.794z" stroke="none" fill="#D9D9D9" fill-rule="evenodd" /></g></g></svg>