<svg xmlns="http://www.w3.org/2000/svg" xmlns:xlink="http://www.w3.org/1999/xlink" id="body_16" preserveAspectRatio="xMinYMin meet" viewBox="0 0 793 1121"><defs><clipPath id="1"><path id="" clip-rule="evenodd" transform="matrix(1 0 0 1 0 0)" d="M0 841L0 -0.6799927L0 -0.6799927L595.44 -0.6799927L595.44 -0.6799927L595.44 841L595.44 841L0 841z" /></clipPath></defs><g transform="matrix(1.333333 0 0 1.333333 0 0)"><g clip-path="url(#1)"><path id="3" transform="matrix(1 0 0 -1 0 841)" d="M89.904 756L505.774 756L505.774 756L505.774 769.68L505.774 769.68L89.904 769.68z" stroke="none" fill="#D9D9D9" fill-rule="evenodd" /><path id="43" transform="matrix(1 0 0 -1 0 841)" d="M118.1 742.3L203.564 742.3L203.564 742.3L203.564 756.004L203.564 756.004L118.1 756.004z" stroke="none" fill="#D9D9D9" fill-rule="evenodd" /><path id="52" transform="matrix(1 0 0 -1 0 841)" d="M89.904 728.62L490.534 728.62L490.534 728.62L490.534 742.3L490.534 742.3L89.904 742.3z" stroke="none" fill="#D9D9D9" fill-rule="evenodd" /><path id="91" transform="matrix(1 0 0 -1 0 841)" d="M89.904 714.94L351.674 714.94L351.674 714.94L351.674 728.62L351.674 728.62L89.904 728.62z" stroke="none" fill="#D9D9D9" fill-rule="evenodd" /><path id="117" transform="matrix(1 0 0 -1 0 841)" d="M89.904 701.26L159.384 701.26L159.384 701.26L159.384 714.94L159.384 714.94L89.904 714.94z" stroke="none" fill="#D9D9D9" fill-rule="evenodd" /><path id="125" transform="matrix(1 0 0 -1 0 841)" d="M89.904 687.58L244.844 687.58L244.844 687.58L244.844 701.26L244.844 701.26L89.904 701.26z" stroke="none" fill="#D9D9D9" fill-rule="evenodd" /><path id="141" transform="matrix(1 0 0 -1 0 841)" d="M89.904 673.9L276.884 673.9L276.884 673.9L276.884 687.58L276.884 687.58L89.904 687.58z" stroke="none" fill="#D9D9D9" fill-rule="evenodd" /><path id="160" transform="matrix(1 0 0 -1 0 841)" d="M89.904 660.22L469.174 660.22L469.174 660.22L469.174 673.9L469.174 673.9L89.904 673.9z" stroke="none" fill="#D9D9D9" fill-rule="evenodd" /><path id="197" transform="matrix(1 0 0 -1 0 841)" d="M89.904 646.54L426.434 646.54L426.434 646.54L426.434 660.22L426.434 660.22L89.904 660.22z" stroke="none" fill="#D9D9D9" fill-rule="evenodd" /><path id="230" transform="matrix(1 0 0 -1 0 841)" d="M89.904 632.86L426.434 632.86L426.434 632.86L426.434 646.54L426.434 646.54L89.904 646.54z" stroke="none" fill="#D9D9D9" fill-rule="evenodd" /><path id="263" transform="matrix(1 0 0 -1 0 841)" d="M89.904 619.18L282.284 619.18L282.284 619.18L282.284 632.86L282.284 632.86L89.904 632.86z" stroke="none" fill="#D9D9D9" fill-rule="evenodd" /><path id="283" transform="matrix(1 0 0 -1 0 841)" d="M89.904 605.5L442.514 605.5L442.514 605.5L442.514 619.18L442.514 619.18L89.904 619.18z" stroke="none" fill="#D9D9D9" fill-rule="evenodd" /><path id="318" transform="matrix(1 0 0 -1 0 841)" d="M89.904 591.82L505.774 591.82L505.774 591.82L505.774 605.5L505.774 605.5L89.904 605.5z" stroke="none" fill="#D9D9D9" fill-rule="evenodd" /><path id="359" transform="matrix(1 0 0 -1 0 841)" d="M118.1 578.14L299.68 578.14L299.68 578.14L299.68 591.82L299.68 591.82L118.1 591.82z" stroke="none" fill="#D9D9D9" fill-rule="evenodd" /><path id="377" transform="matrix(1 0 0 -1 0 841)" d="M89.904 564.43L250.244 564.43L250.244 564.43L250.244 578.134L250.244 578.134L89.904 578.134z" stroke="none" fill="#D9D9D9" fill-rule="evenodd" /><path id="394" transform="matrix(1 0 0 -1 0 841)" d="M89.904 550.75L410.474 550.75L410.474 550.75L410.474 564.43L410.474 564.43L89.904 564.43z" stroke="none" fill="#D9D9D9" fill-rule="evenodd" /><path id="426" transform="matrix(1 0 0 -1 0 841)" d="M89.904 537.07L505.774 537.07L505.774 537.07L505.774 550.75L505.774 550.75L89.904 550.75z" stroke="none" fill="#D9D9D9" fill-rule="evenodd" /><path id="467" transform="matrix(1 0 0 -1 0 841)" d="M118.1 523.39L385.15 523.39L385.15 523.39L385.15 537.07L385.15 537.07L118.1 537.07z" stroke="none" fill="#D9D9D9" fill-rule="evenodd" /></g></g></svg>