<svg xmlns="http://www.w3.org/2000/svg" xmlns:xlink="http://www.w3.org/1999/xlink" id="body_24" preserveAspectRatio="xMinYMin meet" viewBox="0 0 793 1121"><defs><clipPath id="1"><path id="" clip-rule="evenodd" transform="matrix(1 0 0 1 0 0)" d="M0 841L0 -0.6799927L0 -0.6799927L595.44 -0.6799927L595.44 -0.6799927L595.44 841L595.44 841L0 841z" /></clipPath></defs><g transform="matrix(1.333333 0 0 1.333333 0 0)"><g clip-path="url(#1)"><path id="3" transform="matrix(1 0 0 -1 0 841)" d="M89.904 754.44L421.274 754.44L421.274 754.44L421.274 769.68L421.274 769.68L89.904 769.68z" stroke="none" fill="#D9D9D9" fill-rule="evenodd" /><path id="36" transform="matrix(1 0 0 -1 0 841)" d="M89.904 739.18L505.774 739.18L505.774 739.18L505.774 754.444L505.774 754.444L89.904 754.444z" stroke="none" fill="#D9D9D9" fill-rule="evenodd" /><path id="77" transform="matrix(1 0 0 -1 0 841)" d="M111.26 723.94L175.34 723.94L175.34 723.94L175.34 739.18L175.34 739.18L111.26 739.18z" stroke="none" fill="#D9D9D9" fill-rule="evenodd" /><path id="84" transform="matrix(1 0 0 -1 0 841)" d="M89.904 708.7L442.514 708.7L442.514 708.7L442.514 723.94L442.514 723.94L89.904 723.94z" stroke="none" fill="#D9D9D9" fill-rule="evenodd" /><path id="378" transform="matrix(1 0 0 -1 0 841)" d="M89.904 474.19L505.774 474.19L505.774 474.19L505.774 489.43L505.774 489.43L89.904 489.43z" stroke="none" fill="#D9D9D9" fill-rule="evenodd" /><path id="418" transform="matrix(1 0 0 -1 0 841)" d="M89.904 458.95L111.264 458.95L111.264 458.95L111.264 474.19L111.264 474.19L89.904 474.19z" stroke="none" fill="#D9D9D9" fill-rule="evenodd" /></g></g></svg>