<svg xmlns="http://www.w3.org/2000/svg" xmlns:xlink="http://www.w3.org/1999/xlink" id="body_11" preserveAspectRatio="xMinYMin meet" viewBox="0 0 793 1121"><defs><clipPath id="1"><path id="" clip-rule="evenodd" transform="matrix(1 0 0 1 0 0)" d="M0 841L0 -0.6799927L0 -0.6799927L595.44 -0.6799927L595.44 -0.6799927L595.44 841L595.44 841L0 841z" /></clipPath></defs><g transform="matrix(1.333333 0 0 1.333333 0 0)"><g clip-path="url(#1)"><path id="14" transform="matrix(1 0 0 -1 0 841)" d="M89.904 698.26L324.914 698.26L324.914 698.26L324.914 711.94L324.914 711.94L89.904 711.94z" stroke="none" fill="#D9D9D9" fill-rule="evenodd" /><path id="37" transform="matrix(1 0 0 -1 0 841)" d="M89.904 670.9L180.864 670.9L180.864 670.9L180.864 684.58L180.864 684.58L89.904 684.58z" stroke="none" fill="#D9D9D9" fill-rule="evenodd" /><path id="47" transform="matrix(1 0 0 -1 0 841)" d="M99.864 657.22L238.844 657.22L238.844 657.22L238.844 670.9L238.844 670.9L99.864 670.9z" stroke="none" fill="#D9D9D9" fill-rule="evenodd" /><path id="62" transform="matrix(1 0 0 -1 0 841)" d="M99.864 643.54L238.844 643.54L238.844 643.54L238.844 657.22L238.844 657.22L99.864 657.22z" stroke="none" fill="#D9D9D9" fill-rule="evenodd" /><path id="77" transform="matrix(1 0 0 -1 0 841)" d="M99.864 629.86L505.774 629.86L505.774 629.86L505.774 643.54L505.774 643.54L99.864 643.54z" stroke="none" fill="#D9D9D9" fill-rule="evenodd" /><path id="116" transform="matrix(1 0 0 -1 0 841)" d="M117.62 616.18L149.66 616.18L149.66 616.18L149.66 629.86L149.66 629.86L117.62 629.86z" stroke="none" fill="#D9D9D9" fill-rule="evenodd" /><path id="120" transform="matrix(1 0 0 -1 0 841)" d="M99.864 602.5L169.344 602.5L169.344 602.5L169.344 616.18L169.344 616.18L99.864 616.18z" stroke="none" fill="#D9D9D9" fill-rule="evenodd" /><path id="128" transform="matrix(1 0 0 -1 0 841)" d="M99.864 588.82L206.804 588.82L206.804 588.82L206.804 602.5L206.804 602.5L99.864 602.5z" stroke="none" fill="#D9D9D9" fill-rule="evenodd" /><path id="141" transform="matrix(1 0 0 -1 0 841)" d="M99.864 575.14L318.884 575.14L318.884 575.14L318.884 588.82L318.884 588.82L99.864 588.82z" stroke="none" fill="#D9D9D9" fill-rule="evenodd" /><path id="164" transform="matrix(1 0 0 -1 0 841)" d="M99.864 561.43L265.484 561.43L265.484 561.43L265.484 575.134L265.484 575.134L99.864 575.134z" stroke="none" fill="#D9D9D9" fill-rule="evenodd" /><path id="182" transform="matrix(1 0 0 -1 0 841)" d="M99.864 547.75L222.764 547.75L222.764 547.75L222.764 561.43L222.764 561.43L99.864 561.43z" stroke="none" fill="#D9D9D9" fill-rule="evenodd" /><path id="196" transform="matrix(1 0 0 -1 0 841)" d="M99.864 534.07L233.444 534.07L233.444 534.07L233.444 547.75L233.444 547.75L99.864 547.75z" stroke="none" fill="#D9D9D9" fill-rule="evenodd" /><path id="211" transform="matrix(1 0 0 -1 0 841)" d="M99.864 520.39L175.584 520.39L175.584 520.39L175.584 534.07L175.584 534.07L99.864 534.07z" stroke="none" fill="#D9D9D9" fill-rule="evenodd" /><path id="255" transform="matrix(1 0 0 -1 0 841)" d="M379.63 506.71L505.77 506.71L505.77 506.71L505.77 520.39L505.77 520.39L379.63 520.39z" stroke="none" fill="#D9D9D9" fill-rule="evenodd" /><path id="293" transform="matrix(1 0 0 -1 0 841)" d="M117.62 493.03L505.77 493.03L505.77 493.03L505.77 506.71L505.77 506.71L117.62 506.71z" stroke="none" fill="#D9D9D9" fill-rule="evenodd" /><path id="334" transform="matrix(1 0 0 -1 0 841)" d="M117.62 479.35L505.77 479.35L505.77 479.35L505.77 493.03L505.77 493.03L117.62 493.03z" stroke="none" fill="#D9D9D9" fill-rule="evenodd" /><path id="372" transform="matrix(1 0 0 -1 0 841)" d="M117.62 465.67L203.084 465.67L203.084 465.67L203.084 479.35L203.084 479.35L117.62 479.35z" stroke="none" fill="#D9D9D9" fill-rule="evenodd" /><path id="381" transform="matrix(1 0 0 -1 0 841)" d="M99.864 451.99L196.128 451.99L196.128 451.99L196.128 465.67L196.128 465.67L99.864 465.67z" stroke="none" fill="#D9D9D9" fill-rule="evenodd" /><path id="560" transform="matrix(1 0 0 -1 0 841)" d="M89.904 342.53L277.004 342.53L277.004 342.53L277.004 356.21L277.004 356.21L89.904 356.21z" stroke="none" fill="#D9D9D9" fill-rule="evenodd" /><path id="579" transform="matrix(1 0 0 -1 0 841)" d="M89.904 328.85L207.524 328.85L207.524 328.85L207.524 342.53L207.524 342.53L89.904 342.53z" stroke="none" fill="#D9D9D9" fill-rule="evenodd" /><path id="592" transform="matrix(1 0 0 -1 0 841)" d="M89.904 315.17L202.124 315.17L202.124 315.17L202.124 328.85L202.124 328.85L89.904 328.85z" stroke="none" fill="#D9D9D9" fill-rule="evenodd" /><path id="604" transform="matrix(1 0 0 -1 0 841)" d="M89.904 301.49L255.764 301.49L255.764 301.49L255.764 315.17L255.764 315.17L89.904 315.17z" stroke="none" fill="#D9D9D9" fill-rule="evenodd" /><path id="838" transform="matrix(1 0 0 -1 0 841)" d="M185.3 178.34L505.77 178.34L505.77 178.34L505.77 192.02L505.77 192.02L185.3 192.02z" stroke="none" fill="#D9D9D9" fill-rule="evenodd" /><path id="874" transform="matrix(1 0 0 -1 0 841)" d="M132.38 164.66L185.78 164.66L185.78 164.66L185.78 178.34L185.78 178.34L132.38 178.34z" stroke="none" fill="#D9D9D9" fill-rule="evenodd" /></g></g></svg>