<svg xmlns="http://www.w3.org/2000/svg" xmlns:xlink="http://www.w3.org/1999/xlink" id="body_21" preserveAspectRatio="xMinYMin meet" viewBox="0 0 793 1121"><defs><clipPath id="1"><path id="" clip-rule="evenodd" transform="matrix(1 0 0 1 0 0)" d="M0 841L0 -0.6799927L0 -0.6799927L595.44 -0.6799927L595.44 -0.6799927L595.44 841L595.44 841L0 841z" /></clipPath></defs><g transform="matrix(1.333333 0 0 1.333333 0 0)"><g clip-path="url(#1)"><path id="463" transform="matrix(1 0 0 -1 0 841)" d="M353.95 343.97L503.49 343.97L503.49 343.97L503.49 357.65L503.49 357.65L353.95 357.65z" stroke="none" fill="#D9D9D9" fill-rule="evenodd" /><path id="503" transform="matrix(1 0 0 -1 0 841)" d="M89.904 330.29L100.584 330.29L100.584 330.29L100.584 343.97L100.584 343.97L89.904 343.97z" stroke="none" fill="#D9D9D9" fill-rule="evenodd" /></g></g></svg>