<svg xmlns="http://www.w3.org/2000/svg" xmlns:xlink="http://www.w3.org/1999/xlink" id="body_9" preserveAspectRatio="xMinYMin meet" viewBox="0 0 793 1121"><defs><clipPath id="1"><path id="" clip-rule="evenodd" transform="matrix(1 0 0 1 0 0)" d="M0 841L0 -0.6799927L0 -0.6799927L595.44 -0.6799927L595.44 -0.6799927L595.44 841L595.44 841L0 841z" /></clipPath></defs><g transform="matrix(1.333333 0 0 1.333333 0 0)"><g clip-path="url(#1)"><path id="383" transform="matrix(1 0 0 -1 0 841)" d="M491.38 378.41L502.06 378.41L502.06 378.41L502.06 392.114L502.06 392.114L491.38 392.114z" stroke="none" fill="#D9D9D9" fill-rule="evenodd" /><path id="421" transform="matrix(1 0 0 -1 0 841)" d="M111.14 364.73L505.77 364.73L505.77 364.73L505.77 378.41L505.77 378.41L111.14 378.41z" stroke="none" fill="#D9D9D9" fill-rule="evenodd" /><path id="459" transform="matrix(1 0 0 -1 0 841)" d="M111.14 351.05L164.54 351.05L164.54 351.05L164.54 364.73L164.54 364.73L111.14 364.73z" stroke="none" fill="#D9D9D9" fill-rule="evenodd" /></g></g></svg>