<svg xmlns="http://www.w3.org/2000/svg" xmlns:xlink="http://www.w3.org/1999/xlink" id="body_36" preserveAspectRatio="xMinYMin meet" viewBox="0 0 793 1121"><defs><clipPath id="1"><path id="" clip-rule="evenodd" transform="matrix(1 0 0 1 0 0)" d="M0 841L0 -0.6799927L0 -0.6799927L595.44 -0.6799927L595.44 -0.6799927L595.44 841L595.44 841L0 841z" /></clipPath></defs><g transform="matrix(1.333333 0 0 1.333333 0 0)"><g clip-path="url(#1)"><path id="83" transform="matrix(1 0 0 -1 0 841)" d="M89.904 698.86L505.774 698.86L505.774 698.86L505.774 714.1L505.774 714.1L89.904 714.1z" stroke="none" fill="#D9D9D9" fill-rule="evenodd" /><path id="123" transform="matrix(1 0 0 -1 0 841)" d="M89.904 683.62L388.994 683.62L388.994 683.62L388.994 698.86L388.994 698.86L89.904 698.86z" stroke="none" fill="#D9D9D9" fill-rule="evenodd" /><path id="152" transform="matrix(1 0 0 -1 0 841)" d="M89.904 653.86L505.774 653.86L505.774 653.86L505.774 669.1L505.774 669.1L89.904 669.1z" stroke="none" fill="#D9D9D9" fill-rule="evenodd" /><path id="192" transform="matrix(1 0 0 -1 0 841)" d="M89.904 638.62L271.484 638.62L271.484 638.62L271.484 653.86L271.484 653.86L89.904 653.86z" stroke="none" fill="#D9D9D9" fill-rule="evenodd" /><path id="210" transform="matrix(1 0 0 -1 0 841)" d="M89.904 608.74L505.774 608.74L505.774 608.74L505.774 623.98L505.774 623.98L89.904 623.98z" stroke="none" fill="#D9D9D9" fill-rule="evenodd" /><path id="257" transform="matrix(1 0 0 -1 0 841)" d="M89.904 552.67L505.774 552.67L505.774 552.67L505.774 566.35L505.774 566.35L89.904 566.35z" stroke="none" fill="#D9D9D9" fill-rule="evenodd" /><path id="297" transform="matrix(1 0 0 -1 0 841)" d="M89.904 538.99L292.844 538.99L292.844 538.99L292.844 552.67L292.844 552.67L89.904 552.67z" stroke="none" fill="#D9D9D9" fill-rule="evenodd" /><path id="317" transform="matrix(1 0 0 -1 0 841)" d="M89.904 510.67L505.774 510.67L505.774 510.67L505.774 524.35L505.774 524.35L89.904 524.35z" stroke="none" fill="#D9D9D9" fill-rule="evenodd" /><path id="357" transform="matrix(1 0 0 -1 0 841)" d="M89.904 496.99L196.724 496.99L196.724 496.99L196.724 510.67L196.724 510.67L89.904 510.67z" stroke="none" fill="#D9D9D9" fill-rule="evenodd" /><path id="368" transform="matrix(1 0 0 -1 0 841)" d="M89.904 477.31L505.774 477.31L505.774 477.31L505.774 490.99L505.774 490.99L89.904 490.99z" stroke="none" fill="#D9D9D9" fill-rule="evenodd" /><path id="409" transform="matrix(1 0 0 -1 0 841)" d="M118.1 463.63L256.96 463.63L256.96 463.63L256.96 477.31L256.96 477.31L118.1 477.31z" stroke="none" fill="#D9D9D9" fill-rule="evenodd" /><path id="423" transform="matrix(1 0 0 -1 0 841)" d="M89.904 449.95L383.594 449.95L383.594 449.95L383.594 463.63L383.594 463.63L89.904 463.63z" stroke="none" fill="#D9D9D9" fill-rule="evenodd" /><path id="452" transform="matrix(1 0 0 -1 0 841)" d="M89.904 436.27L501.094 436.27L501.094 436.27L501.094 449.95L501.094 449.95L89.904 449.95z" stroke="none" fill="#D9D9D9" fill-rule="evenodd" /><path id="492" transform="matrix(1 0 0 -1 0 841)" d="M118.1 422.59L267.64 422.59L267.64 422.59L267.64 436.27L267.64 436.27L118.1 436.27z" stroke="none" fill="#D9D9D9" fill-rule="evenodd" /><path id="507" transform="matrix(1 0 0 -1 0 841)" d="M89.904 408.91L223.364 408.91L223.364 408.91L223.364 422.59L223.364 422.59L89.904 422.59z" stroke="none" fill="#D9D9D9" fill-rule="evenodd" /><path id="521" transform="matrix(1 0 0 -1 0 841)" d="M89.904 395.23L223.364 395.23L223.364 395.23L223.364 408.91L223.364 408.91L89.904 408.91z" stroke="none" fill="#D9D9D9" fill-rule="evenodd" /><path id="535" transform="matrix(1 0 0 -1 0 841)" d="M89.904 381.53L362.234 381.53L362.234 381.53L362.234 395.234L362.234 395.234L89.904 395.234z" stroke="none" fill="#D9D9D9" fill-rule="evenodd" /><path id="562" transform="matrix(1 0 0 -1 0 841)" d="M89.904 367.85L404.954 367.85L404.954 367.85L404.954 381.53L404.954 381.53L89.904 381.53z" stroke="none" fill="#D9D9D9" fill-rule="evenodd" /><path id="593" transform="matrix(1 0 0 -1 0 841)" d="M89.904 354.17L287.444 354.17L287.444 354.17L287.444 367.85L287.444 367.85L89.904 367.85z" stroke="none" fill="#D9D9D9" fill-rule="evenodd" /><path id="613" transform="matrix(1 0 0 -1 0 841)" d="M89.904 340.49L505.774 340.49L505.774 340.49L505.774 354.17L505.774 354.17L89.904 354.17z" stroke="none" fill="#D9D9D9" fill-rule="evenodd" /><path id="653" transform="matrix(1 0 0 -1 0 841)" d="M118.1 326.81L505.77 326.81L505.77 326.81L505.77 340.49L505.77 340.49L118.1 340.49z" stroke="none" fill="#D9D9D9" fill-rule="evenodd" /><path id="690" transform="matrix(1 0 0 -1 0 841)" d="M118.1 313.13L505.77 313.13L505.77 313.13L505.77 326.81L505.77 326.81L118.1 326.81z" stroke="none" fill="#D9D9D9" fill-rule="evenodd" /><path id="727" transform="matrix(1 0 0 -1 0 841)" d="M118.1 299.45L139.46 299.45L139.46 299.45L139.46 313.13L139.46 313.13L118.1 313.13z" stroke="none" fill="#D9D9D9" fill-rule="evenodd" /><path id="730" transform="matrix(1 0 0 -1 0 841)" d="M89.904 285.77L505.774 285.77L505.774 285.77L505.774 299.45L505.774 299.45L89.904 299.45z" stroke="none" fill="#D9D9D9" fill-rule="evenodd" /><path id="771" transform="matrix(1 0 0 -1 0 841)" d="M118.1 272.09L438.55 272.09L438.55 272.09L438.55 285.77L438.55 285.77L118.1 285.77z" stroke="none" fill="#D9D9D9" fill-rule="evenodd" /><path id="802" transform="matrix(1 0 0 -1 0 841)" d="M89.904 258.41L356.834 258.41L356.834 258.41L356.834 272.09L356.834 272.09L89.904 272.09z" stroke="none" fill="#D9D9D9" fill-rule="evenodd" /><path id="829" transform="matrix(1 0 0 -1 0 841)" d="M89.904 244.73L495.694 244.73L495.694 244.73L495.694 258.41L495.694 258.41L89.904 258.41z" stroke="none" fill="#D9D9D9" fill-rule="evenodd" /><path id="869" transform="matrix(1 0 0 -1 0 841)" d="M89.904 231.05L346.154 231.05L346.154 231.05L346.154 244.73L346.154 244.73L89.904 244.73z" stroke="none" fill="#D9D9D9" fill-rule="evenodd" /><path id="895" transform="matrix(1 0 0 -1 0 841)" d="M89.904 217.37L420.914 217.37L420.914 217.37L420.914 231.05L420.914 231.05L89.904 231.05z" stroke="none" fill="#D9D9D9" fill-rule="evenodd" /><path id="928" transform="matrix(1 0 0 -1 0 841)" d="M89.904 203.69L505.774 203.69L505.774 203.69L505.774 217.37L505.774 217.37L89.904 217.37z" stroke="none" fill="#D9D9D9" fill-rule="evenodd" /><path id="969" transform="matrix(1 0 0 -1 0 841)" d="M118.1 189.98L321.07 189.98L321.07 189.98L321.07 203.684L321.07 203.684L118.1 203.684z" stroke="none" fill="#D9D9D9" fill-rule="evenodd" /><path id="989" transform="matrix(1 0 0 -1 0 841)" d="M89.904 176.3L468.454 176.3L468.454 176.3L468.454 189.98L468.454 189.98L89.904 189.98z" stroke="none" fill="#D9D9D9" fill-rule="evenodd" /></g></g></svg>