<svg xmlns="http://www.w3.org/2000/svg" xmlns:xlink="http://www.w3.org/1999/xlink" id="body_1" preserveAspectRatio="xMinYMin meet" viewBox="0 0 793 1121"><defs><clipPath id="1"><path id="" clip-rule="evenodd" transform="matrix(1 0 0 1 0 0)" d="M0 841L0 -0.6799927L0 -0.6799927L595.44 -0.6799927L595.44 -0.6799927L595.44 841L595.44 841L0 841z" /></clipPath><clipPath id="2"><path id="" clip-rule="evenodd" transform="matrix(1 0 0 1 0 0)" d="M90.991 125.71L505.051 125.71L505.051 125.71L505.051 76L505.051 76L90.991 76z" /></clipPath><clipPath id="3"><path id="" clip-rule="evenodd" transform="matrix(1 0 0 1 0 0)" d="M90.984 125.7L505.054 125.7L505.054 125.7L505.054 75.99603L505.054 75.99603L90.984 75.99603z" /></clipPath><clipPath id="4"><path id="" clip-rule="evenodd" transform="matrix(1 0 0 1 0 0)" d="M90.984 125.7L505.054 125.7L505.054 125.7L505.054 75.99603L505.054 75.99603L90.984 75.99603z" /></clipPath><clipPath id="5"><path id="" clip-rule="evenodd" transform="matrix(1 0 0 1 0 0)" d="M90.984 125.7L505.054 125.7L505.054 125.7L505.054 75.99603L505.054 75.99603L90.984 75.99603z" /></clipPath><clipPath id="6"><path id="" clip-rule="evenodd" transform="matrix(1 0 0 1 0 0)" d="M90.984 125.7L505.054 125.7L505.054 125.7L505.054 75.99603L505.054 75.99603L90.984 75.99603z" /></clipPath><clipPath id="7"><path id="" clip-rule="evenodd" transform="matrix(1 0 0 1 0 0)" d="M90.984 125.7L505.054 125.7L505.054 125.7L505.054 75.99603L505.054 75.99603L90.984 75.99603z" /></clipPath><clipPath id="8"><path id="" clip-rule="evenodd" transform="matrix(1 0 0 1 0 0)" d="M90.984 125.7L505.054 125.7L505.054 125.7L505.054 75.99603L505.054 75.99603L90.984 75.99603z" /></clipPath><clipPath id="9"><path id="" clip-rule="evenodd" transform="matrix(1 0 0 1 0 0)" d="M90.984 125.7L505.054 125.7L505.054 125.7L505.054 75.99603L505.054 75.99603L90.984 75.99603z" /></clipPath><clipPath id="10"><path id="" clip-rule="evenodd" transform="matrix(1 0 0 1 0 0)" d="M90.984 125.7L505.054 125.7L505.054 125.7L505.054 75.99603L505.054 75.99603L90.984 75.99603z" /></clipPath><clipPath id="11"><path id="" clip-rule="evenodd" transform="matrix(1 0 0 1 0 0)" d="M90.984 125.7L505.054 125.7L505.054 125.7L505.054 75.99603L505.054 75.99603L90.984 75.99603z" /></clipPath><clipPath id="12"><path id="" clip-rule="evenodd" transform="matrix(1 0 0 1 0 0)" d="M90.984 125.7L505.054 125.7L505.054 125.7L505.054 75.99603L505.054 75.99603L90.984 75.99603z" /></clipPath><clipPath id="13"><path id="" clip-rule="evenodd" transform="matrix(1 0 0 1 0 0)" d="M90.984 125.7L505.054 125.7L505.054 125.7L505.054 75.99603L505.054 75.99603L90.984 75.99603z" /></clipPath><clipPath id="14"><path id="" clip-rule="evenodd" transform="matrix(1 0 0 1 0 0)" d="M90.984 125.7L505.054 125.7L505.054 125.7L505.054 75.99603L505.054 75.99603L90.984 75.99603z" /></clipPath><clipPath id="15"><path id="" clip-rule="evenodd" transform="matrix(1 0 0 1 0 0)" d="M90.984 125.7L505.054 125.7L505.054 125.7L505.054 75.99603L505.054 75.99603L90.984 75.99603z" /></clipPath><clipPath id="16"><path id="" clip-rule="evenodd" transform="matrix(1 0 0 1 0 0)" d="M90.984 125.7L505.054 125.7L505.054 125.7L505.054 75.99603L505.054 75.99603L90.984 75.99603z" /></clipPath><clipPath id="17"><path id="" clip-rule="evenodd" transform="matrix(1 0 0 1 0 0)" d="M90.984 125.7L505.054 125.7L505.054 125.7L505.054 75.99603L505.054 75.99603L90.984 75.99603z" /></clipPath><clipPath id="18"><path id="" clip-rule="evenodd" transform="matrix(1 0 0 1 0 0)" d="M90.984 125.7L505.054 125.7L505.054 125.7L505.054 75.99603L505.054 75.99603L90.984 75.99603z" /></clipPath><clipPath id="19"><path id="" clip-rule="evenodd" transform="matrix(1 0 0 1 0 0)" d="M90.984 125.7L505.054 125.7L505.054 125.7L505.054 75.99603L505.054 75.99603L90.984 75.99603z" /></clipPath><clipPath id="20"><path id="" clip-rule="evenodd" transform="matrix(1 0 0 1 0 0)" d="M90.984 125.7L505.054 125.7L505.054 125.7L505.054 75.99603L505.054 75.99603L90.984 75.99603z" /></clipPath><clipPath id="21"><path id="" clip-rule="evenodd" transform="matrix(1 0 0 1 0 0)" d="M90.984 125.7L505.054 125.7L505.054 125.7L505.054 75.99603L505.054 75.99603L90.984 75.99603z" /></clipPath><clipPath id="22"><path id="" clip-rule="evenodd" transform="matrix(1 0 0 1 0 0)" d="M90.984 125.7L505.054 125.7L505.054 125.7L505.054 75.99603L505.054 75.99603L90.984 75.99603z" /></clipPath><clipPath id="23"><path id="" clip-rule="evenodd" transform="matrix(1 0 0 1 0 0)" d="M90.984 125.7L505.054 125.7L505.054 125.7L505.054 75.99603L505.054 75.99603L90.984 75.99603z" /></clipPath><clipPath id="24"><path id="" clip-rule="evenodd" transform="matrix(1 0 0 1 0 0)" d="M90.984 125.7L505.054 125.7L505.054 125.7L505.054 75.99603L505.054 75.99603L90.984 75.99603z" /></clipPath><clipPath id="25"><path id="" clip-rule="evenodd" transform="matrix(1 0 0 1 0 0)" d="M90.984 125.7L505.054 125.7L505.054 125.7L505.054 75.99603L505.054 75.99603L90.984 75.99603z" /></clipPath><clipPath id="26"><path id="" clip-rule="evenodd" transform="matrix(1 0 0 1 0 0)" d="M90.984 125.7L505.054 125.7L505.054 125.7L505.054 75.99603L505.054 75.99603L90.984 75.99603z" /></clipPath><clipPath id="27"><path id="" clip-rule="evenodd" transform="matrix(1 0 0 1 0 0)" d="M90.984 125.7L505.054 125.7L505.054 125.7L505.054 75.99603L505.054 75.99603L90.984 75.99603z" /></clipPath><clipPath id="28"><path id="" clip-rule="evenodd" transform="matrix(1 0 0 1 0 0)" d="M90.984 125.7L505.054 125.7L505.054 125.7L505.054 75.99603L505.054 75.99603L90.984 75.99603z" /></clipPath><clipPath id="29"><path id="" clip-rule="evenodd" transform="matrix(1 0 0 1 0 0)" d="M90.984 125.7L505.054 125.7L505.054 125.7L505.054 75.99603L505.054 75.99603L90.984 75.99603z" /></clipPath></defs><g transform="matrix(1.333333 0 0 1.333333 0 0)"><g clip-path="url(#1)"><path id="260" transform="matrix(1 0 0 -1 0 841)" d="M417.31 346.49L502.774 346.49L502.774 346.49L502.774 362.21L502.774 362.21L417.31 362.21z" stroke="none" fill="#D9D9D9" fill-rule="evenodd" /><path id="300" transform="matrix(1 0 0 -1 0 841)" d="M89.904 330.77L505.774 330.77L505.774 330.77L505.774 346.49L505.774 346.49L89.904 346.49z" stroke="none" fill="#D9D9D9" fill-rule="evenodd" /><path id="341" transform="matrix(1 0 0 -1 0 841)" d="M89.904 315.05L217.964 315.05L217.964 315.05L217.964 330.77L217.964 330.77L89.904 330.77z" stroke="none" fill="#D9D9D9" fill-rule="evenodd" /><path id="354" transform="matrix(1 0 0 -1 0 841)" d="M89.904 283.61L410.354 283.61L410.354 283.61L410.354 299.33L410.354 299.33L89.904 299.33z" stroke="none" fill="#D9D9D9" fill-rule="evenodd" /><path id="421" transform="matrix(1 0 0 -1 0 841)" d="M89.904 236.93L505.774 236.93L505.774 236.93L505.774 252.17L505.774 252.17L89.904 252.17z" stroke="none" fill="#D9D9D9" fill-rule="evenodd" /><path id="461" transform="matrix(1 0 0 -1 0 841)" d="M89.904 221.69L505.774 221.69L505.774 221.69L505.774 236.93L505.774 236.93L89.904 236.93z" stroke="none" fill="#D9D9D9" fill-rule="evenodd" /><path id="501" transform="matrix(1 0 0 -1 0 841)" d="M89.904 206.45L335.594 206.45L335.594 206.45L335.594 221.69L335.594 221.69L89.904 221.69z" stroke="none" fill="#D9D9D9" fill-rule="evenodd" /><path id="608" transform="matrix(1 0 0 -1 0 841)" d="M90.6 711.43L505.2 711.43L505.2 711.43L505.2 768.98L505.2 768.98L90.6 768.98z" stroke="none" fill="#EAEAEA" fill-rule="evenodd" /><path id="609" transform="matrix(1 0 0 -1 0 841)" d="M90.6 711.43L505.2 711.43L505.2 711.43L505.2 768.98L505.2 768.98L90.6 768.98z" stroke="#000000" stroke-width="0.75" stroke-linecap="round" fill="none" /><g clip-path="url(#2)"><g clip-path="url(#3)"></g><g clip-path="url(#4)"></g><g clip-path="url(#5)"></g><g clip-path="url(#6)"></g><g clip-path="url(#7)"></g><g clip-path="url(#8)"></g><g clip-path="url(#9)"></g><g clip-path="url(#10)"></g><g clip-path="url(#11)"></g><g clip-path="url(#12)"></g><g clip-path="url(#13)"></g><g clip-path="url(#14)"></g><g clip-path="url(#15)"></g><g clip-path="url(#16)"></g><g clip-path="url(#17)"></g><g clip-path="url(#18)"></g><g clip-path="url(#19)"></g><g clip-path="url(#20)"></g><g clip-path="url(#21)"></g><g clip-path="url(#22)"></g><g clip-path="url(#23)"></g><g clip-path="url(#24)"></g><g clip-path="url(#25)"></g><g clip-path="url(#26)"></g><g clip-path="url(#27)"></g><g clip-path="url(#28)"></g><g clip-path="url(#29)"></g></g></g></g></svg>