<svg xmlns="http://www.w3.org/2000/svg" xmlns:xlink="http://www.w3.org/1999/xlink" id="body_10" preserveAspectRatio="xMinYMin meet" viewBox="0 0 793 1121"><defs><clipPath id="1"><path id="" clip-rule="evenodd" transform="matrix(1 0 0 1 0 0)" d="M0 841L0 -0.6799927L0 -0.6799927L595.44 -0.6799927L595.44 -0.6799927L595.44 841L595.44 841L0 841z" /></clipPath></defs><g transform="matrix(1.333333 0 0 1.333333 0 0)"><g clip-path="url(#1)"><path id="664" transform="matrix(1 0 0 -1 0 841)" d="M111.26 331.85L505.77 331.85L505.77 331.85L505.77 345.53L505.77 345.53L111.26 345.53z" stroke="none" fill="#D9D9D9" fill-rule="evenodd" /><path id="702" transform="matrix(1 0 0 -1 0 841)" d="M111.26 318.17L207.404 318.17L207.404 318.17L207.404 331.85L207.404 331.85L111.26 331.85z" stroke="none" fill="#D9D9D9" fill-rule="evenodd" /></g></g></svg>