<svg xmlns="http://www.w3.org/2000/svg" xmlns:xlink="http://www.w3.org/1999/xlink" id="body_13" preserveAspectRatio="xMinYMin meet" viewBox="0 0 793 1121"><defs><clipPath id="1"><path id="" clip-rule="evenodd" transform="matrix(1 0 0 1 0 0)" d="M0 841L0 -0.6799927L0 -0.6799927L595.44 -0.6799927L595.44 -0.6799927L595.44 841L595.44 841L0 841z" /></clipPath></defs><g transform="matrix(1.333333 0 0 1.333333 0 0)"><g clip-path="url(#1)"><path id="249" transform="matrix(1 0 0 -1 0 841)" d="M89.904 517.03L505.774 517.03L505.774 517.03L505.774 530.71L505.774 530.71L89.904 530.71z" stroke="none" fill="#D9D9D9" fill-rule="evenodd" /><path id="289" transform="matrix(1 0 0 -1 0 841)" d="M89.904 503.35L505.774 503.35L505.774 503.35L505.774 517.03L505.774 517.03L89.904 517.03z" stroke="none" fill="#D9D9D9" fill-rule="evenodd" /><path id="329" transform="matrix(1 0 0 -1 0 841)" d="M89.904 489.67L186.024 489.67L186.024 489.67L186.024 503.35L186.024 503.35L89.904 503.35z" stroke="none" fill="#D9D9D9" fill-rule="evenodd" /><path id="607" transform="matrix(1 0 0 -1 0 841)" d="M89.904 217.49L505.774 217.49L505.774 217.49L505.774 231.17L505.774 231.17L89.904 231.17z" stroke="none" fill="#D9D9D9" fill-rule="evenodd" /><path id="649" transform="matrix(1 0 0 -1 0 841)" d="M89.904 203.81L505.774 203.81L505.774 203.81L505.774 217.49L505.774 217.49L89.904 217.49z" stroke="none" fill="#D9D9D9" fill-rule="evenodd" /><path id="688" transform="matrix(1 0 0 -1 0 841)" d="M89.904 190.1L207.404 190.1L207.404 190.1L207.404 203.804L207.404 203.804L89.904 203.804z" stroke="none" fill="#D9D9D9" fill-rule="evenodd" /><path id="700" transform="matrix(1 0 0 -1 0 841)" d="M89.904 153.62L504.334 153.62L504.334 153.62L504.334 168.86L504.334 168.86L89.904 168.86z" stroke="none" fill="#D9D9D9" fill-rule="evenodd" /><path id="740" transform="matrix(1 0 0 -1 0 841)" d="M89.904 138.38L143.304 138.38L143.304 138.38L143.304 153.62L143.304 153.62L89.904 153.62z" stroke="none" fill="#D9D9D9" fill-rule="evenodd" /><path id="746" transform="matrix(1 0 0 -1 0 841)" d="M89.904 118.7L244.844 118.7L244.844 118.7L244.844 132.38L244.844 132.38L89.904 132.38z" stroke="none" fill="#D9D9D9" fill-rule="evenodd" /><path id="762" transform="matrix(1 0 0 -1 0 841)" d="M89.904 105.02L276.884 105.02L276.884 105.02L276.884 118.7L276.884 118.7L89.904 118.7z" stroke="none" fill="#D9D9D9" fill-rule="evenodd" /><path id="781" transform="matrix(1 0 0 -1 0 841)" d="M89.904 91.344L234.164 91.344L234.164 91.344L234.164 105.024L234.164 105.024L89.904 105.024z" stroke="none" fill="#D9D9D9" fill-rule="evenodd" /><path id="796" transform="matrix(1 0 0 -1 0 841)" d="M89.904 75.144L351.674 75.144L351.674 75.144L351.674 88.824L351.674 88.824L89.904 88.824z" stroke="none" fill="#D9D9D9" fill-rule="evenodd" /></g></g></svg>