<svg xmlns="http://www.w3.org/2000/svg" xmlns:xlink="http://www.w3.org/1999/xlink" id="body_44" preserveAspectRatio="xMinYMin meet" viewBox="0 0 793 1121"><defs><clipPath id="1"><path id="" clip-rule="evenodd" transform="matrix(1 0 0 1 0 0)" d="M0 841L0 -0.6799927L0 -0.6799927L595.44 -0.6799927L595.44 -0.6799927L595.44 841L595.44 841L0 841z" /></clipPath></defs><g transform="matrix(1.333333 0 0 1.333333 0 0)"><g clip-path="url(#1)"><path id="590" transform="matrix(1 0 0 -1 0 841)" d="M89.904 301.73L503.254 301.73L503.254 301.73L503.254 316.25L503.254 316.25L89.904 316.25z" stroke="none" fill="#D9D9D9" fill-rule="evenodd" /><path id="632" transform="matrix(1 0 0 -1 0 841)" d="M89.904 287.21L503.254 287.21L503.254 287.21L503.254 301.73L503.254 301.73L89.904 301.73z" stroke="none" fill="#D9D9D9" fill-rule="evenodd" /><path id="674" transform="matrix(1 0 0 -1 0 841)" d="M89.904 272.69L503.254 272.69L503.254 272.69L503.254 287.21L503.254 287.21L89.904 287.21z" stroke="none" fill="#D9D9D9" fill-rule="evenodd" /><path id="716" transform="matrix(1 0 0 -1 0 841)" d="M89.904 258.17L311.684 258.17L311.684 258.17L311.684 272.69L311.684 272.69L89.904 272.69z" stroke="none" fill="#D9D9D9" fill-rule="evenodd" /><path id="746" transform="matrix(1 0 0 -1 0 841)" d="M89.904 199.1L311.684 199.1L311.684 199.1L311.684 214.124L311.684 214.124L89.904 214.124z" stroke="none" fill="#D9D9D9" fill-rule="evenodd" /></g></g></svg>