<svg xmlns="http://www.w3.org/2000/svg" xmlns:xlink="http://www.w3.org/1999/xlink" id="body_34" preserveAspectRatio="xMinYMin meet" viewBox="0 0 793 1121"><defs><clipPath id="1"><path id="" clip-rule="evenodd" transform="matrix(1 0 0 1 0 0)" d="M0 841L0 -0.6799927L0 -0.6799927L595.44 -0.6799927L595.44 -0.6799927L595.44 841L595.44 841L0 841z" /></clipPath></defs><g transform="matrix(1.333333 0 0 1.333333 0 0)"><g clip-path="url(#1)"><path id="471" transform="matrix(1 0 0 -1 0 841)" d="M89.904 279.53L505.774 279.53L505.774 279.53L505.774 293.21L505.774 293.21L89.904 293.21z" stroke="none" fill="#D9D9D9" fill-rule="evenodd" /><path id="511" transform="matrix(1 0 0 -1 0 841)" d="M89.904 265.85L292.844 265.85L292.844 265.85L292.844 279.53L292.844 279.53L89.904 279.53z" stroke="none" fill="#D9D9D9" fill-rule="evenodd" /><path id="531" transform="matrix(1 0 0 -1 0 841)" d="M89.904 237.53L505.774 237.53L505.774 237.53L505.774 251.21L505.774 251.21L89.904 251.21z" stroke="none" fill="#D9D9D9" fill-rule="evenodd" /><path id="571" transform="matrix(1 0 0 -1 0 841)" d="M89.904 223.85L175.344 223.85L175.344 223.85L175.344 237.53L175.344 237.53L89.904 237.53z" stroke="none" fill="#D9D9D9" fill-rule="evenodd" /><path id="580" transform="matrix(1 0 0 -1 0 841)" d="M89.904 187.94L286.124 187.94L286.124 187.94L286.124 203.204L286.124 203.204L89.904 203.204z" stroke="none" fill="#D9D9D9" fill-rule="evenodd" /><path id="627" transform="matrix(1 0 0 -1 0 841)" d="M89.904 157.46L501.094 157.46L501.094 157.46L501.094 172.7L501.094 172.7L89.904 172.7z" stroke="none" fill="#D9D9D9" fill-rule="evenodd" /><path id="667" transform="matrix(1 0 0 -1 0 841)" d="M118.1 142.22L310.36 142.22L310.36 142.22L310.36 157.46L310.36 157.46L118.1 157.46z" stroke="none" fill="#D9D9D9" fill-rule="evenodd" /><path id="686" transform="matrix(1 0 0 -1 0 841)" d="M89.904 126.98L501.094 126.98L501.094 126.98L501.094 142.22L501.094 142.22L89.904 142.22z" stroke="none" fill="#D9D9D9" fill-rule="evenodd" /><path id="726" transform="matrix(1 0 0 -1 0 841)" d="M118.1 111.74L139.46 111.74L139.46 111.74L139.46 126.98L139.46 126.98L118.1 126.98z" stroke="none" fill="#D9D9D9" fill-rule="evenodd" /><path id="729" transform="matrix(1 0 0 -1 0 841)" d="M89.904 96.504L501.094 96.504L501.094 96.504L501.094 111.744L501.094 111.744L89.904 111.744z" stroke="none" fill="#D9D9D9" fill-rule="evenodd" /><path id="769" transform="matrix(1 0 0 -1 0 841)" d="M118.1 81.264L353.11 81.264L353.11 81.264L353.11 96.504L353.11 96.504L118.1 96.504z" stroke="none" fill="#D9D9D9" fill-rule="evenodd" /></g></g></svg>