<svg xmlns="http://www.w3.org/2000/svg" xmlns:xlink="http://www.w3.org/1999/xlink" id="body_12" preserveAspectRatio="xMinYMin meet" viewBox="0 0 793 1121"><defs><clipPath id="1"><path id="" clip-rule="evenodd" transform="matrix(1 0 0 1 0 0)" d="M0 841L0 -0.6799927L0 -0.6799927L595.44 -0.6799927L595.44 -0.6799927L595.44 841L595.44 841L0 841z" /></clipPath></defs><g transform="matrix(1.333333 0 0 1.333333 0 0)"><g clip-path="url(#1)"><path id="218" transform="matrix(1 0 0 -1 0 841)" d="M430.99 660.22L505.774 660.22L505.774 660.22L505.774 673.9L505.774 673.9L430.99 673.9z" stroke="none" fill="#D9D9D9" fill-rule="evenodd" /><path id="256" transform="matrix(1 0 0 -1 0 841)" d="M132.38 646.54L442.15 646.54L442.15 646.54L442.15 660.22L442.15 660.22L132.38 660.22z" stroke="none" fill="#D9D9D9" fill-rule="evenodd" /></g></g></svg>