<svg xmlns="http://www.w3.org/2000/svg" xmlns:xlink="http://www.w3.org/1999/xlink" id="body_18" preserveAspectRatio="xMinYMin meet" viewBox="0 0 793 1121"><defs><clipPath id="1"><path id="" clip-rule="evenodd" transform="matrix(1 0 0 1 0 0)" d="M0 841L0 -0.6799927L0 -0.6799927L595.44 -0.6799927L595.44 -0.6799927L595.44 841L595.44 841L0 841z" /></clipPath></defs><g transform="matrix(1.333333 0 0 1.333333 0 0)"><g clip-path="url(#1)"><path id="3" transform="matrix(1 0 0 -1 0 841)" d="M89.904 754.44L505.774 754.44L505.774 754.44L505.774 769.68L505.774 769.68L89.904 769.68z" stroke="none" fill="#D9D9D9" fill-rule="evenodd" /><path id="43" transform="matrix(1 0 0 -1 0 841)" d="M89.904 739.18L505.774 739.18L505.774 739.18L505.774 754.444L505.774 754.444L89.904 754.444z" stroke="none" fill="#D9D9D9" fill-rule="evenodd" /><path id="83" transform="matrix(1 0 0 -1 0 841)" d="M89.904 723.94L324.914 723.94L324.914 723.94L324.914 739.18L324.914 739.18L89.904 739.18z" stroke="none" fill="#D9D9D9" fill-rule="evenodd" /><path id="113" transform="matrix(1 0 0 -1 0 841)" d="M89.904 664.54L505.774 664.54L505.774 664.54L505.774 678.22L505.774 678.22L89.904 678.22z" stroke="none" fill="#D9D9D9" fill-rule="evenodd" /><path id="155" transform="matrix(1 0 0 -1 0 841)" d="M89.904 650.86L505.774 650.86L505.774 650.86L505.774 664.54L505.774 664.54L89.904 664.54z" stroke="none" fill="#D9D9D9" fill-rule="evenodd" /><path id="194" transform="matrix(1 0 0 -1 0 841)" d="M89.904 637.18L207.404 637.18L207.404 637.18L207.404 650.86L207.404 650.86L89.904 650.86z" stroke="none" fill="#D9D9D9" fill-rule="evenodd" /><path id="206" transform="matrix(1 0 0 -1 0 841)" d="M89.904 607.78L505.774 607.78L505.774 607.78L505.774 621.46L505.774 621.46L89.904 621.46z" stroke="none" fill="#D9D9D9" fill-rule="evenodd" /><path id="246" transform="matrix(1 0 0 -1 0 841)" d="M89.904 594.1L207.404 594.1L207.404 594.1L207.404 607.78L207.404 607.78L89.904 607.78z" stroke="none" fill="#D9D9D9" fill-rule="evenodd" /><path id="258" transform="matrix(1 0 0 -1 0 841)" d="M89.904 574.42L505.774 574.42L505.774 574.42L505.774 588.1L505.774 588.1L89.904 588.1z" stroke="none" fill="#D9D9D9" fill-rule="evenodd" /><path id="298" transform="matrix(1 0 0 -1 0 841)" d="M118.1 560.71L160.82 560.71L160.82 560.71L160.82 574.414L160.82 574.414L118.1 574.414z" stroke="none" fill="#D9D9D9" fill-rule="evenodd" /><path id="303" transform="matrix(1 0 0 -1 0 841)" d="M89.904 547.03L505.774 547.03L505.774 547.03L505.774 560.71L505.774 560.71L89.904 560.71z" stroke="none" fill="#D9D9D9" fill-rule="evenodd" /><path id="343" transform="matrix(1 0 0 -1 0 841)" d="M118.1 533.35L203.564 533.35L203.564 533.35L203.564 547.03L203.564 547.03L118.1 547.03z" stroke="none" fill="#D9D9D9" fill-rule="evenodd" /><path id="352" transform="matrix(1 0 0 -1 0 841)" d="M89.904 519.67L490.534 519.67L490.534 519.67L490.534 533.35L490.534 533.35L89.904 533.35z" stroke="none" fill="#D9D9D9" fill-rule="evenodd" /><path id="391" transform="matrix(1 0 0 -1 0 841)" d="M89.904 505.99L351.674 505.99L351.674 505.99L351.674 519.67L351.674 519.67L89.904 519.67z" stroke="none" fill="#D9D9D9" fill-rule="evenodd" /><path id="417" transform="matrix(1 0 0 -1 0 841)" d="M89.904 492.31L159.384 492.31L159.384 492.31L159.384 505.99L159.384 505.99L89.904 505.99z" stroke="none" fill="#D9D9D9" fill-rule="evenodd" /><path id="425" transform="matrix(1 0 0 -1 0 841)" d="M89.904 478.63L244.844 478.63L244.844 478.63L244.844 492.31L244.844 492.31L89.904 492.31z" stroke="none" fill="#D9D9D9" fill-rule="evenodd" /><path id="441" transform="matrix(1 0 0 -1 0 841)" d="M89.904 464.95L276.884 464.95L276.884 464.95L276.884 478.63L276.884 478.63L89.904 478.63z" stroke="none" fill="#D9D9D9" fill-rule="evenodd" /><path id="460" transform="matrix(1 0 0 -1 0 841)" d="M89.904 451.27L469.174 451.27L469.174 451.27L469.174 464.95L469.174 464.95L89.904 464.95z" stroke="none" fill="#D9D9D9" fill-rule="evenodd" /><path id="497" transform="matrix(1 0 0 -1 0 841)" d="M89.904 437.59L426.434 437.59L426.434 437.59L426.434 451.27L426.434 451.27L89.904 451.27z" stroke="none" fill="#D9D9D9" fill-rule="evenodd" /><path id="530" transform="matrix(1 0 0 -1 0 841)" d="M89.904 423.91L431.834 423.91L431.834 423.91L431.834 437.59L431.834 437.59L89.904 437.59z" stroke="none" fill="#D9D9D9" fill-rule="evenodd" /><path id="564" transform="matrix(1 0 0 -1 0 841)" d="M89.904 410.23L282.284 410.23L282.284 410.23L282.284 423.91L282.284 423.91L89.904 423.91z" stroke="none" fill="#D9D9D9" fill-rule="evenodd" /><path id="584" transform="matrix(1 0 0 -1 0 841)" d="M89.904 396.55L442.514 396.55L442.514 396.55L442.514 410.23L442.514 410.23L89.904 410.23z" stroke="none" fill="#D9D9D9" fill-rule="evenodd" /><path id="619" transform="matrix(1 0 0 -1 0 841)" d="M89.904 382.85L505.774 382.85L505.774 382.85L505.774 396.554L505.774 396.554L89.904 396.554z" stroke="none" fill="#D9D9D9" fill-rule="evenodd" /><path id="660" transform="matrix(1 0 0 -1 0 841)" d="M118.1 369.17L299.68 369.17L299.68 369.17L299.68 382.85L299.68 382.85L118.1 382.85z" stroke="none" fill="#D9D9D9" fill-rule="evenodd" /><path id="678" transform="matrix(1 0 0 -1 0 841)" d="M89.904 355.49L250.244 355.49L250.244 355.49L250.244 369.17L250.244 369.17L89.904 369.17z" stroke="none" fill="#D9D9D9" fill-rule="evenodd" /><path id="695" transform="matrix(1 0 0 -1 0 841)" d="M89.904 341.81L410.474 341.81L410.474 341.81L410.474 355.49L410.474 355.49L89.904 355.49z" stroke="none" fill="#D9D9D9" fill-rule="evenodd" /></g></g></svg>