<svg xmlns="http://www.w3.org/2000/svg" xmlns:xlink="http://www.w3.org/1999/xlink" id="body_27" preserveAspectRatio="xMinYMin meet" viewBox="0 0 793 1121"><defs><clipPath id="1"><path id="" clip-rule="evenodd" transform="matrix(1 0 0 1 0 0)" d="M0 841L0 -0.6799927L0 -0.6799927L595.44 -0.6799927L595.44 -0.6799927L595.44 841L595.44 841L0 841z" /></clipPath></defs><g transform="matrix(1.333333 0 0 1.333333 0 0)"><g clip-path="url(#1)"><path id="642" transform="matrix(1 0 0 -1 0 841)" d="M91.224 218.69L505.774 218.69L505.774 218.69L505.774 232.37L505.774 232.37L91.224 232.37z" stroke="none" fill="#D9D9D9" fill-rule="evenodd" /><path id="682" transform="matrix(1 0 0 -1 0 841)" d="M89.904 205.01L505.774 205.01L505.774 205.01L505.774 218.69L505.774 218.69L89.904 218.69z" stroke="none" fill="#D9D9D9" fill-rule="evenodd" /><path id="722" transform="matrix(1 0 0 -1 0 841)" d="M89.904 191.3L282.164 191.3L282.164 191.3L282.164 205.004L282.164 205.004L89.904 205.004z" stroke="none" fill="#D9D9D9" fill-rule="evenodd" /><path id="748" transform="matrix(1 0 0 -1 0 841)" d="M89.904 123.38L505.774 123.38L505.774 123.38L505.774 139.1L505.774 139.1L89.904 139.1z" stroke="none" fill="#D9D9D9" fill-rule="evenodd" /><path id="788" transform="matrix(1 0 0 -1 0 841)" d="M89.904 107.66L292.844 107.66L292.844 107.66L292.844 123.38L292.844 123.38L89.904 123.38z" stroke="none" fill="#D9D9D9" fill-rule="evenodd" /></g></g></svg>