<svg xmlns="http://www.w3.org/2000/svg" xmlns:xlink="http://www.w3.org/1999/xlink" id="body_15" preserveAspectRatio="xMinYMin meet" viewBox="0 0 793 1121"><defs><clipPath id="1"><path id="" clip-rule="evenodd" transform="matrix(1 0 0 1 0 0)" d="M0 841L0 -0.6799927L0 -0.6799927L595.44 -0.6799927L595.44 -0.6799927L595.44 841L595.44 841L0 841z" /></clipPath></defs><g transform="matrix(1.333333 0 0 1.333333 0 0)"><g clip-path="url(#1)"><path id="268" transform="matrix(1 0 0 -1 0 841)" d="M111.14 589.18L501.33 589.18L501.33 589.18L501.33 602.86L501.33 602.86L111.14 602.86z" stroke="none" fill="#D9D9D9" fill-rule="evenodd" /><path id="304" transform="matrix(1 0 0 -1 0 841)" d="M111.26 575.5L505.77 575.5L505.77 575.5L505.77 589.18L505.77 589.18L111.26 589.18z" stroke="none" fill="#D9D9D9" fill-rule="evenodd" /><path id="342" transform="matrix(1 0 0 -1 0 841)" d="M111.26 561.79L196.724 561.79L196.724 561.79L196.724 575.494L196.724 575.494L111.26 575.494z" stroke="none" fill="#D9D9D9" fill-rule="evenodd" /><path id="609" transform="matrix(1 0 0 -1 0 841)" d="M110.54 373.61L505.77 373.61L505.77 373.61L505.77 387.314L505.77 387.314L110.54 387.314z" stroke="none" fill="#D9D9D9" fill-rule="evenodd" /><path id="649" transform="matrix(1 0 0 -1 0 841)" d="M111.14 359.93L505.77 359.93L505.77 359.93L505.77 373.61L505.77 373.61L111.14 373.61z" stroke="none" fill="#D9D9D9" fill-rule="evenodd" /><path id="764" transform="matrix(1 0 0 -1 0 841)" d="M90.144 279.53L505.774 279.53L505.774 279.53L505.774 293.21L505.774 293.21L90.144 293.21z" stroke="none" fill="#D9D9D9" fill-rule="evenodd" /><path id="804" transform="matrix(1 0 0 -1 0 841)" d="M111.26 265.85L228.76 265.85L228.76 265.85L228.76 279.53L228.76 279.53L111.26 279.53z" stroke="none" fill="#D9D9D9" fill-rule="evenodd" /><path id="816" transform="matrix(1 0 0 -1 0 841)" d="M90.144 233.81L505.774 233.81L505.774 233.81L505.774 247.49L505.774 247.49L90.144 247.49z" stroke="none" fill="#D9D9D9" fill-rule="evenodd" /><path id="856" transform="matrix(1 0 0 -1 0 841)" d="M111.26 220.13L228.76 220.13L228.76 220.13L228.76 233.81L228.76 233.81L111.26 233.81z" stroke="none" fill="#D9D9D9" fill-rule="evenodd" /><path id="875" transform="matrix(1 0 0 -1 0 841)" d="M89.904 156.26L505.774 156.26L505.774 156.26L505.774 169.94L505.774 169.94L89.904 169.94z" stroke="none" fill="#D9D9D9" fill-rule="evenodd" /><path id="917" transform="matrix(1 0 0 -1 0 841)" d="M89.904 142.58L505.774 142.58L505.774 142.58L505.774 156.26L505.774 156.26L89.904 156.26z" stroke="none" fill="#D9D9D9" fill-rule="evenodd" /><path id="956" transform="matrix(1 0 0 -1 0 841)" d="M89.904 128.9L207.404 128.9L207.404 128.9L207.404 142.58L207.404 142.58L89.904 142.58z" stroke="none" fill="#D9D9D9" fill-rule="evenodd" /><path id="968" transform="matrix(1 0 0 -1 0 841)" d="M89.904 95.544L505.774 95.544L505.774 95.544L505.774 109.224L505.774 109.224L89.904 109.224z" stroke="none" fill="#D9D9D9" fill-rule="evenodd" /><path id="1008" transform="matrix(1 0 0 -1 0 841)" d="M89.904 81.864L175.344 81.864L175.344 81.864L175.344 95.544L175.344 95.544L89.904 95.544z" stroke="none" fill="#D9D9D9" fill-rule="evenodd" /></g></g></svg>