<svg xmlns="http://www.w3.org/2000/svg" xmlns:xlink="http://www.w3.org/1999/xlink" id="body_28" preserveAspectRatio="xMinYMin meet" viewBox="0 0 793 1121"><defs><clipPath id="1"><path id="" clip-rule="evenodd" transform="matrix(1 0 0 1 0 0)" d="M0 841L0 -0.6799927L0 -0.6799927L595.44 -0.6799927L595.44 -0.6799927L595.44 841L595.44 841L0 841z" /></clipPath></defs><g transform="matrix(1.333333 0 0 1.333333 0 0)"><g clip-path="url(#1)"><path id="3" transform="matrix(1 0 0 -1 0 841)" d="M89.904 756L505.774 756L505.774 756L505.774 769.68L505.774 769.68L89.904 769.68z" stroke="none" fill="#D9D9D9" fill-rule="evenodd" /><path id="43" transform="matrix(1 0 0 -1 0 841)" d="M89.904 742.3L175.344 742.3L175.344 742.3L175.344 756.004L175.344 756.004L89.904 756.004z" stroke="none" fill="#D9D9D9" fill-rule="evenodd" /><path id="52" transform="matrix(1 0 0 -1 0 841)" d="M89.904 722.62L505.774 722.62L505.774 722.62L505.774 736.3L505.774 736.3L89.904 736.3z" stroke="none" fill="#D9D9D9" fill-rule="evenodd" /><path id="92" transform="matrix(1 0 0 -1 0 841)" d="M118.1 708.94L363.79 708.94L363.79 708.94L363.79 722.62L363.79 722.62L118.1 722.62z" stroke="none" fill="#D9D9D9" fill-rule="evenodd" /><path id="116" transform="matrix(1 0 0 -1 0 841)" d="M89.904 695.26L458.374 695.26L458.374 695.26L458.374 708.94L458.374 708.94L89.904 708.94z" stroke="none" fill="#D9D9D9" fill-rule="evenodd" /><path id="152" transform="matrix(1 0 0 -1 0 841)" d="M89.904 681.58L351.554 681.58L351.554 681.58L351.554 695.26L351.554 695.26L89.904 695.26z" stroke="none" fill="#D9D9D9" fill-rule="evenodd" /><path id="178" transform="matrix(1 0 0 -1 0 841)" d="M89.904 667.9L505.774 667.9L505.774 667.9L505.774 681.58L505.774 681.58L89.904 681.58z" stroke="none" fill="#D9D9D9" fill-rule="evenodd" /><path id="218" transform="matrix(1 0 0 -1 0 841)" d="M118.1 654.22L505.77 654.22L505.77 654.22L505.77 667.9L505.77 667.9L118.1 667.9z" stroke="none" fill="#D9D9D9" fill-rule="evenodd" /><path id="255" transform="matrix(1 0 0 -1 0 841)" d="M118.1 640.54L470.61 640.54L470.61 640.54L470.61 654.22L470.61 654.22L118.1 654.22z" stroke="none" fill="#D9D9D9" fill-rule="evenodd" /><path id="289" transform="matrix(1 0 0 -1 0 841)" d="M89.904 626.86L298.124 626.86L298.124 626.86L298.124 640.54L298.124 640.54L89.904 640.54z" stroke="none" fill="#D9D9D9" fill-rule="evenodd" /><path id="734" transform="matrix(1 0 0 -1 0 841)" d="M110.9 253.85L505.77 253.85L505.77 253.85L505.77 269.09L505.77 269.09L110.9 269.09z" stroke="none" fill="#D9D9D9" fill-rule="evenodd" /><path id="772" transform="matrix(1 0 0 -1 0 841)" d="M110.9 238.61L228.4 238.61L228.4 238.61L228.4 253.85L228.4 253.85L110.9 253.85z" stroke="none" fill="#D9D9D9" fill-rule="evenodd" /></g></g></svg>