<svg xmlns="http://www.w3.org/2000/svg" xmlns:xlink="http://www.w3.org/1999/xlink" id="body_39" preserveAspectRatio="xMinYMin meet" viewBox="0 0 793 1121"><defs><clipPath id="1"><path id="" clip-rule="evenodd" transform="matrix(1 0 0 1 0 0)" d="M0 841L0 -0.6799927L0 -0.6799927L595.44 -0.6799927L595.44 -0.6799927L595.44 841L595.44 841L0 841z" /></clipPath></defs><g transform="matrix(1.333333 0 0 1.333333 0 0)"><g clip-path="url(#1)"><path id="10" transform="matrix(1 0 0 -1 0 841)" d="M89.904 717.94L505.774 717.94L505.774 717.94L505.774 731.62L505.774 731.62L89.904 731.62z" stroke="none" fill="#D9D9D9" fill-rule="evenodd" /><path id="50" transform="matrix(1 0 0 -1 0 841)" d="M89.904 704.26L239.444 704.26L239.444 704.26L239.444 717.94L239.444 717.94L89.904 717.94z" stroke="none" fill="#D9D9D9" fill-rule="evenodd" /><path id="65" transform="matrix(1 0 0 -1 0 841)" d="M89.904 663.94L505.774 663.94L505.774 663.94L505.774 677.62L505.774 677.62L89.904 677.62z" stroke="none" fill="#D9D9D9" fill-rule="evenodd" /><path id="105" transform="matrix(1 0 0 -1 0 841)" d="M89.904 650.26L196.724 650.26L196.724 650.26L196.724 663.94L196.724 663.94L89.904 663.94z" stroke="none" fill="#D9D9D9" fill-rule="evenodd" /><path id="116" transform="matrix(1 0 0 -1 0 841)" d="M89.904 630.58L505.774 630.58L505.774 630.58L505.774 644.26L505.774 644.26L89.904 644.26z" stroke="none" fill="#D9D9D9" fill-rule="evenodd" /><path id="156" transform="matrix(1 0 0 -1 0 841)" d="M118.1 616.9L203.564 616.9L203.564 616.9L203.564 630.58L203.564 630.58L118.1 630.58z" stroke="none" fill="#D9D9D9" fill-rule="evenodd" /><path id="165" transform="matrix(1 0 0 -1 0 841)" d="M89.904 600.7L490.414 600.7L490.414 600.7L490.414 614.38L490.414 614.38L89.904 614.38z" stroke="none" fill="#D9D9D9" fill-rule="evenodd" /><path id="204" transform="matrix(1 0 0 -1 0 841)" d="M89.904 584.5L505.774 584.5L505.774 584.5L505.774 598.18L505.774 598.18L89.904 598.18z" stroke="none" fill="#D9D9D9" fill-rule="evenodd" /><path id="244" transform="matrix(1 0 0 -1 0 841)" d="M118.1 570.82L224.92 570.82L224.92 570.82L224.92 584.5L224.92 584.5L118.1 584.5z" stroke="none" fill="#D9D9D9" fill-rule="evenodd" /><path id="255" transform="matrix(1 0 0 -1 0 841)" d="M89.904 554.59L351.554 554.59L351.554 554.59L351.554 568.294L351.554 568.294L89.904 568.294z" stroke="none" fill="#D9D9D9" fill-rule="evenodd" /><path id="281" transform="matrix(1 0 0 -1 0 841)" d="M89.904 538.39L159.264 538.39L159.264 538.39L159.264 552.07L159.264 552.07L89.904 552.07z" stroke="none" fill="#D9D9D9" fill-rule="evenodd" /><path id="289" transform="matrix(1 0 0 -1 0 841)" d="M89.904 522.19L244.724 522.19L244.724 522.19L244.724 535.87L244.724 535.87L89.904 535.87z" stroke="none" fill="#D9D9D9" fill-rule="evenodd" /><path id="305" transform="matrix(1 0 0 -1 0 841)" d="M89.904 505.99L276.764 505.99L276.764 505.99L276.764 519.67L276.764 519.67L89.904 519.67z" stroke="none" fill="#D9D9D9" fill-rule="evenodd" /><path id="324" transform="matrix(1 0 0 -1 0 841)" d="M89.904 489.79L469.054 489.79L469.054 489.79L469.054 503.47L469.054 503.47L89.904 503.47z" stroke="none" fill="#D9D9D9" fill-rule="evenodd" /><path id="361" transform="matrix(1 0 0 -1 0 841)" d="M89.904 473.59L431.594 473.59L431.594 473.59L431.594 487.27L431.594 487.27L89.904 487.27z" stroke="none" fill="#D9D9D9" fill-rule="evenodd" /><path id="395" transform="matrix(1 0 0 -1 0 841)" d="M89.904 457.39L431.594 457.39L431.594 457.39L431.594 471.07L431.594 471.07L89.904 471.07z" stroke="none" fill="#D9D9D9" fill-rule="evenodd" /><path id="429" transform="matrix(1 0 0 -1 0 841)" d="M89.904 441.19L314.084 441.19L314.084 441.19L314.084 454.87L314.084 454.87L89.904 454.87z" stroke="none" fill="#D9D9D9" fill-rule="evenodd" /><path id="452" transform="matrix(1 0 0 -1 0 841)" d="M89.904 424.99L442.274 424.99L442.274 424.99L442.274 438.67L442.274 438.67L89.904 438.67z" stroke="none" fill="#D9D9D9" fill-rule="evenodd" /><path id="487" transform="matrix(1 0 0 -1 0 841)" d="M89.904 408.79L410.234 408.79L410.234 408.79L410.234 422.47L410.234 422.47L89.904 422.47z" stroke="none" fill="#D9D9D9" fill-rule="evenodd" /></g></g></svg>