<svg xmlns="http://www.w3.org/2000/svg" xmlns:xlink="http://www.w3.org/1999/xlink" id="body_50" preserveAspectRatio="xMinYMin meet" viewBox="0 0 793 1121"><defs><clipPath id="1"><path id="" clip-rule="evenodd" transform="matrix(1 0 0 1 0 0)" d="M0 841L0 -0.6799927L0 -0.6799927L595.44 -0.6799927L595.44 -0.6799927L595.44 841L595.44 841L0 841z" /></clipPath></defs><g transform="matrix(1.333333 0 0 1.333333 0 0)"><g clip-path="url(#1)"><path id="308" transform="matrix(1 0 0 -1 0 841)" d="M89.904 402.31L331.874 402.31L331.874 402.31L331.874 417.31L331.874 417.31L89.904 417.31z" stroke="none" fill="#D9D9D9" fill-rule="evenodd" /><path id="617" transform="matrix(1 0 0 -1 0 841)" d="M89.904 243.17L503.254 243.17L503.254 243.17L503.254 257.69L503.254 257.69L89.904 257.69z" stroke="none" fill="#D9D9D9" fill-rule="evenodd" /><path id="659" transform="matrix(1 0 0 -1 0 841)" d="M89.904 228.65L503.254 228.65L503.254 228.65L503.254 243.17L503.254 243.17L89.904 243.17z" stroke="none" fill="#D9D9D9" fill-rule="evenodd" /><path id="701" transform="matrix(1 0 0 -1 0 841)" d="M89.904 214.13L503.254 214.13L503.254 214.13L503.254 228.65L503.254 228.65L89.904 228.65z" stroke="none" fill="#D9D9D9" fill-rule="evenodd" /><path id="743" transform="matrix(1 0 0 -1 0 841)" d="M89.904 199.58L311.684 199.58L311.684 199.58L311.684 214.124L311.684 214.124L89.904 214.124z" stroke="none" fill="#D9D9D9" fill-rule="evenodd" /><path id="773" transform="matrix(1 0 0 -1 0 841)" d="M89.904 140.54L311.684 140.54L311.684 140.54L311.684 155.54L311.684 155.54L89.904 155.54z" stroke="none" fill="#D9D9D9" fill-rule="evenodd" /></g></g></svg>