<svg xmlns="http://www.w3.org/2000/svg" xmlns:xlink="http://www.w3.org/1999/xlink" id="body_20" preserveAspectRatio="xMinYMin meet" viewBox="0 0 793 1121"><defs><clipPath id="1"><path id="" clip-rule="evenodd" transform="matrix(1 0 0 1 0 0)" d="M0 841L0 -0.6799927L0 -0.6799927L595.44 -0.6799927L595.44 -0.6799927L595.44 841L595.44 841L0 841z" /></clipPath></defs><g transform="matrix(1.333333 0 0 1.333333 0 0)"><g clip-path="url(#1)"><path id="10" transform="matrix(1 0 0 -1 0 841)" d="M89.904 726.1L505.774 726.1L505.774 726.1L505.774 739.78L505.774 739.78L89.904 739.78z" stroke="none" fill="#D9D9D9" fill-rule="evenodd" /><path id="52" transform="matrix(1 0 0 -1 0 841)" d="M89.904 712.42L505.774 712.42L505.774 712.42L505.774 726.1L505.774 726.1L89.904 726.1z" stroke="none" fill="#D9D9D9" fill-rule="evenodd" /><path id="91" transform="matrix(1 0 0 -1 0 841)" d="M89.904 698.74L207.404 698.74L207.404 698.74L207.404 712.42L207.404 712.42L89.904 712.42z" stroke="none" fill="#D9D9D9" fill-rule="evenodd" /><path id="103" transform="matrix(1 0 0 -1 0 841)" d="M89.904 672.7L505.774 672.7L505.774 672.7L505.774 686.38L505.774 686.38L89.904 686.38z" stroke="none" fill="#D9D9D9" fill-rule="evenodd" /><path id="143" transform="matrix(1 0 0 -1 0 841)" d="M89.904 659.02L250.124 659.02L250.124 659.02L250.124 672.7L250.124 672.7L89.904 672.7z" stroke="none" fill="#D9D9D9" fill-rule="evenodd" /><path id="159" transform="matrix(1 0 0 -1 0 841)" d="M89.904 626.98L505.774 626.98L505.774 626.98L505.774 640.66L505.774 640.66L89.904 640.66z" stroke="none" fill="#D9D9D9" fill-rule="evenodd" /><path id="199" transform="matrix(1 0 0 -1 0 841)" d="M118.1 613.3L246.28 613.3L246.28 613.3L246.28 626.98L246.28 626.98L118.1 626.98z" stroke="none" fill="#D9D9D9" fill-rule="evenodd" /><path id="212" transform="matrix(1 0 0 -1 0 841)" d="M89.904 599.62L490.414 599.62L490.414 599.62L490.414 613.3L490.414 613.3L89.904 613.3z" stroke="none" fill="#D9D9D9" fill-rule="evenodd" /><path id="251" transform="matrix(1 0 0 -1 0 841)" d="M89.904 585.94L505.774 585.94L505.774 585.94L505.774 599.62L505.774 599.62L89.904 599.62z" stroke="none" fill="#D9D9D9" fill-rule="evenodd" /><path id="291" transform="matrix(1 0 0 -1 0 841)" d="M118.1 572.26L203.564 572.26L203.564 572.26L203.564 585.94L203.564 585.94L118.1 585.94z" stroke="none" fill="#D9D9D9" fill-rule="evenodd" /><path id="300" transform="matrix(1 0 0 -1 0 841)" d="M89.904 558.55L490.414 558.55L490.414 558.55L490.414 572.254L490.414 572.254L89.904 572.254z" stroke="none" fill="#D9D9D9" fill-rule="evenodd" /><path id="339" transform="matrix(1 0 0 -1 0 841)" d="M89.904 544.87L351.554 544.87L351.554 544.87L351.554 558.55L351.554 558.55L89.904 558.55z" stroke="none" fill="#D9D9D9" fill-rule="evenodd" /><path id="365" transform="matrix(1 0 0 -1 0 841)" d="M89.904 531.19L159.264 531.19L159.264 531.19L159.264 544.87L159.264 544.87L89.904 544.87z" stroke="none" fill="#D9D9D9" fill-rule="evenodd" /><path id="373" transform="matrix(1 0 0 -1 0 841)" d="M89.904 517.51L244.724 517.51L244.724 517.51L244.724 531.19L244.724 531.19L89.904 531.19z" stroke="none" fill="#D9D9D9" fill-rule="evenodd" /><path id="389" transform="matrix(1 0 0 -1 0 841)" d="M89.904 503.83L469.054 503.83L469.054 503.83L469.054 517.51L469.054 517.51L89.904 517.51z" stroke="none" fill="#D9D9D9" fill-rule="evenodd" /><path id="426" transform="matrix(1 0 0 -1 0 841)" d="M89.904 490.15L428.954 490.15L428.954 490.15L428.954 503.83L428.954 503.83L89.904 503.83z" stroke="none" fill="#D9D9D9" fill-rule="evenodd" /><path id="459" transform="matrix(1 0 0 -1 0 841)" d="M89.904 476.47L431.594 476.47L431.594 476.47L431.594 490.15L431.594 490.15L89.904 490.15z" stroke="none" fill="#D9D9D9" fill-rule="evenodd" /><path id="493" transform="matrix(1 0 0 -1 0 841)" d="M89.904 462.79L282.044 462.79L282.044 462.79L282.044 476.47L282.044 476.47L89.904 476.47z" stroke="none" fill="#D9D9D9" fill-rule="evenodd" /><path id="513" transform="matrix(1 0 0 -1 0 841)" d="M89.904 449.11L442.274 449.11L442.274 449.11L442.274 462.79L442.274 462.79L89.904 462.79z" stroke="none" fill="#D9D9D9" fill-rule="evenodd" /><path id="548" transform="matrix(1 0 0 -1 0 841)" d="M89.904 435.43L505.774 435.43L505.774 435.43L505.774 449.11L505.774 449.11L89.904 449.11z" stroke="none" fill="#D9D9D9" fill-rule="evenodd" /><path id="589" transform="matrix(1 0 0 -1 0 841)" d="M118.1 421.75L299.68 421.75L299.68 421.75L299.68 435.43L299.68 435.43L118.1 435.43z" stroke="none" fill="#D9D9D9" fill-rule="evenodd" /><path id="607" transform="matrix(1 0 0 -1 0 841)" d="M89.904 408.07L252.644 408.07L252.644 408.07L252.644 421.75L252.644 421.75L89.904 421.75z" stroke="none" fill="#D9D9D9" fill-rule="evenodd" /><path id="624" transform="matrix(1 0 0 -1 0 841)" d="M89.904 394.39L410.234 394.39L410.234 394.39L410.234 408.07L410.234 408.07L89.904 408.07z" stroke="none" fill="#D9D9D9" fill-rule="evenodd" /></g></g></svg>