<svg xmlns="http://www.w3.org/2000/svg" xmlns:xlink="http://www.w3.org/1999/xlink" id="body_31" preserveAspectRatio="xMinYMin meet" viewBox="0 0 793 1121"><defs><clipPath id="1"><path id="" clip-rule="evenodd" transform="matrix(1 0 0 1 0 0)" d="M0 841L0 -0.6799927L0 -0.6799927L595.44 -0.6799927L595.44 -0.6799927L595.44 841L595.44 841L0 841z" /></clipPath></defs><g transform="matrix(1.333333 0 0 1.333333 0 0)"><g clip-path="url(#1)"><path id="608" transform="matrix(1 0 0 -1 0 841)" d="M89.904 248.81L505.774 248.81L505.774 248.81L505.774 262.49L505.774 262.49L89.904 262.49z" stroke="none" fill="#D9D9D9" fill-rule="evenodd" /><path id="648" transform="matrix(1 0 0 -1 0 841)" d="M89.904 235.13L230.204 235.13L230.204 235.13L230.204 248.81L230.204 248.81L89.904 248.81z" stroke="none" fill="#D9D9D9" fill-rule="evenodd" /><path id="767" transform="matrix(1 0 0 -1 0 841)" d="M89.904 143.18L505.774 143.18L505.774 143.18L505.774 156.86L505.774 156.86L89.904 156.86z" stroke="none" fill="#D9D9D9" fill-rule="evenodd" /><path id="807" transform="matrix(1 0 0 -1 0 841)" d="M89.904 129.5L239.444 129.5L239.444 129.5L239.444 143.18L239.444 143.18L89.904 143.18z" stroke="none" fill="#D9D9D9" fill-rule="evenodd" /><path id="822" transform="matrix(1 0 0 -1 0 841)" d="M89.904 101.18L505.774 101.18L505.774 101.18L505.774 114.86L505.774 114.86L89.904 114.86z" stroke="none" fill="#D9D9D9" fill-rule="evenodd" /><path id="862" transform="matrix(1 0 0 -1 0 841)" d="M89.904 87.504L196.724 87.504L196.724 87.504L196.724 101.184L196.724 101.184L89.904 101.184z" stroke="none" fill="#D9D9D9" fill-rule="evenodd" /></g></g></svg>