<svg xmlns="http://www.w3.org/2000/svg" xmlns:xlink="http://www.w3.org/1999/xlink" id="body_8" preserveAspectRatio="xMinYMin meet" viewBox="0 0 793 1121"><defs><clipPath id="1"><path id="" clip-rule="evenodd" transform="matrix(1 0 0 1 0 0)" d="M0 841L0 -0.6799927L0 -0.6799927L595.44 -0.6799927L595.44 -0.6799927L595.44 841L595.44 841L0 841z" /></clipPath></defs><g transform="matrix(1.333333 0 0 1.333333 0 0)"><g clip-path="url(#1)"><path id="315" transform="matrix(1 0 0 -1 0 841)" d="M189.14 562.39L522.33 562.39L522.33 562.39L522.33 576.094L522.33 576.094L189.14 576.094z" stroke="none" fill="#D9D9D9" fill-rule="evenodd" /><path id="358" transform="matrix(1 0 0 -1 0 841)" d="M89.904 548.71L324.914 548.71L324.914 548.71L324.914 562.39L324.914 562.39L89.904 562.39z" stroke="none" fill="#D9D9D9" fill-rule="evenodd" /></g></g></svg>