<svg xmlns="http://www.w3.org/2000/svg" xmlns:xlink="http://www.w3.org/1999/xlink" id="body_33" preserveAspectRatio="xMinYMin meet" viewBox="0 0 793 1121"><defs><clipPath id="1"><path id="" clip-rule="evenodd" transform="matrix(1 0 0 1 0 0)" d="M0 841L0 -0.6799927L0 -0.6799927L595.44 -0.6799927L595.44 -0.6799927L595.44 841L595.44 841L0 841z" /></clipPath></defs><g transform="matrix(1.333333 0 0 1.333333 0 0)"><g clip-path="url(#1)"><path id="120" transform="matrix(1 0 0 -1 0 841)" d="M234.29 676.3L501.22 676.3L501.22 676.3L501.22 689.98L501.22 689.98L234.29 689.98z" stroke="none" fill="#D9D9D9" fill-rule="evenodd" /><path id="157" transform="matrix(1 0 0 -1 0 841)" d="M118.1 662.62L224.8 662.62L224.8 662.62L224.8 676.3L224.8 676.3L118.1 676.3z" stroke="none" fill="#D9D9D9" fill-rule="evenodd" /></g></g></svg>