<svg xmlns="http://www.w3.org/2000/svg" xmlns:xlink="http://www.w3.org/1999/xlink" id="body_5" preserveAspectRatio="xMinYMin meet" viewBox="0 0 793 1121"><defs><clipPath id="1"><path id="" clip-rule="evenodd" transform="matrix(1 0 0 1 0 0)" d="M0 841L0 -0.6799927L0 -0.6799927L595.44 -0.6799927L595.44 -0.6799927L595.44 841L595.44 841L0 841z" /></clipPath></defs><g transform="matrix(1.333333 0 0 1.333333 0 0)"><g clip-path="url(#1)"><path id="17" transform="matrix(1 0 0 -1 0 841)" d="M89.904 697.18L505.774 697.18L505.774 697.18L505.774 710.86L505.774 710.86L89.904 710.86z" stroke="none" fill="#D9D9D9" fill-rule="evenodd" /><path id="57" transform="matrix(1 0 0 -1 0 841)" d="M89.904 683.5L463.774 683.5L463.774 683.5L463.774 697.18L463.774 697.18L89.904 697.18z" stroke="none" fill="#D9D9D9" fill-rule="evenodd" /><path id="93" transform="matrix(1 0 0 -1 0 841)" d="M89.904 648.1L501.214 648.1L501.214 648.1L501.214 661.78L501.214 661.78L89.904 661.78z" stroke="none" fill="#D9D9D9" fill-rule="evenodd" /><path id="133" transform="matrix(1 0 0 -1 0 841)" d="M118.1 634.42L224.92 634.42L224.92 634.42L224.92 648.1L224.92 648.1L118.1 648.1z" stroke="none" fill="#D9D9D9" fill-rule="evenodd" /><path id="144" transform="matrix(1 0 0 -1 0 841)" d="M89.904 620.74L212.804 620.74L212.804 620.74L212.804 634.42L212.804 634.42L89.904 634.42z" stroke="none" fill="#D9D9D9" fill-rule="evenodd" /><path id="157" transform="matrix(1 0 0 -1 0 841)" d="M89.904 607.06L490.534 607.06L490.534 607.06L490.534 620.74L490.534 620.74L89.904 620.74z" stroke="none" fill="#D9D9D9" fill-rule="evenodd" /><path id="196" transform="matrix(1 0 0 -1 0 841)" d="M89.904 593.38L501.214 593.38L501.214 593.38L501.214 607.06L501.214 607.06L89.904 607.06z" stroke="none" fill="#D9D9D9" fill-rule="evenodd" /><path id="236" transform="matrix(1 0 0 -1 0 841)" d="M118.1 579.7L139.46 579.7L139.46 579.7L139.46 593.38L139.46 593.38L118.1 593.38z" stroke="none" fill="#D9D9D9" fill-rule="evenodd" /><path id="239" transform="matrix(1 0 0 -1 0 841)" d="M89.904 565.99L405.074 565.99L405.074 565.99L405.074 579.694L405.074 579.694L89.904 579.694z" stroke="none" fill="#D9D9D9" fill-rule="evenodd" /><path id="270" transform="matrix(1 0 0 -1 0 841)" d="M89.904 552.31L373.034 552.31L373.034 552.31L373.034 565.99L373.034 565.99L89.904 565.99z" stroke="none" fill="#D9D9D9" fill-rule="evenodd" /><path id="298" transform="matrix(1 0 0 -1 0 841)" d="M89.904 538.63L501.214 538.63L501.214 538.63L501.214 552.31L501.214 552.31L89.904 552.31z" stroke="none" fill="#D9D9D9" fill-rule="evenodd" /><path id="338" transform="matrix(1 0 0 -1 0 841)" d="M118.1 524.95L203.564 524.95L203.564 524.95L203.564 538.63L203.564 538.63L118.1 538.63z" stroke="none" fill="#D9D9D9" fill-rule="evenodd" /><path id="347" transform="matrix(1 0 0 -1 0 841)" d="M89.904 511.27L426.434 511.27L426.434 511.27L426.434 524.95L426.434 524.95L89.904 524.95z" stroke="none" fill="#D9D9D9" fill-rule="evenodd" /><path id="380" transform="matrix(1 0 0 -1 0 841)" d="M89.904 497.59L437.114 497.59L437.114 497.59L437.114 511.27L437.114 511.27L89.904 511.27z" stroke="none" fill="#D9D9D9" fill-rule="evenodd" /><path id="414" transform="matrix(1 0 0 -1 0 841)" d="M89.904 483.91L421.154 483.91L421.154 483.91L421.154 497.59L421.154 497.59L89.904 497.59z" stroke="none" fill="#D9D9D9" fill-rule="evenodd" /><path id="447" transform="matrix(1 0 0 -1 0 841)" d="M89.904 470.23L410.474 470.23L410.474 470.23L410.474 483.91L410.474 483.91L89.904 483.91z" stroke="none" fill="#D9D9D9" fill-rule="evenodd" /><path id="479" transform="matrix(1 0 0 -1 0 841)" d="M89.904 456.55L501.694 456.55L501.694 456.55L501.694 470.23L501.694 470.23L89.904 470.23z" stroke="none" fill="#D9D9D9" fill-rule="evenodd" /><path id="523" transform="matrix(1 0 0 -1 0 841)" d="M118.1 442.87L502.65 442.87L502.65 442.87L502.65 456.55L502.65 456.55L118.1 456.55z" stroke="none" fill="#D9D9D9" fill-rule="evenodd" /><path id="560" transform="matrix(1 0 0 -1 0 841)" d="M118.1 429.19L267.64 429.19L267.64 429.19L267.64 442.87L267.64 442.87L118.1 442.87z" stroke="none" fill="#D9D9D9" fill-rule="evenodd" /><path id="575" transform="matrix(1 0 0 -1 0 841)" d="M89.904 415.51L474.094 415.51L474.094 415.51L474.094 429.19L474.094 429.19L89.904 429.19z" stroke="none" fill="#D9D9D9" fill-rule="evenodd" /><path id="616" transform="matrix(1 0 0 -1 0 841)" d="M410.71 401.83L505.774 401.83L505.774 401.83L505.774 415.51L505.774 415.51L410.71 415.51z" stroke="none" fill="#D9D9D9" fill-rule="evenodd" /><path id="655" transform="matrix(1 0 0 -1 0 841)" d="M118.1 388.15L278.32 388.15L278.32 388.15L278.32 401.83L278.32 401.83L118.1 401.83z" stroke="none" fill="#D9D9D9" fill-rule="evenodd" /><path id="671" transform="matrix(1 0 0 -1 0 841)" d="M89.904 374.45L282.284 374.45L282.284 374.45L282.284 388.154L282.284 388.154L89.904 388.154z" stroke="none" fill="#D9D9D9" fill-rule="evenodd" /><path id="691" transform="matrix(1 0 0 -1 0 841)" d="M89.904 360.77L271.604 360.77L271.604 360.77L271.604 374.45L271.604 374.45L89.904 374.45z" stroke="none" fill="#D9D9D9" fill-rule="evenodd" /><path id="710" transform="matrix(1 0 0 -1 0 841)" d="M89.904 347.09L399.794 347.09L399.794 347.09L399.794 360.77L399.794 360.77L89.904 360.77z" stroke="none" fill="#D9D9D9" fill-rule="evenodd" /><path id="741" transform="matrix(1 0 0 -1 0 841)" d="M89.904 333.41L505.774 333.41L505.774 333.41L505.774 347.09L505.774 347.09L89.904 347.09z" stroke="none" fill="#D9D9D9" fill-rule="evenodd" /><path id="782" transform="matrix(1 0 0 -1 0 841)" d="M118.1 319.73L235.6 319.73L235.6 319.73L235.6 333.41L235.6 333.41L118.1 333.41z" stroke="none" fill="#D9D9D9" fill-rule="evenodd" /><path id="794" transform="matrix(1 0 0 -1 0 841)" d="M89.904 306.05L505.774 306.05L505.774 306.05L505.774 319.73L505.774 319.73L89.904 319.73z" stroke="none" fill="#D9D9D9" fill-rule="evenodd" /><path id="835" transform="matrix(1 0 0 -1 0 841)" d="M118.1 292.37L502.65 292.37L502.65 292.37L502.65 306.05L502.65 306.05L118.1 306.05z" stroke="none" fill="#D9D9D9" fill-rule="evenodd" /><path id="872" transform="matrix(1 0 0 -1 0 841)" d="M118.1 278.69L503.01 278.69L503.01 278.69L503.01 292.37L503.01 292.37L118.1 292.37z" stroke="none" fill="#D9D9D9" fill-rule="evenodd" /><path id="912" transform="matrix(1 0 0 -1 0 841)" d="M118.1 265.01L160.82 265.01L160.82 265.01L160.82 278.69L160.82 278.69L118.1 278.69z" stroke="none" fill="#D9D9D9" fill-rule="evenodd" /><path id="917" transform="matrix(1 0 0 -1 0 841)" d="M89.904 251.33L399.794 251.33L399.794 251.33L399.794 265.01L399.794 265.01L89.904 265.01z" stroke="none" fill="#D9D9D9" fill-rule="evenodd" /><path id="948" transform="matrix(1 0 0 -1 0 841)" d="M89.904 237.65L505.774 237.65L505.774 237.65L505.774 251.33L505.774 251.33L89.904 251.33z" stroke="none" fill="#D9D9D9" fill-rule="evenodd" /><path id="989" transform="matrix(1 0 0 -1 0 841)" d="M118.1 223.97L321.07 223.97L321.07 223.97L321.07 237.65L321.07 237.65L118.1 237.65z" stroke="none" fill="#D9D9D9" fill-rule="evenodd" /><path id="1009" transform="matrix(1 0 0 -1 0 841)" d="M89.904 210.29L505.774 210.29L505.774 210.29L505.774 223.97L505.774 223.97L89.904 223.97z" stroke="none" fill="#D9D9D9" fill-rule="evenodd" /><path id="1050" transform="matrix(1 0 0 -1 0 841)" d="M118.1 196.58L502.65 196.58L502.65 196.58L502.65 210.284L502.65 210.284L118.1 210.284z" stroke="none" fill="#D9D9D9" fill-rule="evenodd" /><path id="1087" transform="matrix(1 0 0 -1 0 841)" d="M118.1 182.9L331.75 182.9L331.75 182.9L331.75 196.58L331.75 196.58L118.1 196.58z" stroke="none" fill="#D9D9D9" fill-rule="evenodd" /><path id="1108" transform="matrix(1 0 0 -1 0 841)" d="M89.904 169.22L378.434 169.22L378.434 169.22L378.434 182.9L378.434 182.9L89.904 182.9z" stroke="none" fill="#D9D9D9" fill-rule="evenodd" /><path id="1137" transform="matrix(1 0 0 -1 0 841)" d="M89.904 155.54L505.774 155.54L505.774 155.54L505.774 169.22L505.774 169.22L89.904 169.22z" stroke="none" fill="#D9D9D9" fill-rule="evenodd" /><path id="1178" transform="matrix(1 0 0 -1 0 841)" d="M118.1 141.86L278.32 141.86L278.32 141.86L278.32 155.54L278.32 155.54L118.1 155.54z" stroke="none" fill="#D9D9D9" fill-rule="evenodd" /><path id="1194" transform="matrix(1 0 0 -1 0 841)" d="M89.904 128.18L196.844 128.18L196.844 128.18L196.844 141.86L196.844 141.86L89.904 141.86z" stroke="none" fill="#D9D9D9" fill-rule="evenodd" /></g></g></svg>