<svg xmlns="http://www.w3.org/2000/svg" xmlns:xlink="http://www.w3.org/1999/xlink" id="body_17" preserveAspectRatio="xMinYMin meet" viewBox="0 0 793 1121"><defs><clipPath id="1"><path id="" clip-rule="evenodd" transform="matrix(1 0 0 1 0 0)" d="M0 841L0 -0.6799927L0 -0.6799927L595.44 -0.6799927L595.44 -0.6799927L595.44 841L595.44 841L0 841z" /></clipPath></defs><g transform="matrix(1.333333 0 0 1.333333 0 0)"><g clip-path="url(#1)"><path id="747" transform="matrix(1 0 0 -1 0 841)" d="M163.82 154.1L505.65 154.1L505.65 154.1L505.65 169.82L505.65 169.82L163.82 169.82z" stroke="none" fill="#D9D9D9" fill-rule="evenodd" /><path id="787" transform="matrix(1 0 0 -1 0 841)" d="M89.904 123.62L505.774 123.62L505.774 123.62L505.774 138.86L505.774 138.86L89.904 138.86z" stroke="none" fill="#D9D9D9" fill-rule="evenodd" /><path id="826" transform="matrix(1 0 0 -1 0 841)" d="M89.904 108.38L505.774 108.38L505.774 108.38L505.774 123.62L505.774 123.62L89.904 123.62z" stroke="none" fill="#D9D9D9" fill-rule="evenodd" /><path id="866" transform="matrix(1 0 0 -1 0 841)" d="M89.904 93.144L505.774 93.144L505.774 93.144L505.774 108.384L505.774 108.384L89.904 108.384z" stroke="none" fill="#D9D9D9" fill-rule="evenodd" /><path id="906" transform="matrix(1 0 0 -1 0 841)" d="M89.904 77.904L353.954 77.904L353.954 77.904L353.954 93.144L353.954 93.144L89.904 93.144z" stroke="none" fill="#D9D9D9" fill-rule="evenodd" /></g></g></svg>