<svg xmlns="http://www.w3.org/2000/svg" xmlns:xlink="http://www.w3.org/1999/xlink" id="body_6" preserveAspectRatio="xMinYMin meet" viewBox="0 0 793 1121"><defs><clipPath id="1"><path id="" clip-rule="evenodd" transform="matrix(1 0 0 1 0 0)" d="M0 841L0 -0.6799927L0 -0.6799927L595.44 -0.6799927L595.44 -0.6799927L595.44 841L595.44 841L0 841z" /></clipPath></defs><g transform="matrix(1.333333 0 0 1.333333 0 0)"><g clip-path="url(#1)"><path id="778" transform="matrix(1 0 0 -1 0 841)" d="M89.904 215.69L505.774 215.69L505.774 215.69L505.774 229.37L505.774 229.37L89.904 229.37z" stroke="none" fill="#D9D9D9" fill-rule="evenodd" /><path id="818" transform="matrix(1 0 0 -1 0 841)" d="M118.1 201.98L505.77 201.98L505.77 201.98L505.77 215.684L505.77 215.684L118.1 215.684z" stroke="none" fill="#D9D9D9" fill-rule="evenodd" /><path id="855" transform="matrix(1 0 0 -1 0 841)" d="M118.1 188.3L505.77 188.3L505.77 188.3L505.77 201.98L505.77 201.98L118.1 201.98z" stroke="none" fill="#D9D9D9" fill-rule="evenodd" /><path id="892" transform="matrix(1 0 0 -1 0 841)" d="M118.1 174.62L505.77 174.62L505.77 174.62L505.77 188.3L505.77 188.3L118.1 188.3z" stroke="none" fill="#D9D9D9" fill-rule="evenodd" /><path id="929" transform="matrix(1 0 0 -1 0 841)" d="M118.1 160.94L505.77 160.94L505.77 160.94L505.77 174.62L505.77 174.62L118.1 174.62z" stroke="none" fill="#D9D9D9" fill-rule="evenodd" /><path id="966" transform="matrix(1 0 0 -1 0 841)" d="M118.1 147.26L321.07 147.26L321.07 147.26L321.07 160.94L321.07 160.94L118.1 160.94z" stroke="none" fill="#D9D9D9" fill-rule="evenodd" /><path id="1137" transform="matrix(1 0 0 -1 0 841)" d="M235.85 78.864L505.78 78.864L505.78 78.864L505.78 92.544L505.78 92.544L235.85 92.544z" stroke="none" fill="#D9D9D9" fill-rule="evenodd" /></g></g></svg>