<svg xmlns="http://www.w3.org/2000/svg" xmlns:xlink="http://www.w3.org/1999/xlink" id="body_23" preserveAspectRatio="xMinYMin meet" viewBox="0 0 793 1121"><defs><clipPath id="1"><path id="" clip-rule="evenodd" transform="matrix(1 0 0 1 0 0)" d="M0 841L0 -0.6799927L0 -0.6799927L595.44 -0.6799927L595.44 -0.6799927L595.44 841L595.44 841L0 841z" /></clipPath></defs><g transform="matrix(1.333333 0 0 1.333333 0 0)"><g clip-path="url(#1)"><path id="579" transform="matrix(1 0 0 -1 0 841)" d="M89.904 240.77L505.774 240.77L505.774 240.77L505.774 256.01L505.774 256.01L89.904 256.01z" stroke="none" fill="#D9D9D9" fill-rule="evenodd" /><path id="619" transform="matrix(1 0 0 -1 0 841)" d="M89.904 225.53L356.954 225.53L356.954 225.53L356.954 240.77L356.954 240.77L89.904 240.77z" stroke="none" fill="#D9D9D9" fill-rule="evenodd" /><path id="652" transform="matrix(1 0 0 -1 0 841)" d="M89.904 164.06L505.774 164.06L505.774 164.06L505.774 179.78L505.774 179.78L89.904 179.78z" stroke="none" fill="#D9D9D9" fill-rule="evenodd" /><path id="692" transform="matrix(1 0 0 -1 0 841)" d="M89.904 148.34L292.844 148.34L292.844 148.34L292.844 164.06L292.844 164.06L89.904 164.06z" stroke="none" fill="#D9D9D9" fill-rule="evenodd" /><path id="712" transform="matrix(1 0 0 -1 0 841)" d="M89.904 119.42L505.774 119.42L505.774 119.42L505.774 133.1L505.774 133.1L89.904 133.1z" stroke="none" fill="#D9D9D9" fill-rule="evenodd" /><path id="752" transform="matrix(1 0 0 -1 0 841)" d="M89.904 105.74L196.724 105.74L196.724 105.74L196.724 119.42L196.724 119.42L89.904 119.42z" stroke="none" fill="#D9D9D9" fill-rule="evenodd" /></g></g></svg>