<svg xmlns="http://www.w3.org/2000/svg" xmlns:xlink="http://www.w3.org/1999/xlink" id="body_35" preserveAspectRatio="xMinYMin meet" viewBox="0 0 793 1121"><defs><clipPath id="1"><path id="" clip-rule="evenodd" transform="matrix(1 0 0 1 0 0)" d="M0 841L0 -0.6799927L0 -0.6799927L595.44 -0.6799927L595.44 -0.6799927L595.44 841L595.44 841L0 841z" /></clipPath></defs><g transform="matrix(1.333333 0 0 1.333333 0 0)"><g clip-path="url(#1)"><path id="3" transform="matrix(1 0 0 -1 0 841)" d="M89.904 754.44L234.044 754.44L234.044 754.44L234.044 769.68L234.044 769.68L89.904 769.68z" stroke="none" fill="#D9D9D9" fill-rule="evenodd" /><path id="18" transform="matrix(1 0 0 -1 0 841)" d="M89.904 739.18L308.804 739.18L308.804 739.18L308.804 754.444L308.804 754.444L89.904 754.444z" stroke="none" fill="#D9D9D9" fill-rule="evenodd" /><path id="40" transform="matrix(1 0 0 -1 0 841)" d="M89.904 723.94L415.634 723.94L415.634 723.94L415.634 739.18L415.634 739.18L89.904 739.18z" stroke="none" fill="#D9D9D9" fill-rule="evenodd" /><path id="72" transform="matrix(1 0 0 -1 0 841)" d="M89.904 708.7L298.124 708.7L298.124 708.7L298.124 723.94L298.124 723.94L89.904 723.94z" stroke="none" fill="#D9D9D9" fill-rule="evenodd" /><path id="93" transform="matrix(1 0 0 -1 0 841)" d="M89.904 693.46L447.674 693.46L447.674 693.46L447.674 708.7L447.674 708.7L89.904 708.7z" stroke="none" fill="#D9D9D9" fill-rule="evenodd" /><path id="128" transform="matrix(1 0 0 -1 0 841)" d="M89.904 679.78L399.554 679.78L399.554 679.78L399.554 693.46L399.554 693.46L89.904 693.46z" stroke="none" fill="#D9D9D9" fill-rule="evenodd" /><path id="246" transform="matrix(1 0 0 -1 0 841)" d="M132.02 600.22L505.77 600.22L505.77 600.22L505.77 613.9L505.77 613.9L132.02 613.9z" stroke="none" fill="#D9D9D9" fill-rule="evenodd" /><path id="286" transform="matrix(1 0 0 -1 0 841)" d="M89.904 586.54L121.944 586.54L121.944 586.54L121.944 600.22L121.944 600.22L89.904 600.22z" stroke="none" fill="#D9D9D9" fill-rule="evenodd" /></g></g></svg>