<svg xmlns="http://www.w3.org/2000/svg" xmlns:xlink="http://www.w3.org/1999/xlink" id="body_14" preserveAspectRatio="xMinYMin meet" viewBox="0 0 793 1121"><defs><clipPath id="1"><path id="" clip-rule="evenodd" transform="matrix(1 0 0 1 0 0)" d="M0 841L0 -0.6799927L0 -0.6799927L595.44 -0.6799927L595.44 -0.6799927L595.44 841L595.44 841L0 841z" /></clipPath></defs><g transform="matrix(1.333333 0 0 1.333333 0 0)"><g clip-path="url(#1)"><path id="3" transform="matrix(1 0 0 -1 0 841)" d="M89.904 756L505.774 756L505.774 756L505.774 769.68L505.774 769.68L89.904 769.68z" stroke="none" fill="#D9D9D9" fill-rule="evenodd" /><path id="47" transform="matrix(1 0 0 -1 0 841)" d="M118.1 742.3L358.87 742.3L358.87 742.3L358.87 756.004L358.87 756.004L118.1 756.004z" stroke="none" fill="#D9D9D9" fill-rule="evenodd" /><path id="74" transform="matrix(1 0 0 -1 0 841)" d="M89.904 728.62L458.494 728.62L458.494 728.62L458.494 742.3L458.494 742.3L89.904 742.3z" stroke="none" fill="#D9D9D9" fill-rule="evenodd" /><path id="110" transform="matrix(1 0 0 -1 0 841)" d="M89.904 714.94L479.854 714.94L479.854 714.94L479.854 728.62L479.854 728.62L89.904 728.62z" stroke="none" fill="#D9D9D9" fill-rule="evenodd" /><path id="148" transform="matrix(1 0 0 -1 0 841)" d="M89.904 701.26L505.774 701.26L505.774 701.26L505.774 714.94L505.774 714.94L89.904 714.94z" stroke="none" fill="#D9D9D9" fill-rule="evenodd" /><path id="188" transform="matrix(1 0 0 -1 0 841)" d="M118.1 687.58L342.43 687.58L342.43 687.58L342.43 701.26L342.43 701.26L118.1 701.26z" stroke="none" fill="#D9D9D9" fill-rule="evenodd" /><path id="210" transform="matrix(1 0 0 -1 0 841)" d="M89.904 671.38L244.844 671.38L244.844 671.38L244.844 685.06L244.844 685.06L89.904 685.06z" stroke="none" fill="#D9D9D9" fill-rule="evenodd" /><path id="226" transform="matrix(1 0 0 -1 0 841)" d="M89.904 655.18L505.774 655.18L505.774 655.18L505.774 668.86L505.774 668.86L89.904 668.86z" stroke="none" fill="#D9D9D9" fill-rule="evenodd" /><path id="267" transform="matrix(1 0 0 -1 0 841)" d="M118.1 641.5L214.244 641.5L214.244 641.5L214.244 655.18L214.244 655.18L118.1 655.18z" stroke="none" fill="#D9D9D9" fill-rule="evenodd" /><path id="277" transform="matrix(1 0 0 -1 0 841)" d="M89.904 625.3L207.524 625.3L207.524 625.3L207.524 638.98L207.524 638.98L89.904 638.98z" stroke="none" fill="#D9D9D9" fill-rule="evenodd" /></g></g></svg>