<svg xmlns="http://www.w3.org/2000/svg" xmlns:xlink="http://www.w3.org/1999/xlink" id="body_43" preserveAspectRatio="xMinYMin meet" viewBox="0 0 793 1121"><defs><clipPath id="1"><path id="" clip-rule="evenodd" transform="matrix(1 0 0 1 0 0)" d="M0 841L0 -0.6799927L0 -0.6799927L595.44 -0.6799927L595.44 -0.6799927L595.44 841L595.44 841L0 841z" /></clipPath></defs><g transform="matrix(1.333333 0 0 1.333333 0 0)"><g clip-path="url(#1)"><path id="3" transform="matrix(1 0 0 -1 0 841)" d="M89.904 756L505.774 756L505.774 756L505.774 769.68L505.774 769.68L89.904 769.68z" stroke="none" fill="#D9D9D9" fill-rule="evenodd" /><path id="43" transform="matrix(1 0 0 -1 0 841)" d="M89.904 742.3L292.844 742.3L292.844 742.3L292.844 756.004L292.844 756.004L89.904 756.004z" stroke="none" fill="#D9D9D9" fill-rule="evenodd" /><path id="63" transform="matrix(1 0 0 -1 0 841)" d="M89.904 713.98L505.774 713.98L505.774 713.98L505.774 727.66L505.774 727.66L89.904 727.66z" stroke="none" fill="#D9D9D9" fill-rule="evenodd" /><path id="103" transform="matrix(1 0 0 -1 0 841)" d="M89.904 700.3L175.344 700.3L175.344 700.3L175.344 713.98L175.344 713.98L89.904 713.98z" stroke="none" fill="#D9D9D9" fill-rule="evenodd" /><path id="112" transform="matrix(1 0 0 -1 0 841)" d="M89.904 680.62L474.694 680.62L474.694 680.62L474.694 694.3L474.694 694.3L89.904 694.3z" stroke="none" fill="#D9D9D9" fill-rule="evenodd" /><path id="151" transform="matrix(1 0 0 -1 0 841)" d="M89.904 666.94L501.454 666.94L501.454 666.94L501.454 680.62L501.454 680.62L89.904 680.62z" stroke="none" fill="#D9D9D9" fill-rule="evenodd" /><path id="192" transform="matrix(1 0 0 -1 0 841)" d="M118.1 653.26L502.89 653.26L502.89 653.26L502.89 666.94L502.89 666.94L118.1 666.94z" stroke="none" fill="#D9D9D9" fill-rule="evenodd" /><path id="231" transform="matrix(1 0 0 -1 0 841)" d="M118.1 639.58L412.15 639.58L412.15 639.58L412.15 653.26L412.15 653.26L118.1 653.26z" stroke="none" fill="#D9D9D9" fill-rule="evenodd" /><path id="262" transform="matrix(1 0 0 -1 0 841)" d="M89.904 625.9L505.774 625.9L505.774 625.9L505.774 639.58L505.774 639.58L89.904 639.58z" stroke="none" fill="#D9D9D9" fill-rule="evenodd" /><path id="304" transform="matrix(1 0 0 -1 0 841)" d="M118.1 612.22L503.25 612.22L503.25 612.22L503.25 625.9L503.25 625.9L118.1 625.9z" stroke="none" fill="#D9D9D9" fill-rule="evenodd" /><path id="345" transform="matrix(1 0 0 -1 0 841)" d="M118.1 598.54L502.89 598.54L502.89 598.54L502.89 612.22L502.89 612.22L118.1 612.22z" stroke="none" fill="#D9D9D9" fill-rule="evenodd" /><path id="384" transform="matrix(1 0 0 -1 0 841)" d="M118.1 584.86L502.89 584.86L502.89 584.86L502.89 598.54L502.89 598.54L118.1 598.54z" stroke="none" fill="#D9D9D9" fill-rule="evenodd" /><path id="422" transform="matrix(1 0 0 -1 0 841)" d="M118.1 571.18L283.96 571.18L283.96 571.18L283.96 584.86L283.96 584.86L118.1 584.86z" stroke="none" fill="#D9D9D9" fill-rule="evenodd" /><path id="440" transform="matrix(1 0 0 -1 0 841)" d="M89.904 557.47L501.214 557.47L501.214 557.47L501.214 571.174L501.214 571.174L89.904 571.174z" stroke="none" fill="#D9D9D9" fill-rule="evenodd" /><path id="480" transform="matrix(1 0 0 -1 0 841)" d="M118.1 543.79L299.68 543.79L299.68 543.79L299.68 557.47L299.68 557.47L118.1 557.47z" stroke="none" fill="#D9D9D9" fill-rule="evenodd" /><path id="498" transform="matrix(1 0 0 -1 0 841)" d="M89.904 530.11L501.214 530.11L501.214 530.11L501.214 543.79L501.214 543.79L89.904 543.79z" stroke="none" fill="#D9D9D9" fill-rule="evenodd" /><path id="538" transform="matrix(1 0 0 -1 0 841)" d="M118.1 516.43L160.82 516.43L160.82 516.43L160.82 530.11L160.82 530.11L118.1 530.11z" stroke="none" fill="#D9D9D9" fill-rule="evenodd" /><path id="543" transform="matrix(1 0 0 -1 0 841)" d="M89.904 502.75L234.164 502.75L234.164 502.75L234.164 516.43L234.164 516.43L89.904 516.43z" stroke="none" fill="#D9D9D9" fill-rule="evenodd" /><path id="558" transform="matrix(1 0 0 -1 0 841)" d="M89.904 489.07L212.804 489.07L212.804 489.07L212.804 502.75L212.804 502.75L89.904 502.75z" stroke="none" fill="#D9D9D9" fill-rule="evenodd" /></g></g></svg>