<svg xmlns="http://www.w3.org/2000/svg" xmlns:xlink="http://www.w3.org/1999/xlink" id="body_41" preserveAspectRatio="xMinYMin meet" viewBox="0 0 793 1121"><defs><clipPath id="1"><path id="" clip-rule="evenodd" transform="matrix(1 0 0 1 0 0)" d="M0 841L0 -0.6799927L0 -0.6799927L595.44 -0.6799927L595.44 -0.6799927L595.44 841L595.44 841L0 841z" /></clipPath></defs><g transform="matrix(1.333333 0 0 1.333333 0 0)"><g clip-path="url(#1)"><path id="3" transform="matrix(1 0 0 -1 0 841)" d="M89.904 756L501.094 756L501.094 756L501.094 769.68L501.094 769.68L89.904 769.68z" stroke="none" fill="#D9D9D9" fill-rule="evenodd" /><path id="43" transform="matrix(1 0 0 -1 0 841)" d="M118.1 742.3L203.564 742.3L203.564 742.3L203.564 756.004L203.564 756.004L118.1 756.004z" stroke="none" fill="#D9D9D9" fill-rule="evenodd" /><path id="52" transform="matrix(1 0 0 -1 0 841)" d="M89.904 728.62L340.874 728.62L340.874 728.62L340.874 742.3L340.874 742.3L89.904 742.3z" stroke="none" fill="#D9D9D9" fill-rule="evenodd" /><path id="77" transform="matrix(1 0 0 -1 0 841)" d="M89.904 714.94L255.404 714.94L255.404 714.94L255.404 728.62L255.404 728.62L89.904 728.62z" stroke="none" fill="#D9D9D9" fill-rule="evenodd" /><path id="107" transform="matrix(1 0 0 -1 0 841)" d="M89.904 644.74L505.774 644.74L505.774 644.74L505.774 658.42L505.774 658.42L89.904 658.42z" stroke="none" fill="#D9D9D9" fill-rule="evenodd" /><path id="147" transform="matrix(1 0 0 -1 0 841)" d="M89.904 631.06L505.774 631.06L505.774 631.06L505.774 644.74L505.774 644.74L89.904 644.74z" stroke="none" fill="#D9D9D9" fill-rule="evenodd" /><path id="187" transform="matrix(1 0 0 -1 0 841)" d="M89.904 617.38L356.954 617.38L356.954 617.38L356.954 631.06L356.954 631.06L89.904 631.06z" stroke="none" fill="#D9D9D9" fill-rule="evenodd" /></g></g></svg>