<svg xmlns="http://www.w3.org/2000/svg" xmlns:xlink="http://www.w3.org/1999/xlink" id="body_40" preserveAspectRatio="xMinYMin meet" viewBox="0 0 793 1121"><defs><clipPath id="1"><path id="" clip-rule="evenodd" transform="matrix(1 0 0 1 0 0)" d="M0 841L0 -0.6799927L0 -0.6799927L595.44 -0.6799927L595.44 -0.6799927L595.44 841L595.44 841L0 841z" /></clipPath></defs><g transform="matrix(1.333333 0 0 1.333333 0 0)"><g clip-path="url(#1)"><path id="447" transform="matrix(1 0 0 -1 0 841)" d="M89.904 199.7L505.774 199.7L505.774 199.7L505.774 213.404L505.774 213.404L89.904 213.404z" stroke="none" fill="#D9D9D9" fill-rule="evenodd" /><path id="487" transform="matrix(1 0 0 -1 0 841)" d="M89.904 186.02L292.844 186.02L292.844 186.02L292.844 199.7L292.844 199.7L89.904 199.7z" stroke="none" fill="#D9D9D9" fill-rule="evenodd" /><path id="507" transform="matrix(1 0 0 -1 0 841)" d="M89.904 145.7L505.774 145.7L505.774 145.7L505.774 159.38L505.774 159.38L89.904 159.38z" stroke="none" fill="#D9D9D9" fill-rule="evenodd" /><path id="547" transform="matrix(1 0 0 -1 0 841)" d="M89.904 132.02L207.404 132.02L207.404 132.02L207.404 145.7L207.404 145.7L89.904 145.7z" stroke="none" fill="#D9D9D9" fill-rule="evenodd" /><path id="559" transform="matrix(1 0 0 -1 0 841)" d="M89.904 91.704L505.774 91.704L505.774 91.704L505.774 105.384L505.774 105.384L89.904 105.384z" stroke="none" fill="#D9D9D9" fill-rule="evenodd" /><path id="599" transform="matrix(1 0 0 -1 0 841)" d="M118.1 78.024L427.87 78.024L427.87 78.024L427.87 91.704L427.87 91.704L118.1 91.704z" stroke="none" fill="#D9D9D9" fill-rule="evenodd" /></g></g></svg>