<svg xmlns="http://www.w3.org/2000/svg" xmlns:xlink="http://www.w3.org/1999/xlink" id="body_19" preserveAspectRatio="xMinYMin meet" viewBox="0 0 793 1121"><defs><clipPath id="1"><path id="" clip-rule="evenodd" transform="matrix(1 0 0 1 0 0)" d="M0 841L0 -0.6799927L0 -0.6799927L595.44 -0.6799927L595.44 -0.6799927L595.44 841L595.44 841L0 841z" /></clipPath></defs><g transform="matrix(1.333333 0 0 1.333333 0 0)"><g clip-path="url(#1)"><path id="625" transform="matrix(1 0 0 -1 0 841)" d="M376.27 221.93L505.77 221.93L505.77 221.93L505.77 237.65L505.77 237.65L376.27 237.65z" stroke="none" fill="#D9D9D9" fill-rule="evenodd" /><path id="662" transform="matrix(1 0 0 -1 0 841)" d="M118.22 206.21L470.73 206.21L470.73 206.21L470.73 221.93L470.73 221.93L118.22 221.93z" stroke="none" fill="#D9D9D9" fill-rule="evenodd" /></g></g></svg>