<svg xmlns="http://www.w3.org/2000/svg" xmlns:xlink="http://www.w3.org/1999/xlink" id="body_29" preserveAspectRatio="xMinYMin meet" viewBox="0 0 793 1121"><defs><clipPath id="1"><path id="" clip-rule="evenodd" transform="matrix(1 0 0 1 0 0)" d="M0 841L0 -0.6799927L0 -0.6799927L595.44 -0.6799927L595.44 -0.6799927L595.44 841L595.44 841L0 841z" /></clipPath></defs><g transform="matrix(1.333333 0 0 1.333333 0 0)"><g clip-path="url(#1)"><path id="482" transform="matrix(1 0 0 -1 0 841)" d="M89.904 317.69L505.774 317.69L505.774 317.69L505.774 331.37L505.774 331.37L89.904 331.37z" stroke="none" fill="#D9D9D9" fill-rule="evenodd" /><path id="522" transform="matrix(1 0 0 -1 0 841)" d="M89.904 304.01L250.124 304.01L250.124 304.01L250.124 317.69L250.124 317.69L89.904 317.69z" stroke="none" fill="#D9D9D9" fill-rule="evenodd" /><path id="545" transform="matrix(1 0 0 -1 0 841)" d="M89.904 243.89L505.774 243.89L505.774 243.89L505.774 259.61L505.774 259.61L89.904 259.61z" stroke="none" fill="#D9D9D9" fill-rule="evenodd" /><path id="585" transform="matrix(1 0 0 -1 0 841)" d="M89.904 228.17L292.844 228.17L292.844 228.17L292.844 243.89L292.844 243.89L89.904 243.89z" stroke="none" fill="#D9D9D9" fill-rule="evenodd" /><path id="605" transform="matrix(1 0 0 -1 0 841)" d="M89.904 199.82L505.774 199.82L505.774 199.82L505.774 213.524L505.774 213.524L89.904 213.524z" stroke="none" fill="#D9D9D9" fill-rule="evenodd" /><path id="645" transform="matrix(1 0 0 -1 0 841)" d="M89.904 186.14L175.344 186.14L175.344 186.14L175.344 199.82L175.344 199.82L89.904 199.82z" stroke="none" fill="#D9D9D9" fill-rule="evenodd" /><path id="654" transform="matrix(1 0 0 -1 0 841)" d="M89.904 166.46L479.734 166.46L479.734 166.46L479.734 180.14L479.734 180.14L89.904 180.14z" stroke="none" fill="#D9D9D9" fill-rule="evenodd" /><path id="692" transform="matrix(1 0 0 -1 0 841)" d="M89.904 152.78L505.774 152.78L505.774 152.78L505.774 166.46L505.774 166.46L89.904 166.46z" stroke="none" fill="#D9D9D9" fill-rule="evenodd" /><path id="732" transform="matrix(1 0 0 -1 0 841)" d="M118.1 139.1L246.28 139.1L246.28 139.1L246.28 152.78L246.28 152.78L118.1 152.78z" stroke="none" fill="#D9D9D9" fill-rule="evenodd" /><path id="745" transform="matrix(1 0 0 -1 0 841)" d="M89.904 125.42L287.444 125.42L287.444 125.42L287.444 139.1L287.444 139.1L89.904 139.1z" stroke="none" fill="#D9D9D9" fill-rule="evenodd" /><path id="765" transform="matrix(1 0 0 -1 0 841)" d="M89.904 111.74L383.594 111.74L383.594 111.74L383.594 125.42L383.594 125.42L89.904 125.42z" stroke="none" fill="#D9D9D9" fill-rule="evenodd" /></g></g></svg>