<svg xmlns="http://www.w3.org/2000/svg" xmlns:xlink="http://www.w3.org/1999/xlink" id="body_2" preserveAspectRatio="xMinYMin meet" viewBox="0 0 793 1121"><defs><clipPath id="1"><path id="" clip-rule="evenodd" transform="matrix(1 0 0 1 0 0)" d="M0 841L0 -0.6799927L0 -0.6799927L595.44 -0.6799927L595.44 -0.6799927L595.44 841L595.44 841L0 841z" /></clipPath><clipPath id="2"><path id="" clip-rule="evenodd" transform="matrix(1 0 0 1 0 0)" d="M109.23 186.67L355.64 186.67L355.64 186.67L355.64 168.67L355.64 168.67L109.23 168.67z" /></clipPath><clipPath id="3"><path id="" clip-rule="evenodd" transform="matrix(1 0 0 1 0 0)" d="M109.22 186.66L355.63 186.66L355.63 186.66L355.63 168.66L355.63 168.66L109.22 168.66z" /></clipPath><clipPath id="4"><path id="" clip-rule="evenodd" transform="matrix(1 0 0 1 0 0)" d="M109.22 186.66L355.63 186.66L355.63 186.66L355.63 168.66L355.63 168.66L109.22 168.66z" /></clipPath><clipPath id="5"><path id="" clip-rule="evenodd" transform="matrix(1 0 0 1 0 0)" d="M109.22 186.66L355.63 186.66L355.63 186.66L355.63 168.66L355.63 168.66L109.22 168.66z" /></clipPath><clipPath id="6"><path id="" clip-rule="evenodd" transform="matrix(1 0 0 1 0 0)" d="M356.48 186.67L512.86 186.67L512.86 186.67L512.86 168.67L512.86 168.67L356.48 168.67z" /></clipPath><clipPath id="7"><path id="" clip-rule="evenodd" transform="matrix(1 0 0 1 0 0)" d="M356.47 186.66L512.85 186.66L512.85 186.66L512.85 168.66L512.85 168.66L356.47 168.66z" /></clipPath><clipPath id="8"><path id="" clip-rule="evenodd" transform="matrix(1 0 0 1 0 0)" d="M356.47 186.66L512.85 186.66L512.85 186.66L512.85 168.66L512.85 168.66L356.47 168.66z" /></clipPath><clipPath id="9"><path id="" clip-rule="evenodd" transform="matrix(1 0 0 1 0 0)" d="M109.23 203.11L355.64 203.11L355.64 203.11L355.64 187.39L355.64 187.39L109.23 187.39z" /></clipPath><clipPath id="10"><path id="" clip-rule="evenodd" transform="matrix(1 0 0 1 0 0)" d="M109.22 203.1L355.63 203.1L355.63 203.1L355.63 187.38L355.63 187.38L109.22 187.38z" /></clipPath><clipPath id="11"><path id="" clip-rule="evenodd" transform="matrix(1 0 0 1 0 0)" d="M109.22 203.1L355.63 203.1L355.63 203.1L355.63 187.38L355.63 187.38L109.22 187.38z" /></clipPath><clipPath id="12"><path id="" clip-rule="evenodd" transform="matrix(1 0 0 1 0 0)" d="M109.22 203.1L355.63 203.1L355.63 203.1L355.63 187.38L355.63 187.38L109.22 187.38z" /></clipPath><clipPath id="13"><path id="" clip-rule="evenodd" transform="matrix(1 0 0 1 0 0)" d="M109.22 203.1L355.63 203.1L355.63 203.1L355.63 187.38L355.63 187.38L109.22 187.38z" /></clipPath><clipPath id="14"><path id="" clip-rule="evenodd" transform="matrix(1 0 0 1 0 0)" d="M356.48 203.11L512.86 203.11L512.86 203.11L512.86 187.39L512.86 187.39L356.48 187.39z" /></clipPath><clipPath id="15"><path id="" clip-rule="evenodd" transform="matrix(1 0 0 1 0 0)" d="M356.47 203.1L512.85 203.1L512.85 203.1L512.85 187.38L512.85 187.38L356.47 187.38z" /></clipPath><clipPath id="16"><path id="" clip-rule="evenodd" transform="matrix(1 0 0 1 0 0)" d="M356.47 203.1L512.85 203.1L512.85 203.1L512.85 187.38L512.85 187.38L356.47 187.38z" /></clipPath><clipPath id="17"><path id="" clip-rule="evenodd" transform="matrix(1 0 0 1 0 0)" d="M356.47 203.1L512.85 203.1L512.85 203.1L512.85 187.38L512.85 187.38L356.47 187.38z" /></clipPath><clipPath id="18"><path id="" clip-rule="evenodd" transform="matrix(1 0 0 1 0 0)" d="M109.23 219.55L355.64 219.55L355.64 219.55L355.64 203.83L355.64 203.83L109.23 203.83z" /></clipPath><clipPath id="19"><path id="" clip-rule="evenodd" transform="matrix(1 0 0 1 0 0)" d="M109.22 219.54L355.63 219.54L355.63 219.54L355.63 203.82L355.63 203.82L109.22 203.82z" /></clipPath><clipPath id="20"><path id="" clip-rule="evenodd" transform="matrix(1 0 0 1 0 0)" d="M109.22 219.54L355.63 219.54L355.63 219.54L355.63 203.82L355.63 203.82L109.22 203.82z" /></clipPath><clipPath id="21"><path id="" clip-rule="evenodd" transform="matrix(1 0 0 1 0 0)" d="M109.22 219.54L355.63 219.54L355.63 219.54L355.63 203.82L355.63 203.82L109.22 203.82z" /></clipPath><clipPath id="22"><path id="" clip-rule="evenodd" transform="matrix(1 0 0 1 0 0)" d="M109.22 219.54L355.63 219.54L355.63 219.54L355.63 203.82L355.63 203.82L109.22 203.82z" /></clipPath><clipPath id="23"><path id="" clip-rule="evenodd" transform="matrix(1 0 0 1 0 0)" d="M109.22 219.54L355.63 219.54L355.63 219.54L355.63 203.82L355.63 203.82L109.22 203.82z" /></clipPath><clipPath id="24"><path id="" clip-rule="evenodd" transform="matrix(1 0 0 1 0 0)" d="M109.22 219.54L355.63 219.54L355.63 219.54L355.63 203.82L355.63 203.82L109.22 203.82z" /></clipPath><clipPath id="25"><path id="" clip-rule="evenodd" transform="matrix(1 0 0 1 0 0)" d="M356.48 219.55L512.86 219.55L512.86 219.55L512.86 203.83L512.86 203.83L356.48 203.83z" /></clipPath><clipPath id="26"><path id="" clip-rule="evenodd" transform="matrix(1 0 0 1 0 0)" d="M356.47 219.54L512.85 219.54L512.85 219.54L512.85 203.82L512.85 203.82L356.47 203.82z" /></clipPath><clipPath id="27"><path id="" clip-rule="evenodd" transform="matrix(1 0 0 1 0 0)" d="M356.47 219.54L512.85 219.54L512.85 219.54L512.85 203.82L512.85 203.82L356.47 203.82z" /></clipPath><clipPath id="28"><path id="" clip-rule="evenodd" transform="matrix(1 0 0 1 0 0)" d="M356.47 219.54L512.85 219.54L512.85 219.54L512.85 203.82L512.85 203.82L356.47 203.82z" /></clipPath><clipPath id="29"><path id="" clip-rule="evenodd" transform="matrix(1 0 0 1 0 0)" d="M109.23 235.99L355.64 235.99L355.64 235.99L355.64 220.27L355.64 220.27L109.23 220.27z" /></clipPath><clipPath id="30"><path id="" clip-rule="evenodd" transform="matrix(1 0 0 1 0 0)" d="M109.22 235.98L355.63 235.98L355.63 235.98L355.63 220.26L355.63 220.26L109.22 220.26z" /></clipPath><clipPath id="31"><path id="" clip-rule="evenodd" transform="matrix(1 0 0 1 0 0)" d="M109.22 235.98L355.63 235.98L355.63 235.98L355.63 220.26L355.63 220.26L109.22 220.26z" /></clipPath><clipPath id="32"><path id="" clip-rule="evenodd" transform="matrix(1 0 0 1 0 0)" d="M109.22 235.98L355.63 235.98L355.63 235.98L355.63 220.26L355.63 220.26L109.22 220.26z" /></clipPath><clipPath id="33"><path id="" clip-rule="evenodd" transform="matrix(1 0 0 1 0 0)" d="M109.22 235.98L355.63 235.98L355.63 235.98L355.63 220.26L355.63 220.26L109.22 220.26z" /></clipPath><clipPath id="34"><path id="" clip-rule="evenodd" transform="matrix(1 0 0 1 0 0)" d="M109.22 235.98L355.63 235.98L355.63 235.98L355.63 220.26L355.63 220.26L109.22 220.26z" /></clipPath><clipPath id="35"><path id="" clip-rule="evenodd" transform="matrix(1 0 0 1 0 0)" d="M109.22 235.98L355.63 235.98L355.63 235.98L355.63 220.26L355.63 220.26L109.22 220.26z" /></clipPath><clipPath id="36"><path id="" clip-rule="evenodd" transform="matrix(1 0 0 1 0 0)" d="M356.48 235.99L512.86 235.99L512.86 235.99L512.86 220.27L512.86 220.27L356.48 220.27z" /></clipPath><clipPath id="37"><path id="" clip-rule="evenodd" transform="matrix(1 0 0 1 0 0)" d="M356.47 235.98L512.85 235.98L512.85 235.98L512.85 220.26L512.85 220.26L356.47 220.26z" /></clipPath><clipPath id="38"><path id="" clip-rule="evenodd" transform="matrix(1 0 0 1 0 0)" d="M356.47 235.98L512.85 235.98L512.85 235.98L512.85 220.26L512.85 220.26L356.47 220.26z" /></clipPath><clipPath id="39"><path id="" clip-rule="evenodd" transform="matrix(1 0 0 1 0 0)" d="M356.47 235.98L512.85 235.98L512.85 235.98L512.85 220.26L512.85 220.26L356.47 220.26z" /></clipPath><clipPath id="40"><path id="" clip-rule="evenodd" transform="matrix(1 0 0 1 0 0)" d="M109.23 252.43L355.64 252.43L355.64 252.43L355.64 236.71L355.64 236.71L109.23 236.71z" /></clipPath><clipPath id="41"><path id="" clip-rule="evenodd" transform="matrix(1 0 0 1 0 0)" d="M109.22 252.42L355.63 252.42L355.63 252.42L355.63 236.7L355.63 236.7L109.22 236.7z" /></clipPath><clipPath id="42"><path id="" clip-rule="evenodd" transform="matrix(1 0 0 1 0 0)" d="M109.22 252.42L355.63 252.42L355.63 252.42L355.63 236.7L355.63 236.7L109.22 236.7z" /></clipPath><clipPath id="43"><path id="" clip-rule="evenodd" transform="matrix(1 0 0 1 0 0)" d="M109.22 252.42L355.63 252.42L355.63 252.42L355.63 236.7L355.63 236.7L109.22 236.7z" /></clipPath><clipPath id="44"><path id="" clip-rule="evenodd" transform="matrix(1 0 0 1 0 0)" d="M109.22 252.42L355.63 252.42L355.63 252.42L355.63 236.7L355.63 236.7L109.22 236.7z" /></clipPath><clipPath id="45"><path id="" clip-rule="evenodd" transform="matrix(1 0 0 1 0 0)" d="M109.22 252.42L355.63 252.42L355.63 252.42L355.63 236.7L355.63 236.7L109.22 236.7z" /></clipPath><clipPath id="46"><path id="" clip-rule="evenodd" transform="matrix(1 0 0 1 0 0)" d="M109.22 252.42L355.63 252.42L355.63 252.42L355.63 236.7L355.63 236.7L109.22 236.7z" /></clipPath><clipPath id="47"><path id="" clip-rule="evenodd" transform="matrix(1 0 0 1 0 0)" d="M356.48 252.43L512.86 252.43L512.86 252.43L512.86 236.71L512.86 236.71L356.48 236.71z" /></clipPath><clipPath id="48"><path id="" clip-rule="evenodd" transform="matrix(1 0 0 1 0 0)" d="M356.47 252.42L512.85 252.42L512.85 252.42L512.85 236.7L512.85 236.7L356.47 236.7z" /></clipPath><clipPath id="49"><path id="" clip-rule="evenodd" transform="matrix(1 0 0 1 0 0)" d="M356.47 252.42L512.85 252.42L512.85 252.42L512.85 236.7L512.85 236.7L356.47 236.7z" /></clipPath><clipPath id="50"><path id="" clip-rule="evenodd" transform="matrix(1 0 0 1 0 0)" d="M109.23 268.87L355.64 268.87L355.64 268.87L355.64 253.15L355.64 253.15L109.23 253.15z" /></clipPath><clipPath id="51"><path id="" clip-rule="evenodd" transform="matrix(1 0 0 1 0 0)" d="M109.22 268.86L355.63 268.86L355.63 268.86L355.63 253.14L355.63 253.14L109.22 253.14z" /></clipPath><clipPath id="52"><path id="" clip-rule="evenodd" transform="matrix(1 0 0 1 0 0)" d="M109.22 268.86L355.63 268.86L355.63 268.86L355.63 253.14L355.63 253.14L109.22 253.14z" /></clipPath><clipPath id="53"><path id="" clip-rule="evenodd" transform="matrix(1 0 0 1 0 0)" d="M109.22 268.86L355.63 268.86L355.63 268.86L355.63 253.14L355.63 253.14L109.22 253.14z" /></clipPath><clipPath id="54"><path id="" clip-rule="evenodd" transform="matrix(1 0 0 1 0 0)" d="M109.22 268.86L355.63 268.86L355.63 268.86L355.63 253.14L355.63 253.14L109.22 253.14z" /></clipPath><clipPath id="55"><path id="" clip-rule="evenodd" transform="matrix(1 0 0 1 0 0)" d="M109.22 268.86L355.63 268.86L355.63 268.86L355.63 253.14L355.63 253.14L109.22 253.14z" /></clipPath><clipPath id="56"><path id="" clip-rule="evenodd" transform="matrix(1 0 0 1 0 0)" d="M109.22 268.86L355.63 268.86L355.63 268.86L355.63 253.14L355.63 253.14L109.22 253.14z" /></clipPath><clipPath id="57"><path id="" clip-rule="evenodd" transform="matrix(1 0 0 1 0 0)" d="M356.48 268.87L512.86 268.87L512.86 268.87L512.86 253.15L512.86 253.15L356.48 253.15z" /></clipPath><clipPath id="58"><path id="" clip-rule="evenodd" transform="matrix(1 0 0 1 0 0)" d="M356.47 268.86L512.85 268.86L512.85 268.86L512.85 253.14L512.85 253.14L356.47 253.14z" /></clipPath><clipPath id="59"><path id="" clip-rule="evenodd" transform="matrix(1 0 0 1 0 0)" d="M356.47 268.86L512.85 268.86L512.85 268.86L512.85 253.14L512.85 253.14L356.47 253.14z" /></clipPath><clipPath id="60"><path id="" clip-rule="evenodd" transform="matrix(1 0 0 1 0 0)" d="M109.23 285.33L355.64 285.33L355.64 285.33L355.64 269.595L355.64 269.595L109.23 269.595z" /></clipPath><clipPath id="61"><path id="" clip-rule="evenodd" transform="matrix(1 0 0 1 0 0)" d="M109.22 285.33L355.63 285.33L355.63 285.33L355.63 269.586L355.63 269.586L109.22 269.586z" /></clipPath><clipPath id="62"><path id="" clip-rule="evenodd" transform="matrix(1 0 0 1 0 0)" d="M109.22 285.33L355.63 285.33L355.63 285.33L355.63 269.586L355.63 269.586L109.22 269.586z" /></clipPath><clipPath id="63"><path id="" clip-rule="evenodd" transform="matrix(1 0 0 1 0 0)" d="M109.22 285.33L355.63 285.33L355.63 285.33L355.63 269.586L355.63 269.586L109.22 269.586z" /></clipPath><clipPath id="64"><path id="" clip-rule="evenodd" transform="matrix(1 0 0 1 0 0)" d="M109.22 285.33L355.63 285.33L355.63 285.33L355.63 269.586L355.63 269.586L109.22 269.586z" /></clipPath><clipPath id="65"><path id="" clip-rule="evenodd" transform="matrix(1 0 0 1 0 0)" d="M109.22 285.33L355.63 285.33L355.63 285.33L355.63 269.586L355.63 269.586L109.22 269.586z" /></clipPath><clipPath id="66"><path id="" clip-rule="evenodd" transform="matrix(1 0 0 1 0 0)" d="M356.48 285.33L512.86 285.33L512.86 285.33L512.86 269.595L512.86 269.595L356.48 269.595z" /></clipPath><clipPath id="67"><path id="" clip-rule="evenodd" transform="matrix(1 0 0 1 0 0)" d="M356.47 285.33L512.85 285.33L512.85 285.33L512.85 269.586L512.85 269.586L356.47 269.586z" /></clipPath><clipPath id="68"><path id="" clip-rule="evenodd" transform="matrix(1 0 0 1 0 0)" d="M356.47 285.33L512.85 285.33L512.85 285.33L512.85 269.586L512.85 269.586L356.47 269.586z" /></clipPath><clipPath id="69"><path id="" clip-rule="evenodd" transform="matrix(1 0 0 1 0 0)" d="M356.47 285.33L512.85 285.33L512.85 285.33L512.85 269.586L512.85 269.586L356.47 269.586z" /></clipPath></defs><g transform="matrix(1.333333 0 0 1.333333 0 0)"><g clip-path="url(#1)"><g clip-path="url(#2)"><g clip-path="url(#3)"></g><g clip-path="url(#4)"></g><g clip-path="url(#5)"></g></g><g clip-path="url(#6)"><g clip-path="url(#7)"></g><g clip-path="url(#8)"></g></g><path id="232" transform="matrix(1 0 0 -1 0 841)" d="M107.78 672.34L109.22 672.34L109.22 672.34L109.22 673.9L109.22 673.9L107.78 673.9z" stroke="none" fill="#000000" fill-rule="evenodd" /><path id="233" transform="matrix(1 0 0 -1 0 841)" d="M107.78 672.46L109.22 672.46L109.22 672.46L109.22 673.9L109.22 673.9L107.78 673.9z" stroke="none" fill="#000000" fill-rule="evenodd" /><path id="234" transform="matrix(1 0 0 -1 0 841)" d="M109.22 672.46L355.75 672.46L355.75 672.46L355.75 673.9L355.75 673.9L109.22 673.9z" stroke="none" fill="#000000" fill-rule="evenodd" /><path id="235" transform="matrix(1 0 0 -1 0 841)" d="M355.75 672.34L356.47 672.34L356.47 672.34L356.47 672.46L356.47 672.46L355.75 672.46z" stroke="none" fill="#000000" fill-rule="evenodd" /><path id="236" transform="matrix(1 0 0 -1 0 841)" d="M355.75 672.46L357.19 672.46L357.19 672.46L357.19 673.9L357.19 673.9L355.75 673.9z" stroke="none" fill="#000000" fill-rule="evenodd" /><path id="237" transform="matrix(1 0 0 -1 0 841)" d="M357.19 672.46L512.85 672.46L512.85 672.46L512.85 673.9L512.85 673.9L357.19 673.9z" stroke="none" fill="#000000" fill-rule="evenodd" /><path id="238" transform="matrix(1 0 0 -1 0 841)" d="M512.86 672.34L514.3 672.34L514.3 672.34L514.3 673.9L514.3 673.9L512.86 673.9z" stroke="none" fill="#000000" fill-rule="evenodd" /><path id="239" transform="matrix(1 0 0 -1 0 841)" d="M512.86 672.46L514.3 672.46L514.3 672.46L514.3 673.9L514.3 673.9L512.86 673.9z" stroke="none" fill="#000000" fill-rule="evenodd" /><path id="240" transform="matrix(1 0 0 -1 0 841)" d="M107.78 654.34L109.22 654.34L109.22 654.34L109.22 672.34L109.22 672.34L107.78 672.34z" stroke="none" fill="#000000" fill-rule="evenodd" /><path id="241" transform="matrix(1 0 0 -1 0 841)" d="M355.75 654.34L356.47 654.34L356.47 654.34L356.47 672.34L356.47 672.34L355.75 672.34z" stroke="none" fill="#000000" fill-rule="evenodd" /><path id="242" transform="matrix(1 0 0 -1 0 841)" d="M512.86 654.34L514.3 654.34L514.3 654.34L514.3 672.34L514.3 672.34L512.86 672.34z" stroke="none" fill="#000000" fill-rule="evenodd" /><g clip-path="url(#9)"><g clip-path="url(#10)"></g><g clip-path="url(#11)"></g><g clip-path="url(#12)"></g><g clip-path="url(#13)"></g></g><g clip-path="url(#14)"><g clip-path="url(#15)"></g><g clip-path="url(#16)"></g><g clip-path="url(#17)"></g></g><path id="254" transform="matrix(1 0 0 -1 0 841)" d="M107.78 653.62L109.22 653.62L109.22 653.62L109.22 654.34L109.22 654.34L107.78 654.34z" stroke="none" fill="#000000" fill-rule="evenodd" /><path id="255" transform="matrix(1 0 0 -1 0 841)" d="M109.22 653.62L355.75 653.62L355.75 653.62L355.75 654.34L355.75 654.34L109.22 654.34z" stroke="none" fill="#000000" fill-rule="evenodd" /><path id="256" transform="matrix(1 0 0 -1 0 841)" d="M355.75 653.62L356.47 653.62L356.47 653.62L356.47 654.34L356.47 654.34L355.75 654.34z" stroke="none" fill="#000000" fill-rule="evenodd" /><path id="257" transform="matrix(1 0 0 -1 0 841)" d="M356.47 653.62L512.85 653.62L512.85 653.62L512.85 654.34L512.85 654.34L356.47 654.34z" stroke="none" fill="#000000" fill-rule="evenodd" /><path id="258" transform="matrix(1 0 0 -1 0 841)" d="M512.86 653.62L514.3 653.62L514.3 653.62L514.3 654.34L514.3 654.34L512.86 654.34z" stroke="none" fill="#000000" fill-rule="evenodd" /><path id="259" transform="matrix(1 0 0 -1 0 841)" d="M107.78 637.9L109.22 637.9L109.22 637.9L109.22 653.62L109.22 653.62L107.78 653.62z" stroke="none" fill="#000000" fill-rule="evenodd" /><path id="260" transform="matrix(1 0 0 -1 0 841)" d="M355.75 637.9L356.47 637.9L356.47 637.9L356.47 653.62L356.47 653.62L355.75 653.62z" stroke="none" fill="#000000" fill-rule="evenodd" /><path id="261" transform="matrix(1 0 0 -1 0 841)" d="M512.86 637.9L514.3 637.9L514.3 637.9L514.3 653.62L514.3 653.62L512.86 653.62z" stroke="none" fill="#000000" fill-rule="evenodd" /><g clip-path="url(#18)"><g clip-path="url(#19)"></g><g clip-path="url(#20)"></g><g clip-path="url(#21)"></g><g clip-path="url(#22)"></g><g clip-path="url(#23)"></g><g clip-path="url(#24)"></g></g><g clip-path="url(#25)"><g clip-path="url(#26)"></g><g clip-path="url(#27)"></g><g clip-path="url(#28)"></g></g><path id="276" transform="matrix(1 0 0 -1 0 841)" d="M107.78 637.18L109.22 637.18L109.22 637.18L109.22 637.9L109.22 637.9L107.78 637.9z" stroke="none" fill="#000000" fill-rule="evenodd" /><path id="277" transform="matrix(1 0 0 -1 0 841)" d="M109.22 637.18L355.75 637.18L355.75 637.18L355.75 637.9L355.75 637.9L109.22 637.9z" stroke="none" fill="#000000" fill-rule="evenodd" /><path id="278" transform="matrix(1 0 0 -1 0 841)" d="M355.75 637.18L356.47 637.18L356.47 637.18L356.47 637.9L356.47 637.9L355.75 637.9z" stroke="none" fill="#000000" fill-rule="evenodd" /><path id="279" transform="matrix(1 0 0 -1 0 841)" d="M356.47 637.18L512.85 637.18L512.85 637.18L512.85 637.9L512.85 637.9L356.47 637.9z" stroke="none" fill="#000000" fill-rule="evenodd" /><path id="280" transform="matrix(1 0 0 -1 0 841)" d="M512.86 637.18L514.3 637.18L514.3 637.18L514.3 637.9L514.3 637.9L512.86 637.9z" stroke="none" fill="#000000" fill-rule="evenodd" /><path id="281" transform="matrix(1 0 0 -1 0 841)" d="M107.78 621.46L109.22 621.46L109.22 621.46L109.22 637.18L109.22 637.18L107.78 637.18z" stroke="none" fill="#000000" fill-rule="evenodd" /><path id="282" transform="matrix(1 0 0 -1 0 841)" d="M355.75 621.46L356.47 621.46L356.47 621.46L356.47 637.18L356.47 637.18L355.75 637.18z" stroke="none" fill="#000000" fill-rule="evenodd" /><path id="283" transform="matrix(1 0 0 -1 0 841)" d="M512.86 621.46L514.3 621.46L514.3 621.46L514.3 637.18L514.3 637.18L512.86 637.18z" stroke="none" fill="#000000" fill-rule="evenodd" /><g clip-path="url(#29)"><g clip-path="url(#30)"></g><g clip-path="url(#31)"></g><g clip-path="url(#32)"></g><g clip-path="url(#33)"></g><g clip-path="url(#34)"></g><g clip-path="url(#35)"></g></g><g clip-path="url(#36)"><g clip-path="url(#37)"></g><g clip-path="url(#38)"></g><g clip-path="url(#39)"></g></g><path id="298" transform="matrix(1 0 0 -1 0 841)" d="M107.78 620.74L109.22 620.74L109.22 620.74L109.22 621.46L109.22 621.46L107.78 621.46z" stroke="none" fill="#000000" fill-rule="evenodd" /><path id="299" transform="matrix(1 0 0 -1 0 841)" d="M109.22 620.74L355.75 620.74L355.75 620.74L355.75 621.46L355.75 621.46L109.22 621.46z" stroke="none" fill="#000000" fill-rule="evenodd" /><path id="300" transform="matrix(1 0 0 -1 0 841)" d="M355.75 620.74L356.47 620.74L356.47 620.74L356.47 621.46L356.47 621.46L355.75 621.46z" stroke="none" fill="#000000" fill-rule="evenodd" /><path id="301" transform="matrix(1 0 0 -1 0 841)" d="M356.47 620.74L512.85 620.74L512.85 620.74L512.85 621.46L512.85 621.46L356.47 621.46z" stroke="none" fill="#000000" fill-rule="evenodd" /><path id="302" transform="matrix(1 0 0 -1 0 841)" d="M512.86 620.74L514.3 620.74L514.3 620.74L514.3 621.46L514.3 621.46L512.86 621.46z" stroke="none" fill="#000000" fill-rule="evenodd" /><path id="303" transform="matrix(1 0 0 -1 0 841)" d="M107.78 605.02L109.22 605.02L109.22 605.02L109.22 620.74L109.22 620.74L107.78 620.74z" stroke="none" fill="#000000" fill-rule="evenodd" /><path id="304" transform="matrix(1 0 0 -1 0 841)" d="M355.75 605.02L356.47 605.02L356.47 605.02L356.47 620.74L356.47 620.74L355.75 620.74z" stroke="none" fill="#000000" fill-rule="evenodd" /><path id="305" transform="matrix(1 0 0 -1 0 841)" d="M512.86 605.02L514.3 605.02L514.3 605.02L514.3 620.74L514.3 620.74L512.86 620.74z" stroke="none" fill="#000000" fill-rule="evenodd" /><g clip-path="url(#40)"><g clip-path="url(#41)"></g><g clip-path="url(#42)"></g><g clip-path="url(#43)"></g><g clip-path="url(#44)"></g><g clip-path="url(#45)"></g><g clip-path="url(#46)"></g></g><g clip-path="url(#47)"><g clip-path="url(#48)"></g><g clip-path="url(#49)"></g></g><path id="320" transform="matrix(1 0 0 -1 0 841)" d="M107.78 604.3L109.22 604.3L109.22 604.3L109.22 605.02L109.22 605.02L107.78 605.02z" stroke="none" fill="#000000" fill-rule="evenodd" /><path id="321" transform="matrix(1 0 0 -1 0 841)" d="M109.22 604.3L355.75 604.3L355.75 604.3L355.75 605.02L355.75 605.02L109.22 605.02z" stroke="none" fill="#000000" fill-rule="evenodd" /><path id="322" transform="matrix(1 0 0 -1 0 841)" d="M355.75 604.3L356.47 604.3L356.47 604.3L356.47 605.02L356.47 605.02L355.75 605.02z" stroke="none" fill="#000000" fill-rule="evenodd" /><path id="323" transform="matrix(1 0 0 -1 0 841)" d="M356.47 604.3L512.85 604.3L512.85 604.3L512.85 605.02L512.85 605.02L356.47 605.02z" stroke="none" fill="#000000" fill-rule="evenodd" /><path id="324" transform="matrix(1 0 0 -1 0 841)" d="M512.86 604.3L514.3 604.3L514.3 604.3L514.3 605.02L514.3 605.02L512.86 605.02z" stroke="none" fill="#000000" fill-rule="evenodd" /><path id="325" transform="matrix(1 0 0 -1 0 841)" d="M107.78 588.58L109.22 588.58L109.22 588.58L109.22 604.3L109.22 604.3L107.78 604.3z" stroke="none" fill="#000000" fill-rule="evenodd" /><path id="326" transform="matrix(1 0 0 -1 0 841)" d="M355.75 588.58L356.47 588.58L356.47 588.58L356.47 604.3L356.47 604.3L355.75 604.3z" stroke="none" fill="#000000" fill-rule="evenodd" /><path id="327" transform="matrix(1 0 0 -1 0 841)" d="M512.86 588.58L514.3 588.58L514.3 588.58L514.3 604.3L514.3 604.3L512.86 604.3z" stroke="none" fill="#000000" fill-rule="evenodd" /><g clip-path="url(#50)"><g clip-path="url(#51)"></g><g clip-path="url(#52)"></g><g clip-path="url(#53)"></g><g clip-path="url(#54)"></g><g clip-path="url(#55)"></g><g clip-path="url(#56)"></g></g><g clip-path="url(#57)"><g clip-path="url(#58)"></g><g clip-path="url(#59)"></g></g><path id="342" transform="matrix(1 0 0 -1 0 841)" d="M107.78 587.86L109.22 587.86L109.22 587.86L109.22 588.58L109.22 588.58L107.78 588.58z" stroke="none" fill="#000000" fill-rule="evenodd" /><path id="343" transform="matrix(1 0 0 -1 0 841)" d="M109.22 587.86L355.75 587.86L355.75 587.86L355.75 588.58L355.75 588.58L109.22 588.58z" stroke="none" fill="#000000" fill-rule="evenodd" /><path id="344" transform="matrix(1 0 0 -1 0 841)" d="M355.75 587.86L356.47 587.86L356.47 587.86L356.47 588.58L356.47 588.58L355.75 588.58z" stroke="none" fill="#000000" fill-rule="evenodd" /><path id="345" transform="matrix(1 0 0 -1 0 841)" d="M356.47 587.86L512.85 587.86L512.85 587.86L512.85 588.58L512.85 588.58L356.47 588.58z" stroke="none" fill="#000000" fill-rule="evenodd" /><path id="346" transform="matrix(1 0 0 -1 0 841)" d="M512.86 587.86L514.3 587.86L514.3 587.86L514.3 588.58L514.3 588.58L512.86 588.58z" stroke="none" fill="#000000" fill-rule="evenodd" /><path id="347" transform="matrix(1 0 0 -1 0 841)" d="M107.78 572.14L109.22 572.14L109.22 572.14L109.22 587.86L109.22 587.86L107.78 587.86z" stroke="none" fill="#000000" fill-rule="evenodd" /><path id="348" transform="matrix(1 0 0 -1 0 841)" d="M355.75 572.14L356.47 572.14L356.47 572.14L356.47 587.86L356.47 587.86L355.75 587.86z" stroke="none" fill="#000000" fill-rule="evenodd" /><path id="349" transform="matrix(1 0 0 -1 0 841)" d="M512.86 572.14L514.3 572.14L514.3 572.14L514.3 587.86L514.3 587.86L512.86 587.86z" stroke="none" fill="#000000" fill-rule="evenodd" /><g clip-path="url(#60)"><g clip-path="url(#61)"></g><g clip-path="url(#62)"></g><g clip-path="url(#63)"></g><g clip-path="url(#64)"></g><g clip-path="url(#65)"></g></g><g clip-path="url(#66)"><g clip-path="url(#67)"></g><g clip-path="url(#68)"></g><g clip-path="url(#69)"></g></g><path id="358" transform="matrix(1 0 0 -1 0 841)" d="M107.78 571.42L109.22 571.42L109.22 571.42L109.22 572.14L109.22 572.14L107.78 572.14z" stroke="none" fill="#000000" fill-rule="evenodd" /><path id="359" transform="matrix(1 0 0 -1 0 841)" d="M109.22 571.42L355.75 571.42L355.75 571.42L355.75 572.14L355.75 572.14L109.22 572.14z" stroke="none" fill="#000000" fill-rule="evenodd" /><path id="360" transform="matrix(1 0 0 -1 0 841)" d="M355.75 571.42L356.47 571.42L356.47 571.42L356.47 572.14L356.47 572.14L355.75 572.14z" stroke="none" fill="#000000" fill-rule="evenodd" /><path id="361" transform="matrix(1 0 0 -1 0 841)" d="M356.47 571.42L512.85 571.42L512.85 571.42L512.85 572.14L512.85 572.14L356.47 572.14z" stroke="none" fill="#000000" fill-rule="evenodd" /><path id="362" transform="matrix(1 0 0 -1 0 841)" d="M512.86 571.42L514.3 571.42L514.3 571.42L514.3 572.14L514.3 572.14L512.86 572.14z" stroke="none" fill="#000000" fill-rule="evenodd" /><path id="363" transform="matrix(1 0 0 -1 0 841)" d="M107.78 555.55L109.22 555.55L109.22 555.55L109.22 571.414L109.22 571.414L107.78 571.414z" stroke="none" fill="#000000" fill-rule="evenodd" /><path id="364" transform="matrix(1 0 0 -1 0 841)" d="M107.78 554.11L109.22 554.11L109.22 554.11L109.22 555.55L109.22 555.55L107.78 555.55z" stroke="none" fill="#000000" fill-rule="evenodd" /><path id="365" transform="matrix(1 0 0 -1 0 841)" d="M107.78 554.11L109.22 554.11L109.22 554.11L109.22 555.55L109.22 555.55L107.78 555.55z" stroke="none" fill="#000000" fill-rule="evenodd" /><path id="366" transform="matrix(1 0 0 -1 0 841)" d="M109.22 554.11L355.75 554.11L355.75 554.11L355.75 555.55L355.75 555.55L109.22 555.55z" stroke="none" fill="#000000" fill-rule="evenodd" /><path id="367" transform="matrix(1 0 0 -1 0 841)" d="M355.75 555.55L356.47 555.55L356.47 555.55L356.47 571.414L356.47 571.414L355.75 571.414z" stroke="none" fill="#000000" fill-rule="evenodd" /><path id="368" transform="matrix(1 0 0 -1 0 841)" d="M355.75 554.11L357.19 554.11L357.19 554.11L357.19 555.55L357.19 555.55L355.75 555.55z" stroke="none" fill="#000000" fill-rule="evenodd" /><path id="369" transform="matrix(1 0 0 -1 0 841)" d="M357.19 554.11L512.85 554.11L512.85 554.11L512.85 555.55L512.85 555.55L357.19 555.55z" stroke="none" fill="#000000" fill-rule="evenodd" /><path id="370" transform="matrix(1 0 0 -1 0 841)" d="M512.86 555.55L514.3 555.55L514.3 555.55L514.3 571.414L514.3 571.414L512.86 571.414z" stroke="none" fill="#000000" fill-rule="evenodd" /><path id="371" transform="matrix(1 0 0 -1 0 841)" d="M512.86 554.11L514.3 554.11L514.3 554.11L514.3 555.55L514.3 555.55L512.86 555.55z" stroke="none" fill="#000000" fill-rule="evenodd" /><path id="372" transform="matrix(1 0 0 -1 0 841)" d="M512.86 554.11L514.3 554.11L514.3 554.11L514.3 555.55L514.3 555.55L512.86 555.55z" stroke="none" fill="#000000" fill-rule="evenodd" /><path id="728" transform="matrix(1 0 0 -1 0 841)" d="M202.13 305.21L505.78 305.21L505.78 305.21L505.78 320.93L505.78 320.93L202.13 320.93z" stroke="none" fill="#D9D9D9" fill-rule="evenodd" /><path id="766" transform="matrix(1 0 0 -1 0 841)" d="M118.22 289.49L331.87 289.49L331.87 289.49L331.87 305.21L331.87 305.21L118.22 305.21z" stroke="none" fill="#D9D9D9" fill-rule="evenodd" /></g></g></svg>