<svg xmlns="http://www.w3.org/2000/svg" xmlns:xlink="http://www.w3.org/1999/xlink" id="body_47" preserveAspectRatio="xMinYMin meet" viewBox="0 0 793 1121"><defs><clipPath id="1"><path id="" clip-rule="evenodd" transform="matrix(1 0 0 1 0 0)" d="M0 841L0 -0.6799927L0 -0.6799927L595.44 -0.6799927L595.44 -0.6799927L595.44 841L595.44 841L0 841z" /></clipPath></defs><g transform="matrix(1.333333 0 0 1.333333 0 0)"><g clip-path="url(#1)"><path id="252" transform="matrix(1 0 0 -1 0 841)" d="M89.904 539.11L503.254 539.11L503.254 539.11L503.254 553.63L503.254 553.63L89.904 553.63z" stroke="none" fill="#D9D9D9" fill-rule="evenodd" /><path id="294" transform="matrix(1 0 0 -1 0 841)" d="M89.904 524.59L170.544 524.59L170.544 524.59L170.544 539.11L170.544 539.11L89.904 539.11z" stroke="none" fill="#D9D9D9" fill-rule="evenodd" /></g></g></svg>