<svg xmlns="http://www.w3.org/2000/svg" xmlns:xlink="http://www.w3.org/1999/xlink" id="body_30" preserveAspectRatio="xMinYMin meet" viewBox="0 0 793 1121"><defs><clipPath id="1"><path id="" clip-rule="evenodd" transform="matrix(1 0 0 1 0 0)" d="M0 841L0 -0.6799927L0 -0.6799927L595.44 -0.6799927L595.44 -0.6799927L595.44 841L595.44 841L0 841z" /></clipPath></defs><g transform="matrix(1.333333 0 0 1.333333 0 0)"><g clip-path="url(#1)"><path id="413" transform="matrix(1 0 0 -1 0 841)" d="M89.904 439.39L505.774 439.39L505.774 439.39L505.774 454.63L505.774 454.63L89.904 454.63z" stroke="none" fill="#D9D9D9" fill-rule="evenodd" /><path id="453" transform="matrix(1 0 0 -1 0 841)" d="M89.904 424.15L186.024 424.15L186.024 424.15L186.024 439.39L186.024 439.39L89.904 439.39z" stroke="none" fill="#D9D9D9" fill-rule="evenodd" /></g></g></svg>