<svg xmlns="http://www.w3.org/2000/svg" xmlns:xlink="http://www.w3.org/1999/xlink" id="body_48" preserveAspectRatio="xMinYMin meet" viewBox="0 0 793 1121"><defs><clipPath id="1"><path id="" clip-rule="evenodd" transform="matrix(1 0 0 1 0 0)" d="M0 841L0 -0.6799927L0 -0.6799927L595.44 -0.6799927L595.44 -0.6799927L595.44 841L595.44 841L0 841z" /></clipPath></defs><g transform="matrix(1.333333 0 0 1.333333 0 0)"><g clip-path="url(#1)"><path id="308" transform="matrix(1 0 0 -1 0 841)" d="M89.904 401.59L331.874 401.59L331.874 401.59L331.874 416.59L331.874 416.59L89.904 416.59z" stroke="none" fill="#D9D9D9" fill-rule="evenodd" /><path id="627" transform="matrix(1 0 0 -1 0 841)" d="M89.904 242.45L503.254 242.45L503.254 242.45L503.254 256.97L503.254 256.97L89.904 256.97z" stroke="none" fill="#D9D9D9" fill-rule="evenodd" /><path id="669" transform="matrix(1 0 0 -1 0 841)" d="M89.904 227.93L503.254 227.93L503.254 227.93L503.254 242.45L503.254 242.45L89.904 242.45z" stroke="none" fill="#D9D9D9" fill-rule="evenodd" /><path id="711" transform="matrix(1 0 0 -1 0 841)" d="M89.904 213.41L503.254 213.41L503.254 213.41L503.254 227.93L503.254 227.93L89.904 227.93z" stroke="none" fill="#D9D9D9" fill-rule="evenodd" /><path id="753" transform="matrix(1 0 0 -1 0 841)" d="M89.904 198.86L311.684 198.86L311.684 198.86L311.684 213.404L311.684 213.404L89.904 213.404z" stroke="none" fill="#D9D9D9" fill-rule="evenodd" /><path id="783" transform="matrix(1 0 0 -1 0 841)" d="M89.904 139.82L311.684 139.82L311.684 139.82L311.684 154.82L311.684 154.82L89.904 154.82z" stroke="none" fill="#D9D9D9" fill-rule="evenodd" /></g></g></svg>